<?xml version="1.0" encoding="iso-8859-1"?>
<!-- Generator: Adobe Illustrator 19.0.0, SVG Export Plug-In . SVG Version: 6.00 Build 0)  -->
<svg version="1.1" id="Layer_1" xmlns="http://www.w3.org/2000/svg" xmlns:xlink="http://www.w3.org/1999/xlink" x="0px" y="0px"
	 viewBox="0 0 512 512" style="enable-background:new 0 0 512 512;" xml:space="preserve">
<path style="fill:#FB9789;" d="M502.865,188.049C473.095,79.648,373.856,0,256,0C114.615,0,0,114.615,0,256
	c0,117.856,79.648,217.094,188.049,246.865L502.865,188.049z"/>
<path style="fill:#FA690E;" d="M512,256c0-23.529-3.191-46.309-9.135-67.951l-89.458-89.458L98.592,413.408l89.458,89.458
	c21.641,5.944,44.422,9.135,67.951,9.135C397.385,512,512,397.384,512,256z"/>
<path style="fill:#FFF3AD;" d="M256,33.391L144.696,256L256,478.609c122.943,0,222.609-99.665,222.609-222.609
	S378.943,33.391,256,33.391z"/>
<path style="fill:#FFFFFF;" d="M33.391,256c0,122.943,99.665,222.609,222.609,222.609V33.391
	C133.057,33.391,33.391,133.057,33.391,256z"/>
<path style="fill:#FFD23E;" d="M256,66.783L161.391,256L256,445.217c104.501,0,189.217-84.715,189.217-189.217
	S360.501,66.783,256,66.783z"/>
<path style="fill:#FFE376;" d="M66.783,256c0,104.503,84.716,189.217,189.217,189.217V66.783
	C151.499,66.783,66.783,151.497,66.783,256z"/>
<path style="fill:#B78456;" d="M222.609,122.435c-24.588,0-44.522,19.933-44.522,44.522v44.522H256v-89.043H222.609z"/>
<path style="fill:#934D2B;" d="M333.913,166.957c0-24.588-19.934-44.522-44.522-44.522H256v89.043h77.913V166.957z"/>
<path style="fill:#A56840;" d="M256,122.435l-44.479,144.811L256,389.565c78.063,0,144.136-51.285,166.4-121.994L256,122.435z"/>
<path style="fill:#C9A06C;" d="M89.6,267.571c22.264,70.709,88.337,121.994,166.4,121.994v-267.13L89.6,267.571z"/>
<path style="fill:#FFF3AD;" d="M256,151.974L222.609,256L256,367.304c33.025,0,64.431-10.398,90.821-30.069
	c21.697-16.173,38.892-38.178,49.405-62.955L256,151.974z"/>
<path style="fill:#FFFFFF;" d="M115.774,274.282c10.513,24.776,27.708,46.781,49.405,62.955
	c26.39,19.67,57.796,30.068,90.821,30.068v-215.33L115.774,274.282z"/>
<path style="fill:#FCB9B0;" d="M256,212.002l-11.13,55.652L256,312.176h22.261l33.391-44.522
	C311.652,236.918,286.736,212.002,256,212.002z"/>
<path style="fill:#FEDCD7;" d="M200.348,267.655l33.391,44.522H256V212.003C225.264,212.002,200.348,236.918,200.348,267.655z"/>
<path style="fill:#FA690E;" d="M289.391,267.655c0,18.412-14.979,33.391-33.391,33.391v22.261c30.736,0,55.652-24.917,55.652-55.652
	H289.391L289.391,267.655z"/>
<path style="fill:#FC870B;" d="M222.609,267.655h-22.261c0,30.736,24.917,55.652,55.652,55.652v-22.261
	C237.588,301.046,222.609,286.067,222.609,267.655z"/>
<g>
</g>
<g>
</g>
<g>
</g>
<g>
</g>
<g>
</g>
<g>
</g>
<g>
</g>
<g>
</g>
<g>
</g>
<g>
</g>
<g>
</g>
<g>
</g>
<g>
</g>
<g>
</g>
<g>
</g>
</svg>
