<?xml version="1.0" encoding="iso-8859-1"?>
<!-- Generator: Adobe Illustrator 19.0.0, SVG Export Plug-In . SVG Version: 6.00 Build 0)  -->
<svg version="1.1" id="Layer_1" xmlns="http://www.w3.org/2000/svg" xmlns:xlink="http://www.w3.org/1999/xlink" x="0px" y="0px"
	 viewBox="0 0 512.001 512.001" style="enable-background:new 0 0 512.001 512.001;" xml:space="preserve">
<path style="fill:#C9E5FF;" d="M502.856,188.035c-11.36-41.407-33.296-80.519-65.829-113.052
	c-99.976-99.976-262.07-99.976-362.045,0s-99.976,262.07,0,362.045c32.533,32.533,71.646,54.469,113.052,65.829L502.856,188.035z"/>
<path style="fill:#92CCFF;" d="M437.028,437.028c67.444-67.444,89.379-163.153,65.829-248.993l-81.571-81.57L256.002,256.008
	L106.465,421.286l81.57,81.57C273.875,526.407,369.584,504.471,437.028,437.028z"/>
<rect x="244.874" y="33.39" transform="matrix(-0.7071 -0.7071 0.7071 -0.7071 256.0081 618.0428)" style="fill:#B78456;" width="22.261" height="445.221"/>
<path style="fill:#F72E12;" d="M114.335,397.674l19.677-59.029l59.029-19.677c21.734,21.734,21.734,56.971,0,78.706
	C171.307,419.409,136.069,419.408,114.335,397.674z"/>
<g>
	<path style="fill:#F8513A;" d="M114.335,318.97c21.734-21.734,56.972-21.734,78.706,0l-78.706,78.706
		C92.602,375.941,92.602,340.703,114.335,318.97z"/>
	<path style="fill:#F8513A;" d="M130.076,381.933l11.806-35.418L177.3,334.71c13.041,13.041,13.041,34.183,0,47.223
		C164.26,394.972,143.117,394.974,130.076,381.933z"/>
</g>
<path style="fill:#FA7461;" d="M130.076,334.711c13.041-13.041,34.183-13.041,47.223,0l-47.223,47.223
	C117.036,368.893,117.036,347.75,130.076,334.711z"/>
<polygon style="fill:#FFE376;" points="437.028,153.688 405.545,185.17 366.193,145.817 362.257,110.4 397.674,114.335 "/>
<rect x="339.997" y="82.584" transform="matrix(-0.7071 0.7071 -0.7071 -0.7071 696.4846 -67.6732)" style="fill:#FFFFFF;" width="44.522" height="55.653"/>
<path style="fill:#365F2C;" d="M350.452,161.558l-92.085,49.585l-49.585,92.085c39.121,39.121,102.549,39.121,141.67,0
	S389.572,200.679,350.452,161.558z"/>
<path style="fill:#63842C;" d="M208.782,161.558c-39.121,39.121-39.121,102.549,0,141.67l141.67-141.67
	C311.331,122.437,247.903,122.437,208.782,161.558z"/>
<path style="fill:#FFF3AD;" d="M334.711,177.299l-71.622,38.565l-38.565,71.622c30.428,30.428,79.76,30.428,110.188,0
	C365.137,257.06,365.137,207.727,334.711,177.299z"/>
<path style="fill:#FFFFFF;" d="M224.523,177.299c-30.428,30.428-30.428,79.76,0,110.188l110.188-110.188
	C304.283,146.872,254.95,146.872,224.523,177.299z"/>
<g>
	
		<rect x="296.027" y="193.713" transform="matrix(-0.7071 -0.7071 0.7071 -0.7071 379.5041 566.8837)" style="fill:#FFE65A;" width="22.261" height="22.261"/>
	
		<rect x="250.827" y="186.372" transform="matrix(-0.891 0.454 -0.454 -0.891 585.0275 254.5486)" style="fill:#FFE65A;" width="22.261" height="22.261"/>
	
		<rect x="229.884" y="227.109" transform="matrix(0.1564 0.9877 -0.9877 0.1564 438.6274 -37.0695)" style="fill:#FFE65A;" width="22.261" height="22.261"/>
	
		<rect x="262.129" y="259.616" transform="matrix(0.9877 0.1564 -0.1564 0.9877 45.7072 -39.4058)" style="fill:#FFE65A;" width="22.261" height="22.261"/>
	
		<rect x="303.027" y="238.966" transform="matrix(0.454 -0.891 0.891 0.454 -51.3069 416.4672)" style="fill:#FFE65A;" width="22.261" height="22.261"/>
</g>
<g>
</g>
<g>
</g>
<g>
</g>
<g>
</g>
<g>
</g>
<g>
</g>
<g>
</g>
<g>
</g>
<g>
</g>
<g>
</g>
<g>
</g>
<g>
</g>
<g>
</g>
<g>
</g>
<g>
</g>
</svg>
