<?xml version="1.0" encoding="iso-8859-1"?>
<!-- Generator: Adobe Illustrator 19.0.0, SVG Export Plug-In . SVG Version: 6.00 Build 0)  -->
<svg version="1.1" id="Layer_1" xmlns="http://www.w3.org/2000/svg" xmlns:xlink="http://www.w3.org/1999/xlink" x="0px" y="0px"
	 viewBox="0 0 512.001 512.001" style="enable-background:new 0 0 512.001 512.001;" xml:space="preserve">
<path style="fill:#B78456;" d="M509.024,216.85C490.178,94.049,384.074,0,256.001,0c-141.384,0-256,114.616-256,256
	c0,134.142,103.178,244.171,234.499,255.093L509.024,216.85z"/>
<path style="fill:#A56840;" d="M512.001,256c0-13.312-1.018-26.386-2.977-39.15l-47.11-47.111l-7.298,5.742l-21.483-21.483
	l-57.15,57.15L212.536,47.704l-68.955,372.47l90.92,90.92c7.09,0.59,14.258,0.906,21.501,0.907
	C397.385,512,512.001,397.384,512.001,256z"/>
<rect x="174.537" y="63.443" style="fill:#813115;" width="33.391" height="300.522"/>
<polygon style="fill:#692811;" points="196.797,63.443 196.797,154.713 196.797,363.965 219.058,363.965 219.058,63.443 "/>
<path style="fill:#220D06;" d="M196.797,41.183l-11.13,22.261l11.13,22.261c12.295,0,22.261-9.966,22.261-22.261
	S209.09,41.183,196.797,41.183z"/>
<path style="fill:#521F0E;" d="M174.536,63.443c0,12.295,9.966,22.261,22.261,22.261V41.183
	C184.502,41.183,174.536,51.15,174.536,63.443z"/>
<path style="fill:#C9A06C;" d="M417.392,147.478c-6.36,0-12.082,2.681-16.139,6.959c-4.057-4.277-9.779-6.959-16.139-6.959
	s-12.082,2.681-16.139,6.959c-4.057-4.277-9.779-6.959-16.139-6.959s-12.082,2.681-16.139,6.959
	c-4.057-4.277-9.779-6.959-16.139-6.959s-12.082,2.681-16.139,6.959c-4.057-4.277-9.779-6.959-16.139-6.959
	s-12.082,2.681-16.139,6.959c-4.057-4.277-9.779-6.959-16.139-6.959L233.74,192h183.652c12.295,0,22.261-9.966,22.261-22.261
	C439.653,157.444,429.687,147.478,417.392,147.478z"/>
<path style="fill:#DBBC82;" d="M256.001,147.478c-6.36,0-12.082,2.681-16.139,6.959c-4.057-4.277-9.779-6.959-16.139-6.959
	s-12.082,2.681-16.139,6.959c-4.057-4.277-9.779-6.959-16.139-6.959s-12.082,2.681-16.139,6.959
	c-4.057-4.277-9.779-6.959-16.139-6.959s-12.082,2.681-16.139,6.959c-4.057-4.277-9.779-6.959-16.139-6.959
	s-12.082,2.681-16.139,6.959c-4.057-4.277-9.779-6.959-16.139-6.959c-12.295,0-22.261,9.966-22.261,22.261
	c0,12.295,9.966,22.261,22.261,22.261h161.391V147.478z"/>
<path style="fill:#FFF3AD;" d="M439.653,169.739L222.609,381.217l33.391,38.957h112.414v-38.945
	c56.29-36.752,93.499-100.293,93.499-172.533v-38.957H439.653z"/>
<path style="fill:#FFFFFF;" d="M72.348,169.739H50.088v38.957c0,72.238,37.206,135.777,93.492,172.528v38.95h112.421v-38.957
	L72.348,169.739z"/>
<path style="fill:#FFE376;" d="M233.044,185.739l22.957,206.609c101.428,0,183.652-82.224,183.652-183.652L233.044,185.739z"/>
<path style="fill:#FFF3AD;" d="M72.348,208.696c0,101.428,82.224,183.652,183.652,183.652V185.739L72.348,208.696z"/>
<path style="fill:#DBBC82;" d="M256.001,169.739l-22.957,21.739l22.957,17.218c45.909,0.002,45.911,22.261,91.823,22.261
	c45.914,0,45.914-22.261,91.829-22.261v-38.957H256.001z"/>
<path style="fill:#FFE376;" d="M72.348,169.739v38.957c45.911,0,45.911,22.261,91.822,22.261c45.912,0,45.917-22.261,91.831-22.261
	v-38.957H72.348z"/>
<g>
	<rect x="118.729" y="255.076" style="fill:#FFFFFF;" width="22.261" height="22.261"/>
	<rect x="152.12" y="288.467" style="fill:#FFFFFF;" width="22.261" height="22.261"/>
</g>
<g>
	<rect x="347.515" y="289.391" style="fill:#FFF3AD;" width="22.261" height="22.261"/>
	<rect x="314.124" y="322.783" style="fill:#FFF3AD;" width="22.261" height="22.261"/>
	<rect x="278.261" y="256" style="fill:#FFF3AD;" width="22.261" height="22.261"/>
</g>
<g>
</g>
<g>
</g>
<g>
</g>
<g>
</g>
<g>
</g>
<g>
</g>
<g>
</g>
<g>
</g>
<g>
</g>
<g>
</g>
<g>
</g>
<g>
</g>
<g>
</g>
<g>
</g>
<g>
</g>
</svg>
