<?xml version="1.0" encoding="iso-8859-1"?>
<!-- Generator: Adobe Illustrator 19.0.0, SVG Export Plug-In . SVG Version: 6.00 Build 0)  -->
<svg version="1.1" id="Layer_1" xmlns="http://www.w3.org/2000/svg" xmlns:xlink="http://www.w3.org/1999/xlink" x="0px" y="0px"
	 viewBox="0 0 512 512" style="enable-background:new 0 0 512 512;" xml:space="preserve">
<path style="fill:#FA690E;" d="M502.865,188.049C473.095,79.648,373.856,0,256,0C114.615,0,0,114.615,0,256
	c0,117.856,79.648,217.094,188.049,246.865L502.865,188.049z"/>
<path style="fill:#D92444;" d="M512,256c0-23.529-3.191-46.309-9.135-67.951l-89.458-89.458L98.592,413.408l89.458,89.458
	c21.641,5.944,44.422,9.135,67.951,9.135C397.385,512,512,397.384,512,256z"/>
<path style="fill:#FFF3AD;" d="M256,33.391L144.696,256L256,478.609c122.943,0,222.609-99.665,222.609-222.609
	S378.943,33.391,256,33.391z"/>
<path style="fill:#FFFFFF;" d="M33.391,256c0,122.943,99.665,222.609,222.609,222.609V33.391
	C133.057,33.391,33.391,133.057,33.391,256z"/>
<path style="fill:#FFD23E;" d="M256,66.783L161.391,256L256,445.217c104.501,0,189.217-84.715,189.217-189.217
	S360.501,66.783,256,66.783z"/>
<path style="fill:#FFE376;" d="M66.783,256c0,104.503,84.716,189.217,189.217,189.217V66.783
	C151.499,66.783,66.783,151.497,66.783,256z"/>
<path style="fill:#F94C10;" d="M256,89.043l-53.426,200.348L256,422.957c36.883,0,66.783-29.902,66.783-66.783V155.826
	C322.783,118.945,292.883,89.043,256,89.043z"/>
<path style="fill:#FA690E;" d="M189.217,155.826v200.348c0,36.881,29.9,66.783,66.783,66.783V89.043
	C219.117,89.043,189.217,118.945,189.217,155.826z"/>
<rect x="333.913" y="233.739" style="fill:#FFF3AD;" width="50.087" height="44.522"/>
<rect x="128" y="233.739" style="fill:#FFFFFF;" width="50.087" height="44.522"/>
<path style="fill:#692811;" d="M333.913,211.478l-100.174-22.261v133.565l100.174-22.261c12.243,0,22.261-10.017,22.261-22.261
	v-44.522C356.174,221.496,346.156,211.478,333.913,211.478z"/>
<path style="fill:#813115;" d="M178.087,211.478c-12.243,0-22.261,10.017-22.261,22.261v44.522
	c0,12.243,10.017,22.261,22.261,22.261L256,322.783V189.217L178.087,211.478z"/>
<g>
	<rect x="200.348" y="222.609" style="fill:#692811;" width="33.391" height="22.261"/>
	<rect x="178.087" y="256" style="fill:#692811;" width="22.261" height="22.261"/>
</g>
<rect x="304.974" y="233.739" style="fill:#521F0E;" width="22.261" height="22.261"/>
<rect x="333.913" y="322.783" style="fill:#FFF3AD;" width="50.087" height="44.522"/>
<rect x="128" y="322.783" style="fill:#FFFFFF;" width="50.087" height="44.522"/>
<path style="fill:#813115;" d="M333.913,300.522H256l33.391,89.043h44.522c12.243,0,22.261-10.017,22.261-22.261v-44.522
	C356.174,310.539,346.156,300.522,333.913,300.522z"/>
<path style="fill:#934D2B;" d="M178.087,300.522c-12.243,0-22.261,10.017-22.261,22.261v44.522
	c0,12.243,10.017,22.261,22.261,22.261h44.522L256,300.522H178.087z"/>
<rect x="178.087" y="322.783" style="fill:#813115;" width="22.261" height="22.261"/>
<rect x="333.913" y="144.696" style="fill:#FFF3AD;" width="50.087" height="44.522"/>
<rect x="128" y="144.696" style="fill:#FFFFFF;" width="50.087" height="44.522"/>
<path style="fill:#813115;" d="M333.913,122.435h-44.522L256,211.478h77.913c12.243,0,22.261-10.017,22.261-22.261v-44.522
	C356.174,132.452,346.156,122.435,333.913,122.435z"/>
<path style="fill:#934D2B;" d="M178.087,122.435c-12.243,0-22.261,10.017-22.261,22.261v44.522
	c0,12.243,10.017,22.261,22.261,22.261H256l-33.391-89.043H178.087z"/>
<g>
	<rect x="316.104" y="166.957" style="fill:#692811;" width="22.261" height="22.261"/>
	<rect x="178.087" y="144.696" style="fill:#692811;" width="22.261" height="22.261"/>
</g>
<polygon style="fill:#D92444;" points="247.096,322.783 289.391,300.522 289.391,211.478 247.096,189.217 "/>
<g>
	<polygon style="fill:#F72E12;" points="222.609,300.522 256,322.783 256,189.217 222.609,211.478 	"/>
	<polygon style="fill:#F72E12;" points="256,211.478 289.391,211.478 289.391,122.435 256,122.435 238.191,166.957 	"/>
</g>
<rect x="222.609" y="122.435" style="fill:#F94C10;" width="33.391" height="89.043"/>
<polygon style="fill:#F72E12;" points="256,389.565 289.391,389.565 289.391,300.522 256,300.522 238.191,345.043 "/>
<rect x="222.609" y="300.522" style="fill:#F94C10;" width="33.391" height="89.043"/>
<g>
</g>
<g>
</g>
<g>
</g>
<g>
</g>
<g>
</g>
<g>
</g>
<g>
</g>
<g>
</g>
<g>
</g>
<g>
</g>
<g>
</g>
<g>
</g>
<g>
</g>
<g>
</g>
<g>
</g>
</svg>
