<?xml version="1.0" encoding="iso-8859-1"?>
<!-- Generator: Adobe Illustrator 19.0.0, SVG Export Plug-In . SVG Version: 6.00 Build 0)  -->
<svg version="1.1" id="Layer_1" xmlns="http://www.w3.org/2000/svg" xmlns:xlink="http://www.w3.org/1999/xlink" x="0px" y="0px"
	 viewBox="0 0 512 512" style="enable-background:new 0 0 512 512;" xml:space="preserve">
<path style="fill:#FA7461;" d="M505.617,198.975C479.696,85.04,377.783,0,256,0C114.616,0,0,114.616,0,256
	c0,113.386,73.722,209.539,175.842,243.182L505.617,198.975z"/>
<path style="fill:#F8513A;" d="M512,256c0-19.602-2.212-38.686-6.383-57.025l-82.662-82.662l-50.34,36l-93.003-93.003
	l-23.609,23.611V356.73L55.651,378.991l120.192,120.192C201.059,507.49,228.001,512,256,512C397.384,512,512,397.384,512,256z"/>
<rect x="233.739" y="127.443" style="fill:#FFD23E;" width="178.087" height="131.339"/>
<polygon style="fill:#FFE376;" points="89.043,127.442 89.043,236.521 256,258.781 256,127.442 "/>
<polygon style="fill:#FFC207;" points="233.737,258.781 233.737,378.99 411.824,359.698 411.824,258.781 "/>
<polygon style="fill:#FFD23E;" points="89.043,281.042 89.043,356.729 256,378.99 256,258.781 "/>
<polygon style="fill:#F8513A;" points="411.824,236.521 256,236.521 233.739,258.781 256,281.042 411.824,281.042 "/>
<rect x="89.043" y="236.522" style="fill:#FC870B;" width="166.957" height="44.522"/>
<g>
	<rect x="111.304" y="312.209" style="fill:#FFC207;" width="22.261" height="22.261"/>
	<rect x="211.478" y="303.304" style="fill:#FFC207;" width="22.261" height="22.261"/>
</g>
<rect x="155.826" y="192" style="fill:#FFD23E;" width="22.261" height="22.261"/>
<rect x="333.913" y="180.87" style="fill:#FFC207;" width="22.261" height="22.261"/>
<path style="fill:#D92444;" d="M256.003,49.529l-11.13,33.391l11.13,33.391c18.442,0,33.391-14.95,33.391-33.391
	S274.444,49.529,256.003,49.529z"/>
<path style="fill:#F72E12;" d="M222.612,82.921c0,18.441,14.949,33.391,33.391,33.391V49.529
	C237.561,49.529,222.612,64.48,222.612,82.921z"/>
<path style="fill:#692811;" d="M445.221,356.729c0-12.295-9.966-22.261-22.261-22.261c-0.002,0-0.002-218.156-0.002-218.156H256
	l-22.261,30.96H256c5.175-1.852,11.409-3.134,20.039-3.134c31.164,0,31.164,16.696,62.328,16.696s31.164-16.696,62.328-16.696
	V367.86L445.221,356.729z"/>
<polygon style="fill:#FFE376;" points="422.957,378.99 400.696,417.947 256,417.947 234.296,373.425 "/>
<g>
	<polygon style="fill:#FFF3AD;" points="111.304,417.947 256,417.947 256,367.86 89.043,378.99 	"/>
	<polygon style="fill:#FFF3AD;" points="456.348,356.729 456.348,378.99 256,378.99 245.009,367.86 256,356.729 	"/>
</g>
<rect x="55.652" y="356.73" style="fill:#FFFFFF;" width="200.348" height="22.261"/>
<path style="fill:#813115;" d="M89.043,116.312c-12.295,0-22.261,9.966-22.261,22.261c0,12.295,9.966,22.261,22.261,22.261
	c31.166,0,31.166-16.696,62.333-16.696s31.166,16.696,62.333,16.696c22.535,0,28.78-8.727,42.29-13.561v-30.96L89.043,116.312
	L89.043,116.312z"/>
<g>
</g>
<g>
</g>
<g>
</g>
<g>
</g>
<g>
</g>
<g>
</g>
<g>
</g>
<g>
</g>
<g>
</g>
<g>
</g>
<g>
</g>
<g>
</g>
<g>
</g>
<g>
</g>
<g>
</g>
</svg>
