<?xml version="1.0" encoding="iso-8859-1"?>
<!-- Generator: Adobe Illustrator 19.0.0, SVG Export Plug-In . SVG Version: 6.00 Build 0)  -->
<svg version="1.1" id="Layer_1" xmlns="http://www.w3.org/2000/svg" xmlns:xlink="http://www.w3.org/1999/xlink" x="0px" y="0px"
	 viewBox="0 0 512 512" style="enable-background:new 0 0 512 512;" xml:space="preserve">
<path style="fill:#FFF3AD;" d="M511.439,239.235C502.803,105.668,391.75,0,256,0C114.616,0,0,114.616,0,256
	c0,122.11,85.5,224.236,199.895,249.816L511.439,239.235z"/>
<path style="fill:#FFE65A;" d="M512,256c0-5.634-0.203-11.221-0.561-16.765L397.675,125.471L75.229,381.151l124.665,124.665
	C217.952,509.855,236.725,512,256,512C397.384,512,512,397.384,512,256z"/>
<path style="fill:#F94C10;" d="M456.348,267.13c0-110.649-89.699-200.348-200.348-200.348l-33.391,267.13h233.739V267.13z"/>
<path style="fill:#FA690E;" d="M55.652,267.13v66.783H256V66.783C145.351,66.783,55.652,156.482,55.652,267.13z"/>
<path style="fill:#BEC130;" d="M421.39,240.935c5.463-8.204,7.264-18.734,3.98-28.836c-3.282-10.103-10.928-17.562-20.171-20.99
	l-73.179-73.178c-3.427-9.243-10.887-16.888-20.99-20.171c-10.103-3.282-20.631-1.481-28.837,3.98
	C276.079,94.01,266.623,89.043,256,89.043l-44.522,211.478h189.217c18.442,0,33.391-14.95,33.391-33.391
	C434.087,256.508,429.121,247.051,421.39,240.935z"/>
<path style="fill:#DDD532;" d="M106.8,191.108c-9.242,3.428-16.888,10.887-20.171,20.99c-3.282,10.102-1.481,20.631,3.98,28.836
	c-7.73,6.117-12.696,15.574-12.696,26.197c0,18.441,14.95,33.391,33.391,33.391H256V89.043c-10.623,0-20.079,4.966-26.195,12.696
	c-8.205-5.462-18.734-7.263-28.837-3.98c-10.103,3.282-17.563,10.928-20.99,20.171L106.8,191.108z"/>
<path style="fill:#A0AD2F;" d="M400.076,162.453c-6.244-8.594-15.821-13.325-25.67-13.729c-0.404-9.849-5.136-19.425-13.729-25.669
	c-14.919-10.84-35.801-7.533-46.641,7.387s-7.532,35.801,7.387,46.641l24.624,24.624c10.84,14.919,31.722,18.227,46.641,7.387
	C407.608,198.255,410.914,177.372,400.076,162.453z"/>
<path style="fill:#BEC130;" d="M197.964,130.442c-10.84-14.919-31.722-18.227-46.641-7.387c-8.594,6.243-13.325,15.82-13.729,25.669
	c-9.849,0.404-19.426,5.136-25.67,13.729c-10.84,14.919-7.532,35.802,7.387,46.641c14.919,10.84,35.801,7.533,46.641-7.387
	l24.624-24.624C205.497,166.243,208.804,145.362,197.964,130.442z"/>
<path style="fill:#FC870B;" d="M256,133.565L211.478,267.13L256,400.696h133.565c36.883,0,66.783-29.9,66.783-66.783
	C456.348,223.264,366.649,133.565,256,133.565z"/>
<path style="fill:#FDA409;" d="M55.652,333.913c0,36.883,29.9,66.783,66.783,66.783H256v-267.13
	C145.351,133.565,55.652,223.264,55.652,333.913z"/>
<g>
	<rect x="378.435" y="322.783" style="fill:#FA690E;" width="22.261" height="22.261"/>
	<rect x="300.522" y="222.609" style="fill:#FA690E;" width="22.261" height="22.261"/>
	<rect x="333.913" y="189.217" style="fill:#FA690E;" width="22.261" height="22.261"/>
</g>
<g>
	<rect x="111.304" y="356.174" style="fill:#FC870B;" width="22.261" height="22.261"/>
	<rect x="77.913" y="322.783" style="fill:#FC870B;" width="22.261" height="22.261"/>
	<rect x="211.478" y="289.391" style="fill:#FC870B;" width="22.261" height="22.261"/>
</g>
<g>
</g>
<g>
</g>
<g>
</g>
<g>
</g>
<g>
</g>
<g>
</g>
<g>
</g>
<g>
</g>
<g>
</g>
<g>
</g>
<g>
</g>
<g>
</g>
<g>
</g>
<g>
</g>
<g>
</g>
</svg>
