<?xml version="1.0" encoding="iso-8859-1"?>
<!-- Generator: Adobe Illustrator 19.0.0, SVG Export Plug-In . SVG Version: 6.00 Build 0)  -->
<svg version="1.1" id="Layer_1" xmlns="http://www.w3.org/2000/svg" xmlns:xlink="http://www.w3.org/1999/xlink" x="0px" y="0px"
	 viewBox="0 0 512 512" style="enable-background:new 0 0 512 512;" xml:space="preserve">
<path style="fill:#FCB9B0;" d="M502.865,188.049C473.095,79.648,373.856,0,256,0C114.615,0,0,114.615,0,256
	c0,117.856,79.648,217.094,188.049,246.865L502.865,188.049z"/>
<path style="fill:#FB9789;" d="M512,256c0-23.529-3.191-46.309-9.135-67.951l-89.458-89.458L98.592,413.408l89.458,89.458
	c21.641,5.944,44.422,9.135,67.951,9.135C397.385,512,512,397.384,512,256z"/>
<path style="fill:#FFF3AD;" d="M256,33.391L144.696,256L256,478.609c122.943,0,222.609-99.665,222.609-222.609
	S378.943,33.391,256,33.391z"/>
<path style="fill:#FFFFFF;" d="M33.391,256c0,122.943,99.665,222.609,222.609,222.609V33.391
	C133.057,33.391,33.391,133.057,33.391,256z"/>
<path style="fill:#FFD23E;" d="M256,66.783L161.391,256L256,445.217c104.501,0,189.217-84.715,189.217-189.217
	S360.501,66.783,256,66.783z"/>
<path style="fill:#FFE376;" d="M66.783,256c0,104.503,84.716,189.217,189.217,189.217V66.783
	C151.499,66.783,66.783,151.497,66.783,256z"/>
<path style="fill:#44702A;" d="M445.217,256l-252.29,25.229L256,66.783c26.843,0,50.42,13.99,63.854,35.069
	c24.397-5.399,50.963,1.362,69.947,20.348s25.746,45.551,20.348,69.947C431.228,205.592,445.217,229.157,445.217,256z"/>
<path style="fill:#365F2C;" d="M192.927,256h252.29c0,26.843-13.99,50.408-35.069,63.854c5.399,24.397-1.362,50.963-20.348,69.947
	c-18.985,18.984-45.551,25.746-69.947,20.348c-13.434,21.079-37.011,35.069-63.854,35.069L192.927,256z"/>
<path style="fill:#44702A;" d="M256,256v189.217c-26.843,0-50.42-13.99-63.854-35.069c-24.397,5.399-50.963-1.362-69.947-20.348
	c-18.984-18.985-25.746-45.551-20.348-69.947C80.772,306.408,66.783,282.843,66.783,256l94.609-37.843L256,256z"/>
<path style="fill:#63842C;" d="M256,66.783V256H66.783c0-26.843,13.99-50.408,35.069-63.854
	c-5.399-24.397,1.362-50.963,20.348-69.947s45.551-25.746,69.947-20.348C205.58,80.772,229.157,66.783,256,66.783z"/>
<path style="fill:#FB9789;" d="M362.25,212.713l-23.611-23.611l11.806-11.806l17.976-17.976l17.976,17.976
	c-1.55,8.649-5.659,16.929-12.34,23.611L362.25,212.713z"/>
<path style="fill:#FCB9B0;" d="M350.445,177.296l-7.87-7.87l7.87-23.611l23.611-7.87c10.704,10.704,14.812,25.5,12.34,39.352
	H350.445z"/>
<circle style="fill:#FEDCD7;" cx="350.442" cy="200.904" r="16.696"/>
<path style="fill:#FB9789;" d="M342.575,169.425l-7.87-7.87l-17.976-17.976l17.976-17.976c13.852-2.471,28.649,1.637,39.352,12.34
	L342.575,169.425z"/>
<polygon style="fill:#FA7461;" points="283.547,181.231 315.028,149.75 322.898,173.361 299.287,196.972 "/>
<polygon style="fill:#F8513A;" points="267.806,181.231 299.287,149.75 322.898,157.62 283.547,196.972 "/>
<path style="fill:#FCB9B0;" d="M322.898,173.361l-23.611-23.611l11.806-11.806c6.682-6.682,14.962-10.79,23.611-12.34v35.952
	L322.898,173.361z"/>
<path style="fill:#FB9789;" d="M300.522,150.261H267.13v-16.696v-25.422h25.422c5.02,7.213,7.969,15.972,7.969,25.422V150.261z"/>
<path style="fill:#FCB9B0;" d="M267.13,133.565H256l-11.13-22.261L256,89.043c15.137,0,28.505,7.558,36.552,19.1L267.13,133.565z"/>
<circle style="fill:#FEDCD7;" cx="283.826" cy="150.261" r="16.696"/>
<path style="fill:#FB9789;" d="M256,133.565h-11.13h-25.422v-25.422c8.047-11.542,21.415-19.1,36.552-19.1V133.565z"/>
<polygon style="fill:#FA7461;" points="222.609,183.652 222.609,139.13 244.87,150.261 244.87,183.652 "/>
<polygon style="fill:#F8513A;" points="211.478,194.783 211.478,150.261 233.739,139.13 233.739,194.783 "/>
<path style="fill:#FCB9B0;" d="M244.87,150.261h-33.391v-16.696c0-9.45,2.95-18.209,7.969-25.422l25.422,25.422V150.261z"/>
<path style="fill:#FB9789;" d="M212.713,149.75l-23.611,23.611l-11.806-11.806l-17.976-17.976l17.976-17.976
	c8.649,1.55,16.929,5.659,23.611,12.34L212.713,149.75z"/>
<path style="fill:#FCB9B0;" d="M177.296,161.555l-7.87,7.87l-23.611-7.87l-7.87-23.611c10.704-10.704,25.5-14.812,39.352-12.34
	V161.555z"/>
<circle style="fill:#FEDCD7;" cx="200.904" cy="161.558" r="16.696"/>
<path style="fill:#FB9789;" d="M169.425,169.425l-7.87,7.87l-17.976,17.976l-17.976-17.976c-2.471-13.852,1.637-28.649,12.34-39.352
	L169.425,169.425z"/>
<polygon style="fill:#FA7461;" points="181.231,228.453 149.75,196.972 173.361,189.102 196.972,212.713 "/>
<polygon style="fill:#F8513A;" points="181.231,244.194 149.75,212.713 157.62,189.102 196.972,228.453 "/>
<path style="fill:#FCB9B0;" d="M173.361,189.102l-23.611,23.611l-11.806-11.806c-6.682-6.682-10.79-14.962-12.34-23.611h35.952
	L173.361,189.102z"/>
<path style="fill:#FB9789;" d="M150.261,211.478v33.391h-16.696h-25.422v-25.422c7.213-5.02,15.972-7.969,25.422-7.969H150.261z"/>
<path style="fill:#FCB9B0;" d="M133.565,244.87V256l-22.261,11.13L89.043,256c0-15.137,7.558-28.505,19.1-36.552L133.565,244.87z"/>
<circle style="fill:#FEDCD7;" cx="150.261" cy="228.174" r="16.696"/>
<path style="fill:#FB9789;" d="M133.565,256v11.13v25.422h-25.422c-11.542-8.047-19.1-21.415-19.1-36.552H133.565z"/>
<polygon style="fill:#FA7461;" points="183.652,289.391 139.13,289.391 150.261,267.13 183.652,267.13 "/>
<polygon style="fill:#F8513A;" points="194.783,300.522 150.261,300.522 139.13,278.261 194.783,278.261 "/>
<path style="fill:#FCB9B0;" d="M150.261,267.13v33.391h-16.696c-9.45,0-18.209-2.95-25.422-7.969l25.422-25.422H150.261z"/>
<path style="fill:#FB9789;" d="M149.75,299.287l23.611,23.611l-11.806,11.806l-17.976,17.976l-17.976-17.976
	c1.55-8.649,5.659-16.929,12.34-23.611L149.75,299.287z"/>
<path style="fill:#FCB9B0;" d="M161.555,334.704l7.87,7.87l-7.87,23.611l-23.611,7.87c-10.704-10.704-14.812-25.5-12.34-39.352
	L161.555,334.704L161.555,334.704z"/>
<circle style="fill:#FEDCD7;" cx="161.558" cy="311.096" r="16.696"/>
<path style="fill:#FB9789;" d="M169.425,342.575l7.87,7.87l17.976,17.976l-17.976,17.976c-13.852,2.471-28.649-1.637-39.352-12.34
	L169.425,342.575z"/>
<polygon style="fill:#FA7461;" points="228.453,330.769 196.972,362.25 189.102,338.639 212.713,315.028 "/>
<polygon style="fill:#F8513A;" points="244.194,330.769 212.713,362.25 189.102,354.38 228.453,315.028 "/>
<path style="fill:#FCB9B0;" d="M189.102,338.639l23.611,23.611l-11.806,11.806c-6.682,6.682-14.962,10.79-23.611,12.34v-35.952
	L189.102,338.639z"/>
<path style="fill:#FB9789;" d="M211.478,361.739h33.391v16.696v25.422h-25.422c-5.02-7.213-7.969-15.972-7.969-25.422V361.739z"/>
<path style="fill:#FCB9B0;" d="M244.87,378.435H256l11.13,22.261L256,422.957c-15.137,0-28.505-7.558-36.552-19.1L244.87,378.435z"
	/>
<circle style="fill:#FEDCD7;" cx="228.174" cy="361.739" r="16.696"/>
<path style="fill:#FB9789;" d="M256,378.435h11.13h25.422v25.422c-8.047,11.542-21.415,19.1-36.552,19.1V378.435z"/>
<polygon style="fill:#FA7461;" points="289.391,328.348 289.391,372.87 267.13,361.739 267.13,328.348 "/>
<polygon style="fill:#F8513A;" points="300.522,317.217 300.522,361.739 278.261,372.87 278.261,317.217 "/>
<path style="fill:#FCB9B0;" d="M267.13,361.739h33.391v16.696c0,9.45-2.95,18.209-7.969,25.422l-25.422-25.422V361.739z"/>
<path style="fill:#FB9789;" d="M299.287,362.25l23.611-23.611l11.806,11.806l17.976,17.976l-17.976,17.976
	c-8.649-1.55-16.929-5.659-23.611-12.34L299.287,362.25z"/>
<path style="fill:#FCB9B0;" d="M334.704,350.445l7.87-7.87l23.611,7.87l7.87,23.611c-10.704,10.704-25.5,14.812-39.352,12.34
	L334.704,350.445L334.704,350.445z"/>
<circle style="fill:#FEDCD7;" cx="311.096" cy="350.442" r="16.696"/>
<path style="fill:#FB9789;" d="M342.575,342.575l7.87-7.87l17.976-17.976l17.976,17.976c2.471,13.852-1.637,28.649-12.34,39.352
	L342.575,342.575z"/>
<polygon style="fill:#FA7461;" points="330.769,283.547 362.25,315.028 338.639,322.898 315.028,299.287 "/>
<polygon style="fill:#F8513A;" points="330.769,267.806 362.25,299.287 354.38,322.898 315.028,283.547 "/>
<path style="fill:#FCB9B0;" d="M338.639,322.898l23.611-23.611l11.806,11.806c6.682,6.682,10.79,14.962,12.34,23.611h-35.952
	L338.639,322.898z"/>
<path style="fill:#FB9789;" d="M361.739,300.522V267.13h16.696h25.422v25.422c-7.213,5.02-15.972,7.969-25.422,7.969H361.739z"/>
<path style="fill:#FCB9B0;" d="M378.435,267.13V256l22.261-11.13L422.957,256c0,15.137-7.558,28.505-19.1,36.552L378.435,267.13z"/>
<circle style="fill:#FEDCD7;" cx="361.739" cy="283.826" r="16.696"/>
<path style="fill:#FB9789;" d="M378.435,256v-11.13v-25.422h25.422c11.542,8.047,19.1,21.415,19.1,36.552H378.435z"/>
<polygon style="fill:#FA7461;" points="328.348,222.609 372.87,222.609 361.739,244.87 328.348,244.87 "/>
<polygon style="fill:#F8513A;" points="317.217,211.478 361.739,211.478 372.87,233.739 317.217,233.739 "/>
<path style="fill:#FCB9B0;" d="M361.739,244.87v-33.391h16.696c9.45,0,18.209,2.95,25.422,7.969l-25.422,25.422H361.739z"/>
<path style="fill:#FFF3AD;" d="M256,191.443c35.649,0,64.557,28.908,64.557,64.557S291.649,320.557,256,320.557L230.177,256
	L256,191.443z"/>
<path style="fill:#FFFFFF;" d="M256,191.443v129.113c-35.649,0-64.557-28.908-64.557-64.557S220.351,191.443,256,191.443z"/>
<path style="fill:#F72E12;" d="M256,213.704c23.356,0,42.296,18.94,42.296,42.296s-18.94,42.296-42.296,42.296L239.082,256
	L256,213.704z"/>
<path style="fill:#F8513A;" d="M256,213.704v84.591c-23.356,0-42.296-18.94-42.296-42.296S232.644,213.704,256,213.704z"/>
<g>
</g>
<g>
</g>
<g>
</g>
<g>
</g>
<g>
</g>
<g>
</g>
<g>
</g>
<g>
</g>
<g>
</g>
<g>
</g>
<g>
</g>
<g>
</g>
<g>
</g>
<g>
</g>
<g>
</g>
</svg>
