<?xml version="1.0" encoding="iso-8859-1"?>
<!-- Generator: Adobe Illustrator 19.0.0, SVG Export Plug-In . SVG Version: 6.00 Build 0)  -->
<svg version="1.1" id="Layer_1" xmlns="http://www.w3.org/2000/svg" xmlns:xlink="http://www.w3.org/1999/xlink" x="0px" y="0px"
	 viewBox="0 0 512 512" style="enable-background:new 0 0 512 512;" xml:space="preserve">
<path style="fill:#934D2B;" d="M511.954,259.616c0.017-1.205,0.046-2.408,0.046-3.616C512,114.616,397.384,0,256,0
	C114.615,0,0,114.615,0,256c0,134.56,103.818,244.865,235.724,255.202L511.954,259.616z"/>
<path style="fill:#692811;" d="M511.954,259.616L390.058,137.721L33.391,308.87l202.332,202.332
	C242.414,511.726,249.175,512,256,512C396.176,512,510.017,399.332,511.954,259.616z"/>
<path style="fill:#FDA409;" d="M449.76,276.454c3.677-2.135,5.964-6.284,5.491-10.788c-0.473-4.502-3.572-8.086-7.613-9.411
	c3.434-2.508,5.274-6.874,4.333-11.302c-0.942-4.429-4.398-7.669-8.555-8.563c3.153-2.853,4.527-7.387,3.128-11.694
	c-1.399-4.306-5.176-7.167-9.403-7.622c2.837-3.167,3.73-7.82,1.888-11.956c-1.841-4.136-5.896-6.587-10.149-6.597
	c2.491-3.446,2.892-8.168,0.628-12.088c-2.264-3.92-6.552-5.935-10.782-5.501c2.117-3.688,2.022-8.425-0.639-12.088
	c-2.661-3.663-7.137-5.217-11.298-4.343c1.72-3.889,1.131-8.59-1.899-11.954c-3.03-3.365-7.643-4.442-11.69-3.138
	c1.304-4.047,0.226-8.661-3.138-11.69c-3.365-3.03-8.065-3.618-11.954-1.899c0.874-4.162-0.68-8.637-4.343-11.299
	s-8.4-2.756-12.088-0.639c0.434-4.23-1.579-8.519-5.501-10.782c-3.921-2.264-8.642-1.863-12.088,0.628
	c-0.01-4.252-2.461-8.307-6.597-10.149c-4.136-1.842-8.79-0.949-11.956,1.888c-0.455-4.227-3.316-8.004-7.622-9.403
	c-4.306-1.399-8.841-0.026-11.694,3.128c-0.894-4.157-4.135-7.614-8.563-8.555c-4.428-0.941-8.794,0.898-11.302,4.333
	c-1.323-4.041-4.907-7.14-9.411-7.613c-4.502-0.473-8.653,1.813-10.788,5.491c-1.739-3.88-5.628-6.588-10.154-6.588L211.479,297.74
	h233.739c6.147,0,11.13-4.983,11.13-11.13C456.348,282.081,453.641,278.193,449.76,276.454z"/>
<path style="fill:#F94C10;" d="M400.696,253.217L384,286.609L400.696,320c18.441,0,33.391-14.949,33.391-33.391
	S419.137,253.217,400.696,253.217z"/>
<path style="fill:#FA690E;" d="M367.304,286.609c0,18.442,14.95,33.391,33.391,33.391v-66.783
	C382.255,253.217,367.304,268.167,367.304,286.609z"/>
<path style="fill:#FFC207;" d="M245.846,92.849c-2.135-3.677-6.285-5.964-10.788-5.491c-4.502,0.473-8.086,3.572-9.411,7.613
	c-2.508-3.434-6.874-5.275-11.302-4.333c-4.428,0.942-7.669,4.398-8.563,8.555c-2.853-3.153-7.387-4.527-11.694-3.128
	s-7.167,5.176-7.622,9.403c-3.167-2.837-7.82-3.73-11.956-1.888s-6.587,5.897-6.597,10.149c-3.446-2.491-8.168-2.892-12.088-0.628
	c-3.921,2.264-5.935,6.552-5.501,10.782c-3.688-2.117-8.425-2.022-12.088,0.639s-5.217,7.137-4.343,11.299
	c-3.889-1.72-8.589-1.131-11.954,1.899c-3.365,3.03-4.442,7.643-3.138,11.69c-4.047-1.304-8.661-0.226-11.69,3.138
	c-3.03,3.365-3.62,8.066-1.899,11.954c-4.162-0.874-8.637,0.68-11.299,4.343s-2.756,8.4-0.639,12.088
	c-4.23-0.434-8.519,1.579-10.782,5.501c-2.263,3.921-1.863,8.642,0.628,12.088c-4.252,0.01-8.307,2.461-10.149,6.597
	c-1.841,4.136-0.949,8.79,1.888,11.956c-4.227,0.454-8.004,3.316-9.403,7.622c-1.399,4.306-0.026,8.841,3.128,11.694
	c-4.157,0.894-7.614,4.135-8.555,8.563c-0.942,4.429,0.898,8.794,4.333,11.302c-4.04,1.323-7.14,4.907-7.613,9.411
	c-0.473,4.502,1.813,8.653,5.491,10.788c-3.882,1.74-6.589,5.628-6.589,10.155c0,6.147,4.983,11.13,11.13,11.13H256V86.261
	C251.472,86.261,247.584,88.969,245.846,92.849z"/>
<path style="fill:#FA690E;" d="M111.304,253.217l-16.696,33.391L111.304,320c18.441,0,33.391-14.949,33.391-33.391
	S129.745,253.217,111.304,253.217z"/>
<path style="fill:#FC870B;" d="M77.913,286.609c0,18.442,14.95,33.391,33.391,33.391v-66.783
	C92.863,253.217,77.913,268.167,77.913,286.609z"/>
<path style="fill:#63842C;" d="M200.348,230.957l-27.826,55.652l27.826,55.652c30.736,0,55.652-24.917,55.652-55.652
	S231.083,230.957,200.348,230.957z"/>
<path style="fill:#81982D;" d="M144.696,286.609c0,30.736,24.917,55.652,55.652,55.652V230.957
	C169.612,230.957,144.696,255.873,144.696,286.609z"/>
<path style="fill:#55C7A6;" d="M200.348,253.217l-16.696,33.391L200.348,320c18.441,0,33.391-14.949,33.391-33.391
	S218.789,253.217,200.348,253.217z"/>
<path style="fill:#D6EED8;" d="M166.957,286.609c0,18.442,14.95,33.391,33.391,33.391v-66.783
	C181.907,253.217,166.957,268.167,166.957,286.609z"/>
<polygon style="fill:#FFE376;" points="445.217,308.87 422.957,347.826 256,347.826 234.296,303.304 "/>
<g>
	<polygon style="fill:#FFF3AD;" points="89.043,347.826 256,347.826 256,297.739 66.783,308.87 	"/>
	<polygon style="fill:#FFF3AD;" points="256,286.609 245.009,297.739 256,308.87 478.609,308.87 478.609,286.609 	"/>
</g>
<rect x="33.391" y="286.609" style="fill:#FFFFFF;" width="222.609" height="22.261"/>
<path style="fill:#44702A;" d="M333.854,144.08l-27.826,55.652l27.826,55.652c30.736,0,55.652-24.917,55.652-55.652
	S364.59,144.08,333.854,144.08z"/>
<path style="fill:#63842C;" d="M278.202,199.732c0,30.736,24.917,55.652,55.652,55.652V144.08
	C303.118,144.08,278.202,168.996,278.202,199.732z"/>
<path style="fill:#55C7A6;" d="M333.854,166.341l-16.696,33.391l16.696,33.391c18.441,0,33.391-14.949,33.391-33.391
	S352.295,166.341,333.854,166.341z"/>
<path style="fill:#D6EED8;" d="M300.463,199.732c0,18.442,14.95,33.391,33.391,33.391v-66.783
	C315.412,166.341,300.463,181.29,300.463,199.732z"/>
<path style="fill:#FFE376;" d="M222.609,169.739l-8.348,16.696l8.348,16.696c9.22,0,16.696-7.475,16.696-16.696
	C239.304,177.214,231.829,169.739,222.609,169.739z"/>
<path style="fill:#FFF3AD;" d="M205.913,186.435c0,9.22,7.475,16.696,16.696,16.696v-33.391
	C213.388,169.739,205.913,177.214,205.913,186.435z"/>
<path style="fill:#FFD23E;" d="M272.696,114.087l-8.348,16.696l8.348,16.696c9.22,0,16.696-7.475,16.696-16.696
	S281.916,114.087,272.696,114.087z"/>
<g>
	<path style="fill:#FFE376;" d="M256,130.783c0,9.22,7.475,16.696,16.696,16.696v-33.391C263.475,114.087,256,121.562,256,130.783z"
		/>
	<path style="fill:#FFE376;" d="M116.87,197.565l-8.348,16.696l8.348,16.696c9.22,0,16.696-7.475,16.696-16.696
		C133.565,205.04,126.09,197.565,116.87,197.565z"/>
</g>
<path style="fill:#FFF3AD;" d="M100.174,214.261c0,9.22,7.475,16.696,16.696,16.696v-33.391
	C107.649,197.565,100.174,205.04,100.174,214.261z"/>
<path style="fill:#FFE376;" d="M178.087,141.913l-8.348,16.696l8.348,16.696c9.22,0,16.696-7.475,16.696-16.696
	S187.307,141.913,178.087,141.913z"/>
<path style="fill:#FFF3AD;" d="M161.391,158.609c0,9.22,7.475,16.696,16.696,16.696v-33.391
	C168.867,141.913,161.391,149.388,161.391,158.609z"/>
<rect x="310.294" y="386.783" style="fill:#63842C;" width="72.041" height="22.261"/>
<path style="fill:#F94C10;" d="M129.338,397.913l111.304-11.13l111.304,11.13c0,15.371-12.455,27.826-27.826,27.826
	c-0.59,0-1.18-0.022-1.77-0.067l-177.375-11.119C136.25,414.008,129.338,406.773,129.338,397.913z"/>
<path style="fill:#FA690E;" d="M351.947,397.913H129.338c0-8.86,6.912-16.095,15.638-16.64l177.375-11.119
	c0.59-0.045,1.18-0.067,1.77-0.067C339.492,370.087,351.947,382.542,351.947,397.913z"/>
<g>
</g>
<g>
</g>
<g>
</g>
<g>
</g>
<g>
</g>
<g>
</g>
<g>
</g>
<g>
</g>
<g>
</g>
<g>
</g>
<g>
</g>
<g>
</g>
<g>
</g>
<g>
</g>
<g>
</g>
</svg>
