<?xml version="1.0" encoding="iso-8859-1"?>
<!-- Generator: Adobe Illustrator 19.0.0, SVG Export Plug-In . SVG Version: 6.00 Build 0)  -->
<svg version="1.1" id="Layer_1" xmlns="http://www.w3.org/2000/svg" xmlns:xlink="http://www.w3.org/1999/xlink" x="0px" y="0px"
	 viewBox="0 0 512 512" style="enable-background:new 0 0 512 512;" xml:space="preserve">
<path style="fill:#FFD23E;" d="M502.865,188.049C473.095,79.648,373.856,0,256,0C114.615,0,0,114.615,0,256
	c0,117.856,79.648,217.094,188.049,246.865L502.865,188.049z"/>
<path style="fill:#FDA409;" d="M512,256c0-23.529-3.191-46.309-9.135-67.951l-89.458-89.458L98.592,413.408l89.458,89.458
	c21.641,5.944,44.422,9.135,67.951,9.135C397.385,512,512,397.384,512,256z"/>
<path style="fill:#FFF3AD;" d="M256,33.391L144.696,256L256,478.609c122.943,0,222.609-99.665,222.609-222.609
	S378.943,33.391,256,33.391z"/>
<path style="fill:#FFFFFF;" d="M33.391,256c0,122.943,99.665,222.609,222.609,222.609V33.391
	C133.057,33.391,33.391,133.057,33.391,256z"/>
<path style="fill:#FFD23E;" d="M256,66.783L161.391,256L256,445.217c104.501,0,189.217-84.715,189.217-189.217
	S360.501,66.783,256,66.783z"/>
<path style="fill:#FFE376;" d="M66.783,256c0,104.503,84.716,189.217,189.217,189.217V66.783
	C151.499,66.783,66.783,151.497,66.783,256z"/>
<path style="fill:#FC870B;" d="M256,111.304L183.652,256L256,400.696c79.913,0,144.696-64.782,144.696-144.696
	S335.913,111.304,256,111.304z"/>
<path style="fill:#FDA409;" d="M111.304,256c0,79.913,64.782,144.696,144.696,144.696V111.304
	C176.087,111.304,111.304,176.087,111.304,256z"/>
<polygon style="fill:#FFF3AD;" points="311.652,200.348 333.913,256 311.652,311.652 233.739,333.913 233.739,178.087 "/>
<g>
	<rect x="244.87" y="233.739" style="fill:#FFE376;" width="33.391" height="22.261"/>
	<rect x="289.391" y="267.13" style="fill:#FFE376;" width="33.391" height="22.261"/>
</g>
<polygon style="fill:#FFFFFF;" points="200.348,200.348 178.087,256 200.348,311.652 256,333.913 256,178.087 "/>
<polygon style="fill:#FFE376;" points="311.652,89.043 311.652,155.826 300.522,166.957 311.652,178.087 311.652,200.348 
	256,200.348 228.174,144.696 256,89.043 "/>
<rect x="244.87" y="111.304" style="fill:#FFD23E;" width="33.391" height="22.261"/>
<g>
	<polygon style="fill:#FFF3AD;" points="200.348,89.043 200.348,144.696 211.478,155.826 200.348,166.957 200.348,200.348 
		256,200.348 256,89.043 	"/>
	<polygon style="fill:#FFF3AD;" points="422.957,200.348 422.957,311.652 367.304,311.652 339.478,256 367.304,200.348 	"/>
</g>
<rect x="356.174" y="267.13" style="fill:#FFD23E;" width="33.391" height="22.261"/>
<rect x="311.652" y="200.348" style="fill:#FFFFFF;" width="55.652" height="111.304"/>
<polygon style="fill:#FFE376;" points="256,311.652 228.174,367.304 256,422.957 311.652,422.957 311.652,311.652 "/>
<rect x="244.87" y="378.435" style="fill:#FFD23E;" width="33.391" height="22.261"/>
<g>
	<rect x="289.391" y="333.913" style="fill:#FFF3AD;" width="22.261" height="22.261"/>
	<rect x="200.348" y="311.652" style="fill:#FFF3AD;" width="55.652" height="111.304"/>
	<polygon style="fill:#FFF3AD;" points="144.696,200.348 116.87,256 144.696,311.652 200.348,311.652 200.348,200.348 	"/>
</g>
<rect x="133.565" y="222.609" style="fill:#FFD23E;" width="33.391" height="22.261"/>
<polygon style="fill:#FFFFFF;" points="89.043,200.348 89.043,267.13 100.174,278.261 89.043,289.391 89.043,311.652 
	144.696,311.652 144.696,200.348 "/>
<g>
	<rect x="89.043" y="267.13" style="fill:#FFF3AD;" width="22.261" height="22.261"/>
	<rect x="289.391" y="155.826" style="fill:#FFF3AD;" width="22.261" height="22.261"/>
</g>
<rect x="200.348" y="144.696" style="fill:#FFFFFF;" width="22.261" height="22.261"/>
<g>
</g>
<g>
</g>
<g>
</g>
<g>
</g>
<g>
</g>
<g>
</g>
<g>
</g>
<g>
</g>
<g>
</g>
<g>
</g>
<g>
</g>
<g>
</g>
<g>
</g>
<g>
</g>
<g>
</g>
</svg>
