<?xml version="1.0" encoding="iso-8859-1"?>
<!-- Generator: Adobe Illustrator 19.0.0, SVG Export Plug-In . SVG Version: 6.00 Build 0)  -->
<svg version="1.1" id="Layer_1" xmlns="http://www.w3.org/2000/svg" xmlns:xlink="http://www.w3.org/1999/xlink" x="0px" y="0px"
	 viewBox="0 0 512 512" style="enable-background:new 0 0 512 512;" xml:space="preserve">
<path style="fill:#FA7461;" d="M509.375,292.664C511.093,280.688,512,268.451,512,256C512,114.616,397.385,0,256,0S0,114.616,0,256
	c0,122.792,86.46,225.375,201.818,250.236L509.375,292.664z"/>
<path style="fill:#D92444;" d="M509.375,292.664l-69.319-69.319L147.478,451.896l54.34,54.34C219.285,510,237.408,512,256,512
	C384.934,512.001,491.588,416.677,509.375,292.664z"/>
<path style="fill:#FEDCD7;" d="M256,60.104l-22.261,97.948l71.235-48.974C304.974,82.03,283.048,60.104,256,60.104z"/>
<path style="fill:#FFFFFF;" d="M207.026,109.078c0,27.048,21.927,48.974,48.974,48.974V60.104
	C228.953,60.104,207.026,82.03,207.026,109.078z"/>
<path style="fill:#FCB9B0;" d="M304.974,109.078H256l-22.261,97.948h71.235c27.048,0,48.974-21.925,48.974-48.974
	C353.948,131.004,332.022,109.078,304.974,109.078z"/>
<g>
	<path style="fill:#FEDCD7;" d="M207.026,109.078c-27.047,0-48.974,21.926-48.974,48.974s21.927,48.974,48.974,48.974H256v-97.948
		H207.026z"/>
	<path style="fill:#FEDCD7;" d="M352.835,158.052H256L233.739,256h119.096c27.048,0,48.974-21.925,48.974-48.974
		C401.809,179.978,379.883,158.052,352.835,158.052z"/>
</g>
<path style="fill:#FFFFFF;" d="M159.165,158.052c-27.047,0-48.974,21.926-48.974,48.974S132.118,256,159.165,256H256v-97.948
	H159.165z"/>
<path style="fill:#FCB9B0;" d="M400.696,207.026H256L233.739,318.33h166.957c30.736,0,55.652-24.917,55.652-55.652
	S431.432,207.026,400.696,207.026z"/>
<path style="fill:#FEDCD7;" d="M111.304,207.026c-30.736,0-55.652,24.917-55.652,55.652s24.917,55.652,55.652,55.652H256V207.026
	H111.304z"/>
<rect x="147.478" y="429.635" style="fill:#FFF3AD;" width="108.522" height="22.261"/>
<g>
	<polygon style="fill:#FFE376;" points="364.522,429.635 244.87,429.635 256,451.896 364.522,451.896 	"/>
	<path style="fill:#FFE376;" d="M278.261,451.896H256l-22.261-178.087h222.609C456.348,372.163,376.616,451.896,278.261,451.896z"/>
</g>
<g>
	<path style="fill:#FFF3AD;" d="M55.652,273.809H256v178.087h-22.261C135.385,451.896,55.652,372.163,55.652,273.809z"/>
	<path style="fill:#FFF3AD;" d="M233.739,273.809L256,429.635h22.261c85.922,0,155.826-69.904,155.826-155.826H233.739z"/>
</g>
<path style="fill:#FFFFFF;" d="M77.913,273.809c0,85.922,69.904,155.826,155.826,155.826H256V273.809H77.913z"/>
<g>
	<rect x="322.783" y="362.852" style="fill:#FFE376;" width="22.261" height="22.261"/>
	<rect x="356.174" y="329.461" style="fill:#FFE376;" width="22.261" height="22.261"/>
	<polygon style="fill:#FFE376;" points="256,262.678 244.87,273.809 256,284.939 467.478,284.939 467.478,262.678 	"/>
</g>
<rect x="44.522" y="262.678" style="fill:#FFF3AD;" width="211.478" height="22.261"/>
<g>
</g>
<g>
</g>
<g>
</g>
<g>
</g>
<g>
</g>
<g>
</g>
<g>
</g>
<g>
</g>
<g>
</g>
<g>
</g>
<g>
</g>
<g>
</g>
<g>
</g>
<g>
</g>
<g>
</g>
</svg>
