<?xml version="1.0" encoding="iso-8859-1"?>
<!-- Generator: Adobe Illustrator 19.0.0, SVG Export Plug-In . SVG Version: 6.00 Build 0)  -->
<svg version="1.1" id="Layer_1" xmlns="http://www.w3.org/2000/svg" xmlns:xlink="http://www.w3.org/1999/xlink" x="0px" y="0px"
	 viewBox="0 0 512 512" style="enable-background:new 0 0 512 512;" xml:space="preserve">
<path style="fill:#6E259B;" d="M509.481,220.09C492.019,95.709,385.195,0,256,0C114.616,0,0,114.616,0,256
	c0,116.644,78.018,215.057,184.713,245.93L509.481,220.09z"/>
<path style="fill:#30275E;" d="M509.481,220.09L339.478,50.087l-25.732,41.049l-41.05-41.049v66.783l-66.783-66.783l-100.174,372.87
	l78.974,78.974C207.343,508.478,231.26,512,256,512c141.384,0,256-114.616,256-256C512,243.81,511.128,231.826,509.481,220.09z"/>
<polygon style="fill:#FFC207;" points="161.391,339.478 105.739,339.478 105.739,128 139.13,128 "/>
<g>
	<polygon style="fill:#FFD23E;" points="194.783,339.478 139.13,339.478 139.13,94.609 172.522,94.609 	"/>
	<polygon style="fill:#FFD23E;" points="261.565,339.478 183.652,339.478 205.913,72.348 239.304,72.348 	"/>
</g>
<g>
	<polygon style="fill:#FFC207;" points="328.348,339.478 250.435,339.478 272.696,72.348 306.087,72.348 	"/>
	<polygon style="fill:#FFC207;" points="406.261,339.478 350.609,339.478 372.87,128 406.261,128 	"/>
</g>
<polygon style="fill:#FDA409;" points="372.87,339.478 317.217,339.478 339.478,94.609 372.87,94.609 "/>
<rect x="306.087" y="50.087" style="fill:#FFD23E;" width="33.391" height="289.391"/>
<g>
	<rect x="239.304" y="50.087" style="fill:#FFE376;" width="33.391" height="289.391"/>
	<rect x="172.522" y="50.087" style="fill:#FFE376;" width="33.391" height="289.391"/>
</g>
<path style="fill:#F94C10;" d="M406.261,172.522c0,82.987-67.273,150.261-150.261,150.261l-22.261,50.087L256,422.957h150.261
	l22.261-228.174v-22.261H406.261z"/>
<path style="fill:#FA7461;" d="M105.739,172.522H83.478v22.261l22.261,228.174H256V322.783
	C173.014,322.783,105.739,255.509,105.739,172.522z"/>
<g>
	<rect x="128" y="378.435" style="fill:#F94C10;" width="22.261" height="22.261"/>
	<rect x="161.391" y="345.043" style="fill:#F94C10;" width="22.261" height="22.261"/>
</g>
<g>
</g>
<g>
</g>
<g>
</g>
<g>
</g>
<g>
</g>
<g>
</g>
<g>
</g>
<g>
</g>
<g>
</g>
<g>
</g>
<g>
</g>
<g>
</g>
<g>
</g>
<g>
</g>
<g>
</g>
</svg>
