<?xml version="1.0" encoding="iso-8859-1"?>
<!-- Generator: Adobe Illustrator 19.0.0, SVG Export Plug-In . SVG Version: 6.00 Build 0)  -->
<svg version="1.1" id="Layer_1" xmlns="http://www.w3.org/2000/svg" xmlns:xlink="http://www.w3.org/1999/xlink" x="0px" y="0px"
	 viewBox="0 0 512 512" style="enable-background:new 0 0 512 512;" xml:space="preserve">
<path style="fill:#FC870B;" d="M511.993,255.437C511.688,114.311,397.196,0,256,0C114.616,0,0,114.616,0,256
	c0,115.635,76.675,213.347,181.953,245.109L511.993,255.437z"/>
<path style="fill:#FA690E;" d="M512,256c0-0.188-0.007-0.375-0.008-0.564L372.87,116.313l-18.128,18.128l-75.13-75.13
	l-23.608,23.611v220.3L55.652,378.991L181.951,501.11C205.395,508.182,230.251,512,256,512C397.384,512,512,397.384,512,256z"/>
<polygon style="fill:#813115;" points="372.87,116.313 256,116.313 252.29,138.574 367.31,221.171 389.102,216.487 "/>
<polygon style="fill:#692811;" points="367.31,221.171 353.926,138.574 252.29,138.574 233.739,249.878 "/>
<polygon style="fill:#A56840;" points="139.13,116.313 122.899,216.487 144.569,221.923 256,138.574 256,116.313 "/>
<polygon style="fill:#934D2B;" points="256,138.574 158.074,138.574 144.569,221.923 256,249.878 "/>
<path style="fill:#FFD23E;" d="M389.102,216.487c-10.342,0-17.469-2.153-23.381-5.118l1.958,167.622l44.148-22.261L389.102,216.487z
	"/>
<path style="fill:#FFC207;" d="M322.554,194.226c-33.274,0-33.274,22.261-66.55,22.261c-0.004,0-22.265,173.635-22.265,173.635
	l156.2-29.288L365.72,211.37C352.616,204.797,345.485,194.226,322.554,194.226z"/>
<path style="fill:#FFE376;" d="M122.899,216.487L100.174,356.73l44.055,22.261l2.049-167.621
	C140.367,214.335,133.241,216.487,122.899,216.487z"/>
<path style="fill:#FFD23E;" d="M256,216.487c-33.272-0.002-33.273-22.261-66.549-22.261c-22.934,0-30.063,10.572-43.173,17.144
	l-24.31,150.03L256,390.122V216.487z"/>
<polygon style="fill:#FFE376;" points="422.957,378.991 400.696,417.948 256,417.948 234.296,373.426 "/>
<g>
	<polygon style="fill:#FFF3AD;" points="111.304,417.948 256,417.948 256,367.861 89.043,378.991 	"/>
	<polygon style="fill:#FFF3AD;" points="456.348,356.73 456.348,378.991 256,378.991 245.009,367.861 256,356.73 	"/>
</g>
<rect x="55.652" y="356.73" style="fill:#FFFFFF;" width="200.348" height="22.261"/>
<path style="fill:#D92444;" d="M256,49.53l-11.13,33.391L256,116.313c18.442,0,33.391-14.95,33.391-33.391S274.442,49.53,256,49.53z
	"/>
<path style="fill:#F72E12;" d="M222.609,82.922c0,18.441,14.949,33.391,33.391,33.391V49.53
	C237.559,49.53,222.609,64.481,222.609,82.922z"/>
<g>
	<rect x="148.591" y="312.209" style="fill:#FFC207;" width="22.261" height="22.261"/>
	<rect x="181.983" y="278.817" style="fill:#FFC207;" width="22.261" height="22.261"/>
</g>
<g>
	<rect x="278.261" y="234.296" style="fill:#FDA409;" width="22.261" height="22.261"/>
	<rect x="322.783" y="278.817" style="fill:#FDA409;" width="22.261" height="22.261"/>
</g>
<g>
</g>
<g>
</g>
<g>
</g>
<g>
</g>
<g>
</g>
<g>
</g>
<g>
</g>
<g>
</g>
<g>
</g>
<g>
</g>
<g>
</g>
<g>
</g>
<g>
</g>
<g>
</g>
<g>
</g>
</svg>
