<?xml version="1.0" encoding="iso-8859-1"?>
<!-- Generator: Adobe Illustrator 19.0.0, SVG Export Plug-In . SVG Version: 6.00 Build 0)  -->
<svg version="1.1" id="Layer_1" xmlns="http://www.w3.org/2000/svg" xmlns:xlink="http://www.w3.org/1999/xlink" x="0px" y="0px"
	 viewBox="0 0 512.001 512.001" style="enable-background:new 0 0 512.001 512.001;" xml:space="preserve">
<path style="fill:#FFE65A;" d="M505.499,198.545c-10.384-45.281-33.194-88.288-68.466-123.562
	c-99.978-99.978-262.073-99.978-362.05,0s-99.978,262.073,0,362.05c35.272,35.272,78.281,58.083,123.562,68.467L505.499,198.545z"/>
<path style="fill:#FFC207;" d="M437.033,437.034c64.704-64.704,87.516-155.425,68.466-238.488l-54.693-54.693L143.851,450.807
	l54.693,54.693C281.607,524.549,372.328,501.738,437.033,437.034z"/>
<path style="fill:#FC870B;" d="M134.426,422.328c-1.478,10.086,1.663,20.717,9.424,28.479c13.041,13.041,34.184,13.041,47.223,0
	L313.07,313.071l-34.692-34.692L134.426,422.328z"/>
<g>
	<path style="fill:#FA690E;" d="M313.07,313.071l137.737-121.996c13.041-13.041,13.041-34.184,0-47.223
		c-7.761-7.761-18.394-10.901-28.479-9.424l-143.95,143.951L313.07,313.071z"/>
	<path style="fill:#FA690E;" d="M134.427,172.331c-10.125,1.183-19.581,6.968-25.069,16.474c-5.487,9.506-5.77,20.589-1.732,29.947
		l-13.873,51.776c-8.177,6.086-13.474,15.825-13.474,26.802s5.297,20.714,13.474,26.802l13.873,51.776
		c-4.038,9.359-3.757,20.442,1.732,29.947c5.489,9.506,14.945,15.29,25.069,16.474L297.33,297.329L167.462,167.463L134.427,172.331z
		"/>
</g>
<path style="fill:#F94C10;" d="M405.853,109.358c-9.506-5.489-20.589-5.77-29.947-1.732L324.13,93.753
	c-6.086-8.177-15.825-13.474-26.802-13.474c-10.976,0-20.714,5.297-26.802,13.474l-51.776,13.873
	c-9.36-4.037-20.442-3.756-29.947,1.732s-15.29,14.945-16.474,25.069l26.616,64.518l98.383,98.383l124.999-162.902
	C421.145,124.304,415.359,114.847,405.853,109.358z"/>
<g>
	<path style="fill:#FA690E;" d="M270.528,93.753c-7.995-6.322-18.773-8.919-29.375-6.077c-10.602,2.841-18.637,10.479-22.401,19.951
		l78.578,189.703L270.528,93.753z"/>
	<path style="fill:#FA690E;" d="M143.851,143.852l68.868,84.609l84.609,68.868L172.33,134.428
		C162.244,132.95,151.612,136.09,143.851,143.852z"/>
</g>
<path style="fill:#FC870B;" d="M134.427,172.331l162.901,124.999L143.851,143.852C136.089,151.613,132.949,162.245,134.427,172.331z
	"/>
<path style="fill:#FA690E;" d="M375.906,107.627c-3.763-9.473-11.799-17.11-22.401-19.951c-10.602-2.841-21.38-0.245-29.375,6.077
	l-26.802,203.576L375.906,107.627z"/>
<g>
	<path style="fill:#FC870B;" d="M93.752,324.131c-6.322,7.995-8.918,18.773-6.077,29.375c2.841,10.602,10.479,18.637,19.951,22.401
		l189.703-78.578L93.752,324.131z"/>
	<path style="fill:#FC870B;" d="M107.626,218.752c-9.473,3.763-17.11,11.799-19.951,22.401c-2.841,10.602-0.245,21.38,6.077,29.375
		l203.576,26.802L107.626,218.752z"/>
	<path style="fill:#FC870B;" d="M427.194,167.463c-71.722-71.722-188.009-71.722-259.731,0l45.257,108.221l108.221,45.257
		l129.866-129.866L427.194,167.463z"/>
</g>
<path style="fill:#FDA409;" d="M167.462,427.195l23.612,23.612L320.94,320.941L167.462,167.463
	C95.74,239.187,95.74,355.472,167.462,427.195z"/>
<g>
	
		<rect x="392.442" y="179.942" transform="matrix(-0.7071 0.7071 -0.7071 -0.7071 824.0505 40.8116)" style="fill:#FA690E;" width="22.261" height="22.261"/>
	
		<rect x="345.224" y="179.936" transform="matrix(-0.7071 0.7071 -0.7071 -0.7071 743.4404 74.1907)" style="fill:#FA690E;" width="22.261" height="22.261"/>
</g>
<g>
	
		<rect x="148.457" y="242.905" transform="matrix(-0.7071 0.7071 -0.7071 -0.7071 452.0637 320.8203)" style="fill:#FC870B;" width="22.261" height="22.261"/>
	
		<rect x="195.688" y="376.706" transform="matrix(-0.7071 0.7071 -0.7071 -0.7071 627.3036 515.8358)" style="fill:#FC870B;" width="22.261" height="22.261"/>
</g>
<g>
</g>
<g>
</g>
<g>
</g>
<g>
</g>
<g>
</g>
<g>
</g>
<g>
</g>
<g>
</g>
<g>
</g>
<g>
</g>
<g>
</g>
<g>
</g>
<g>
</g>
<g>
</g>
<g>
</g>
</svg>
