<?xml version="1.0" encoding="iso-8859-1"?>
<!-- Generator: Adobe Illustrator 19.0.0, SVG Export Plug-In . SVG Version: 6.00 Build 0)  -->
<svg version="1.1" id="Layer_1" xmlns="http://www.w3.org/2000/svg" xmlns:xlink="http://www.w3.org/1999/xlink" x="0px" y="0px"
	 viewBox="0 0 512 512" style="enable-background:new 0 0 512 512;" xml:space="preserve">
<path style="fill:#92CCFF;" d="M511.799,265.716c0.12-3.226,0.201-6.461,0.201-9.716C512,114.615,397.384,0,256,0
	C114.615,0,0,114.615,0,256c0,127.432,93.116,233.101,215.016,252.72L511.799,265.716z"/>
<path style="fill:#2598FE;" d="M357.238,211.114L199.389,53.266l-26.95,412.877l42.576,42.576C228.362,510.867,242.048,512,256,512
	c138.13,0,250.689-109.404,255.799-246.284l-88.84-88.84L357.238,211.114z"/>
<path style="fill:#C9E5FF;" d="M183.644,46.747c12.295,0,22.261,9.966,22.261,22.261v121.225h-44.522V69.008
	C161.383,56.713,171.35,46.747,183.644,46.747z"/>
<polygon style="fill:#FFF3AD;" points="233.739,230.5 233.739,120.431 350.609,142.692 401.203,199.136 "/>
<polygon style="fill:#FFFFFF;" points="256,120.431 256,230.5 110.789,199.136 161.391,142.692 "/>
<g>
	<path style="fill:#FC870B;" d="M338.911,129.636l11.698,13.056H256l-22.261-25.055L256,92.583
		C288.935,92.583,318.531,106.897,338.911,129.636z"/>
	<rect x="278.261" y="131.562" style="fill:#FC870B;" width="44.522" height="54.419"/>
</g>
<path style="fill:#FDA409;" d="M256,92.583v50.109h-94.609l11.698-13.056C193.469,106.897,223.065,92.583,256,92.583z"/>
<path style="fill:#813115;" d="M233.735,288.623l22.261,166.511l83.567-11.242c49.853-26.568,83.389-76.188,83.389-133.009
	L233.735,288.623z"/>
<path style="fill:#934D2B;" d="M89.039,310.884c0,56.821,33.536,106.44,83.4,133.009l83.556,11.242V288.623L89.039,310.884z"/>
<path style="fill:#692811;" d="M400.691,188.004c0,41.383,22.261,81.497,22.261,122.88c-25.244,0-38.99,6.879-50.031,12.399
	c-9.483,4.73-16.963,8.47-33.447,8.47c-16.495,0-23.975-3.74-33.447-8.47c-11.041-5.521-24.787-12.399-50.031-12.399l-44.522-61.44
	l44.522-61.44H400.691z"/>
<path style="fill:#813115;" d="M255.996,188.004v122.88c-25.244,0-38.99,6.879-50.031,12.399c-9.483,4.73-16.963,8.47-33.447,8.47
	c-16.495,0-23.975-3.74-33.447-8.47c-11.041-5.521-24.787-12.399-50.031-12.399c0-41.383,22.261-81.497,22.261-122.88H255.996z"/>
<polygon style="fill:#692811;" points="339.558,443.883 339.558,466.144 255.997,466.144 240.465,455.013 255.997,443.883 "/>
<rect x="172.433" y="443.882" style="fill:#813115;" width="83.567" height="22.261"/>
<polygon style="fill:#F94C10;" points="322.779,181.884 322.779,221.397 300.518,235.866 278.258,221.397 278.258,181.884 "/>
<path style="fill:#FC870B;" d="M278.258,312.978v30.854c0,12.299,9.962,22.261,22.261,22.261c12.299,0,22.261-9.962,22.261-22.261
	v-13.831l-22.261-28.979L278.258,312.978z"/>
<path style="fill:#FA690E;" d="M306.027,323.283c5.53,2.761,10.391,5.179,16.754,6.718V221.398h-44.522v91.581L306.027,323.283z"/>
<polygon style="fill:#813115;" points="422.953,176.875 422.953,199.136 345.041,199.136 323.89,191.344 300.519,199.136 
	255.993,199.136 240.462,188.005 255.993,176.875 300.519,176.875 323.149,184.666 345.041,176.875 "/>
<rect x="89.04" y="176.874" style="fill:#934D2B;" width="166.957" height="22.261"/>
<rect x="300.522" y="176.874" style="fill:#FA690E;" width="44.522" height="22.261"/>
<g>
</g>
<g>
</g>
<g>
</g>
<g>
</g>
<g>
</g>
<g>
</g>
<g>
</g>
<g>
</g>
<g>
</g>
<g>
</g>
<g>
</g>
<g>
</g>
<g>
</g>
<g>
</g>
<g>
</g>
</svg>
