<?xml version="1.0" encoding="iso-8859-1"?>
<!-- Generator: Adobe Illustrator 19.0.0, SVG Export Plug-In . SVG Version: 6.00 Build 0)  -->
<svg version="1.1" id="Layer_1" xmlns="http://www.w3.org/2000/svg" xmlns:xlink="http://www.w3.org/1999/xlink" x="0px" y="0px"
	 viewBox="0 0 512 512" style="enable-background:new 0 0 512 512;" xml:space="preserve">
<path style="fill:#81982D;" d="M502.865,188.049C473.095,79.648,373.856,0,256,0C114.615,0,0,114.615,0,256
	c0,117.856,79.648,217.094,188.049,246.865L502.865,188.049z"/>
<path style="fill:#365F2C;" d="M512,256c0-23.529-3.191-46.309-9.135-67.951l-89.458-89.458L98.592,413.408l89.458,89.458
	c21.641,5.944,44.422,9.135,67.951,9.135C397.385,512,512,397.384,512,256z"/>
<path style="fill:#FFF3AD;" d="M256.427,33.391L145.123,256l111.304,222.609c122.943,0,222.609-99.665,222.609-222.609
	S379.37,33.391,256.427,33.391z"/>
<path style="fill:#FFFFFF;" d="M33.819,256c0,122.943,99.665,222.609,222.609,222.609V33.391
	C133.484,33.391,33.819,133.057,33.819,256z"/>
<path style="fill:#FFD23E;" d="M256,66.783L161.391,256L256,445.217c104.501,0,189.217-84.715,189.217-189.217
	S360.501,66.783,256,66.783z"/>
<path style="fill:#FFE376;" d="M66.783,256c0,104.503,84.716,189.217,189.217,189.217V66.783
	C151.499,66.783,66.783,151.497,66.783,256z"/>
<path style="fill:#FDA409;" d="M256,89.043l-44.522,83.478L256,256l-44.522,83.478L256,422.957
	c92.207,0,166.957-74.749,166.957-166.957S348.207,89.043,256,89.043z"/>
<g>
	<path style="fill:#FFC207;" d="M256,89.043c-92.207,0-166.957,74.749-166.957,166.957H256V89.043z"/>
	<path style="fill:#FFC207;" d="M138.16,374.268c30.197,30.088,71.845,48.689,117.84,48.689V256.427L138.16,374.268z"/>
</g>
<rect x="356.174" y="289.391" style="fill:#63842C;" width="22.261" height="22.261"/>
<rect x="372.87" y="222.609" style="fill:#FC870B;" width="22.261" height="22.261"/>
<rect x="333.913" y="267.13" style="fill:#365F2C;" width="22.261" height="22.261"/>
<rect x="278.261" y="278.261" style="fill:#FC870B;" width="22.261" height="22.261"/>
<rect x="322.783" y="345.043" style="fill:#193D2F;" width="22.261" height="22.261"/>
<rect x="115.901" y="278.684" style="fill:#FFC207;" width="22.261" height="22.261"/>
<rect x="183.652" y="358.957" style="fill:#FDA409;" width="22.261" height="22.261"/>
<g>
	<rect x="166.957" y="211.478" style="fill:#81982D;" width="22.261" height="22.261"/>
	<rect x="183.652" y="141.913" style="fill:#81982D;" width="22.261" height="22.261"/>
</g>
<g>
	<rect x="133.565" y="178.087" style="fill:#365F2C;" width="22.261" height="22.261"/>
	<path style="fill:#365F2C;" d="M246.101,153.043L256,194.783c15.118-6.335,27.826-24.905,27.826-41.739S271.118,117.64,256,111.304
		L246.101,153.043z"/>
</g>
<path style="fill:#63842C;" d="M228.174,153.043c0,16.834,12.708,35.404,27.826,41.739v-83.478
	C240.882,117.64,228.174,136.21,228.174,153.043z"/>
<path style="fill:#365F2C;" d="M246.101,358.957L256,400.696c15.118-6.335,27.826-24.905,27.826-41.739
	c0-16.834-12.708-35.404-27.826-41.739L246.101,358.957z"/>
<path style="fill:#63842C;" d="M228.174,358.957c0,16.834,12.708,35.404,27.826,41.739v-83.478
	C240.882,323.553,228.174,342.123,228.174,358.957z"/>
<path style="fill:#365F2C;" d="M321.801,176.198l-22.514,36.515c15.17,6.211,37.287,2.066,49.19-9.838
	c11.903-11.903,16.049-34.02,9.838-49.19L321.801,176.198z"/>
<path style="fill:#63842C;" d="M309.126,163.523c-11.903,11.903-16.049,34.02-9.838,49.19l59.028-59.028
	C343.145,147.474,321.028,151.62,309.126,163.523z"/>
<g>
</g>
<g>
</g>
<g>
</g>
<g>
</g>
<g>
</g>
<g>
</g>
<g>
</g>
<g>
</g>
<g>
</g>
<g>
</g>
<g>
</g>
<g>
</g>
<g>
</g>
<g>
</g>
<g>
</g>
</svg>
