<?xml version="1.0" encoding="iso-8859-1"?>
<!-- Generator: Adobe Illustrator 19.0.0, SVG Export Plug-In . SVG Version: 6.00 Build 0)  -->
<svg version="1.1" id="Layer_1" xmlns="http://www.w3.org/2000/svg" xmlns:xlink="http://www.w3.org/1999/xlink" x="0px" y="0px"
	 viewBox="0 0 512 512" style="enable-background:new 0 0 512 512;" xml:space="preserve">
<path style="fill:#813115;" d="M502.865,188.049C473.095,79.648,373.856,0,256,0C114.615,0,0,114.615,0,256
	c0,117.856,79.648,217.094,188.049,246.865L502.865,188.049z"/>
<path style="fill:#3A160A;" d="M512,256c0-23.529-3.191-46.309-9.135-67.951l-89.458-89.458L98.592,413.408l89.458,89.458
	c21.641,5.944,44.422,9.135,67.951,9.135C397.385,512,512,397.384,512,256z"/>
<path style="fill:#FFF3AD;" d="M256,33.391L144.696,256L256,478.609c122.943,0,222.609-99.665,222.609-222.609
	S378.943,33.391,256,33.391z"/>
<path style="fill:#FFFFFF;" d="M33.391,256c0,122.943,99.665,222.609,222.609,222.609V33.391
	C133.057,33.391,33.391,133.057,33.391,256z"/>
<path style="fill:#FFD23E;" d="M256,66.783L161.391,256L256,445.217c104.501,0,189.217-84.715,189.217-189.217
	S360.501,66.783,256,66.783z"/>
<path style="fill:#FFE376;" d="M66.783,256c0,104.503,84.716,189.217,189.217,189.217V66.783
	C151.499,66.783,66.783,151.497,66.783,256z"/>
<path style="fill:#FDA409;" d="M345.043,174.748c0-49.175-39.868-89.043-89.043-89.043l-43.435,203.939L345.043,174.748z"/>
<path style="fill:#FFC207;" d="M166.957,174.748c0-49.175,39.868-89.043,89.043-89.043v203.939L166.957,174.748z"/>
<path style="fill:#FDA409;" d="M337.252,166.957L260.028,256l77.224,89.043c49.175,0,89.043-39.868,89.043-89.043
	S386.428,166.957,337.252,166.957z"/>
<path style="fill:#FFC207;" d="M174.748,166.957L251.972,256l-77.224,89.043c-49.175,0-89.043-39.868-89.043-89.043
	S125.572,166.957,174.748,166.957z"/>
<path style="fill:#FDA409;" d="M345.043,337.252c0,49.175-39.868,89.043-89.043,89.043l-43.435-203.938L345.043,337.252z"/>
<path style="fill:#FFC207;" d="M166.957,337.252c0,49.175,39.868,89.043,89.043,89.043V222.357L166.957,337.252z"/>
<path style="fill:#A56840;" d="M380.661,175.861v160.278c0,24.487-20.035,44.522-44.522,44.522h-34.504L222.609,256L256,131.339
	h80.139C360.626,131.339,380.661,151.374,380.661,175.861z"/>
<path style="fill:#B78456;" d="M256,131.339v170.296l-45.635,79.026h-34.504c-24.487,0-44.522-20.035-44.522-44.522V175.861
	c0-24.487,20.035-44.522,44.522-44.522H256z"/>
<rect x="210.365" y="210.365" style="fill:#C9A06C;" width="34.504" height="34.504"/>
<rect x="267.13" y="267.13" style="fill:#B78456;" width="34.504" height="34.504"/>
<g>
	<rect x="210.365" y="153.6" style="fill:#C9A06C;" width="34.504" height="34.504"/>
	<rect x="210.365" y="267.13" style="fill:#C9A06C;" width="34.504" height="34.504"/>
</g>
<g>
	<rect x="267.13" y="210.365" style="fill:#B78456;" width="34.504" height="34.504"/>
	<path style="fill:#B78456;" d="M323.896,188.104H358.4v-12.243c0-12.275-9.986-22.261-22.261-22.261h-12.243V188.104z"/>
</g>
<g>
	<rect x="153.6" y="267.13" style="fill:#C9A06C;" width="34.504" height="34.504"/>
	<rect x="153.6" y="210.365" style="fill:#C9A06C;" width="34.504" height="34.504"/>
</g>
<rect x="323.896" y="210.365" style="fill:#B78456;" width="34.504" height="34.504"/>
<g>
	<path style="fill:#C9A06C;" d="M188.104,323.896H153.6v12.243c0,12.275,9.986,22.261,22.261,22.261h12.243V323.896z"/>
	<path style="fill:#C9A06C;" d="M188.104,188.104V153.6h-12.243c-12.275,0-22.261,9.986-22.261,22.261v12.243H188.104z"/>
</g>
<g>
	<path style="fill:#B78456;" d="M323.896,323.896V358.4h12.243c12.275,0,22.261-9.986,22.261-22.261v-12.243H323.896z"/>
	<rect x="267.13" y="323.896" style="fill:#B78456;" width="34.504" height="34.504"/>
	<rect x="323.896" y="267.13" style="fill:#B78456;" width="34.504" height="34.504"/>
</g>
<rect x="210.365" y="323.896" style="fill:#C9A06C;" width="34.504" height="34.504"/>
<rect x="267.13" y="153.6" style="fill:#B78456;" width="34.504" height="34.504"/>
<polygon style="fill:#FC870B;" points="301.635,301.635 301.635,380.661 256,380.661 222.609,279.374 "/>
<polygon style="fill:#FDA409;" points="256,279.374 256,380.661 210.365,380.661 210.365,301.635 "/>
<polygon style="fill:#FFC207;" points="301.635,210.365 301.635,301.635 256,301.635 233.739,256 256,210.365 "/>
<rect x="210.365" y="210.365" style="fill:#FFD23E;" width="45.635" height="91.27"/>
<polygon style="fill:#FDA409;" points="279.374,232.626 279.374,279.374 256,279.374 244.598,256 256,232.626 "/>
<rect x="232.626" y="232.626" style="fill:#FFC207;" width="23.374" height="46.748"/>
<g>
</g>
<g>
</g>
<g>
</g>
<g>
</g>
<g>
</g>
<g>
</g>
<g>
</g>
<g>
</g>
<g>
</g>
<g>
</g>
<g>
</g>
<g>
</g>
<g>
</g>
<g>
</g>
<g>
</g>
</svg>
