<?xml version="1.0" encoding="iso-8859-1"?>
<!-- Generator: Adobe Illustrator 19.0.0, SVG Export Plug-In . SVG Version: 6.00 Build 0)  -->
<svg version="1.1" id="Layer_1" xmlns="http://www.w3.org/2000/svg" xmlns:xlink="http://www.w3.org/1999/xlink" x="0px" y="0px"
	 viewBox="0 0 512 512" style="enable-background:new 0 0 512 512;" xml:space="preserve">
<path style="fill:#FDA409;" d="M499.584,177.08C466.312,74.318,369.843,0,256,0C114.616,0,0,114.616,0,256
	c0,110.537,70.059,204.71,168.195,240.542L499.584,177.08z"/>
<path style="fill:#FA690E;" d="M499.584,177.08l-73.983-73.983L325.427,203.271L225.253,103.097l-96.574,175.488l-63.43,37.099
	l27.746,27.746l-3.951,7.179l28.509,28.51l-6.248,16.012l22.261,22.261h-22.261v22.261l56.89,56.89
	C195.581,506.542,225.153,512,256,512c141.385,0,256-114.616,256-256C512,228.459,507.634,201.939,499.584,177.08z"/>
<rect x="89.043" y="294.957" style="fill:#FFC207;" width="33.391" height="55.652"/>
<rect x="389.565" y="294.957" style="fill:#FDA409;" width="33.391" height="55.652"/>
<polygon style="fill:#FFE376;" points="256,261.565 233.739,300.522 445.217,294.957 445.217,261.565 "/>
<polygon style="fill:#FFF3AD;" points="66.783,261.565 66.783,283.826 256,300.522 256,261.565 "/>
<path style="fill:#FFD23E;" d="M256,289.391l-11.13,11.13L256,317.217h189.217v-22.261C325.565,294.957,304.696,292.174,256,289.391
	z"/>
<path style="fill:#FFE376;" d="M66.783,317.217H256v-27.826c-48.696-2.783-102.957-5.565-189.217-5.565V317.217z"/>
<path style="fill:#220D06;" d="M178.087,83.478h-22.261l-44.522,89.043l44.522,89.043h22.261c36.73,0,66.783-30.052,66.783-66.783
	v-44.522C244.87,113.53,214.817,83.478,178.087,83.478z"/>
<path style="fill:#193D2F;" d="M133.565,83.478c-36.73,0-66.783,30.052-66.783,66.783v44.522c0,36.73,30.052,66.783,66.783,66.783
	h22.261V83.478H133.565z"/>
<path style="fill:#FFF3AD;" d="M178.087,105.739h-22.261l-44.522,66.783l44.522,66.783h22.261c24.549,0,44.522-19.972,44.522-44.522
	v-44.522C222.609,125.713,202.636,105.739,178.087,105.739z"/>
<path style="fill:#FFFFFF;" d="M133.565,105.739c-24.549,0-44.522,19.972-44.522,44.522v44.522
	c0,24.549,19.972,44.522,44.522,44.522h22.261V105.739H133.565z"/>
<path style="fill:#A0AD2F;" d="M155.826,139.13l-11.13,33.391l11.13,33.391c18.442,0,33.391-14.95,33.391-33.391
	S174.268,139.13,155.826,139.13z"/>
<path style="fill:#DDD532;" d="M122.435,172.522c0,18.441,14.949,33.391,33.391,33.391V139.13
	C137.385,139.13,122.435,154.081,122.435,172.522z"/>
<path style="fill:#220D06;" d="M378.435,83.478h-22.261l-44.522,89.043l44.522,89.043h22.261c36.73,0,66.783-30.052,66.783-66.783
	v-44.522C445.217,113.53,415.165,83.478,378.435,83.478z"/>
<path style="fill:#193D2F;" d="M333.913,83.478c-36.73,0-66.783,30.052-66.783,66.783v44.522c0,36.73,30.052,66.783,66.783,66.783
	h22.261V83.478H333.913z"/>
<path style="fill:#FFF3AD;" d="M378.435,105.739h-22.261l-44.522,66.783l44.522,66.783h22.261c24.549,0,44.522-19.972,44.522-44.522
	v-44.522C422.957,125.713,402.984,105.739,378.435,105.739z"/>
<path style="fill:#FFFFFF;" d="M333.913,105.739c-24.549,0-44.522,19.972-44.522,44.522v44.522
	c0,24.549,19.972,44.522,44.522,44.522h22.261V105.739H333.913z"/>
<path style="fill:#FA690E;" d="M356.174,139.13l-11.13,33.391l11.13,33.391c18.442,0,33.391-14.95,33.391-33.391
	S374.616,139.13,356.174,139.13z"/>
<path style="fill:#FDA409;" d="M322.783,172.522c0,18.441,14.949,33.391,33.391,33.391V139.13
	C337.733,139.13,322.783,154.081,322.783,172.522z"/>
<polygon style="fill:#813115;" points="400.697,372.87 400.697,395.13 255.996,395.13 245.004,384 255.996,372.87 "/>
<rect x="111.304" y="372.87" style="fill:#F72E12;" width="144.696" height="22.261"/>
<polygon style="fill:#813115;" points="400.697,417.391 400.697,439.652 255.996,439.652 245.004,428.522 255.996,417.391 "/>
<rect x="111.304" y="417.391" style="fill:#F72E12;" width="144.696" height="22.261"/>
<g>
</g>
<g>
</g>
<g>
</g>
<g>
</g>
<g>
</g>
<g>
</g>
<g>
</g>
<g>
</g>
<g>
</g>
<g>
</g>
<g>
</g>
<g>
</g>
<g>
</g>
<g>
</g>
<g>
</g>
</svg>
