<?xml version="1.0" encoding="iso-8859-1"?>
<!-- Generator: Adobe Illustrator 19.0.0, SVG Export Plug-In . SVG Version: 6.00 Build 0)  -->
<svg version="1.1" id="Layer_1" xmlns="http://www.w3.org/2000/svg" xmlns:xlink="http://www.w3.org/1999/xlink" x="0px" y="0px"
	 viewBox="0 0 512 512" style="enable-background:new 0 0 512 512;" xml:space="preserve">
<path style="fill:#2598FE;" d="M502.865,188.049C473.095,79.648,373.856,0,256,0C114.615,0,0,114.615,0,256
	c0,117.856,79.648,217.094,188.049,246.865L502.865,188.049z"/>
<path style="fill:#185F9F;" d="M512,256c0-23.529-3.191-46.309-9.135-67.951l-89.458-89.458L98.592,413.408l89.458,89.458
	c21.641,5.944,44.422,9.135,67.951,9.135C397.385,512,512,397.384,512,256z"/>
<path style="fill:#FFF3AD;" d="M256,33.391L144.696,256L256,478.609c122.943,0,222.609-99.665,222.609-222.609
	S378.943,33.391,256,33.391z"/>
<path style="fill:#FFFFFF;" d="M33.391,256c0,122.943,99.665,222.609,222.609,222.609V33.391
	C133.057,33.391,33.391,133.057,33.391,256z"/>
<path style="fill:#FFD23E;" d="M256,66.783L161.391,256L256,445.217c104.501,0,189.217-84.715,189.217-189.217
	S360.501,66.783,256,66.783z"/>
<path style="fill:#FFE376;" d="M66.783,256c0,104.503,84.716,189.217,189.217,189.217V66.783
	C151.499,66.783,66.783,151.497,66.783,256z"/>
<path style="fill:#BEC130;" d="M256,111.304L183.652,256L256,400.696c79.913,0,144.696-64.782,144.696-144.696
	S335.913,111.304,256,111.304z"/>
<path style="fill:#DDD532;" d="M111.304,256c0,79.913,64.782,144.696,144.696,144.696V111.304
	C176.087,111.304,111.304,176.087,111.304,256z"/>
<path style="fill:#63842C;" d="M160.278,292.73l-8.348,16.696l8.348,16.696c9.22,0,16.696-7.475,16.696-16.696
	C176.974,300.206,169.499,292.73,160.278,292.73z"/>
<path style="fill:#81982D;" d="M143.583,309.426c0,9.22,7.475,16.696,16.696,16.696V292.73
	C151.058,292.73,143.583,300.206,143.583,309.426z"/>
<path style="fill:#44702A;" d="M129.113,326.122l-8.348,16.696l8.348,16.696c9.22,0,16.696-7.475,16.696-16.696
	C145.809,333.597,138.333,326.122,129.113,326.122z"/>
<g>
	<path style="fill:#63842C;" d="M112.417,342.817c0,9.22,7.475,16.696,16.696,16.696v-33.391
		C119.893,326.122,112.417,333.597,112.417,342.817z"/>
	<path style="fill:#63842C;" d="M83.478,239.304L75.13,256l8.348,16.696c9.22,0,16.696-7.475,16.696-16.696
		S92.699,239.304,83.478,239.304z"/>
</g>
<path style="fill:#81982D;" d="M66.783,256c0,9.22,7.475,16.696,16.696,16.696v-33.391C74.258,239.304,66.783,246.78,66.783,256z"/>
<path style="fill:#44702A;" d="M116.87,172.522l-8.348,16.696l8.348,16.696c9.22,0,16.696-7.475,16.696-16.696
	C133.565,179.997,126.09,172.522,116.87,172.522z"/>
<path style="fill:#63842C;" d="M100.174,189.217c0,9.22,7.475,16.696,16.696,16.696v-33.391
	C107.649,172.522,100.174,179.997,100.174,189.217z"/>
<path style="fill:#44702A;" d="M382.589,370.643l-8.348-16.696l8.348-16.696c9.22,0,16.696,7.475,16.696,16.696
	C399.284,363.168,391.809,370.643,382.589,370.643z"/>
<g>
	<path style="fill:#63842C;" d="M365.893,353.948c0-9.22,7.475-16.696,16.696-16.696v33.391
		C373.368,370.643,365.893,363.168,365.893,353.948z"/>
	<path style="fill:#63842C;" d="M347.27,337.252l-8.348-16.696l8.348-16.696c9.22,0,16.696,7.475,16.696,16.696
		C363.965,329.777,356.49,337.252,347.27,337.252z"/>
</g>
<path style="fill:#81982D;" d="M330.574,320.557c0-9.22,7.475-16.696,16.696-16.696v33.391
	C338.049,337.252,330.574,329.777,330.574,320.557z"/>
<path style="fill:#44702A;" d="M428.522,272.696L420.174,256l8.348-16.696c9.22,0,16.696,7.475,16.696,16.696
	S437.742,272.696,428.522,272.696z"/>
<path style="fill:#63842C;" d="M411.826,256c0-9.22,7.475-16.696,16.696-16.696v33.391C419.301,272.696,411.826,265.22,411.826,256z
	"/>
<path style="fill:#44702A;" d="M395.13,228.174l-8.348-16.696l8.348-16.696c9.22,0,16.696,7.475,16.696,16.696
	C411.826,220.699,404.351,228.174,395.13,228.174z"/>
<path style="fill:#63842C;" d="M378.435,211.478c0-9.22,7.475-16.696,16.696-16.696v33.391
	C385.91,228.174,378.435,220.699,378.435,211.478z"/>
<polygon style="fill:#1C72BF;" points="278.261,356.174 233.739,311.652 256,422.957 300.522,406.472 "/>
<polygon style="fill:#2598FE;" points="233.739,356.174 211.478,406.472 256,422.957 256,333.913 "/>
<rect x="268.234" y="335.964" transform="matrix(-0.866 0.5 -0.5 -0.866 711.545 570.3074)" style="fill:#1C72BF;" width="22.26" height="89.042"/>
<rect x="221.508" y="335.982" transform="matrix(0.866 0.5 -0.5 0.866 221.4247 -65.3416)" style="fill:#2598FE;" width="22.26" height="89.042"/>
<rect x="244.87" y="344.899" style="fill:#1C72BF;" width="22.261" height="89.043"/>
<path style="fill:#5CB2FE;" d="M345.043,124.513L210.785,240.269L256,356.026h22.261c74.189-81.838,89.043-148.881,89.043-231.513
	L345.043,124.513z"/>
<path style="fill:#92CCFF;" d="M144.696,124.513c0,80.406,14.855,149.675,89.043,231.513H256V267.13l-89.043-142.618
	L144.696,124.513z"/>
<path style="fill:#FFF3AD;" d="M256,124.513l-22.261,104.626L256,333.765h12.268c64.006-73.417,76.776-132.796,76.776-209.252
	C345.043,124.513,256,124.513,256,124.513z"/>
<rect x="300.522" y="146.777" style="fill:#81982D;" width="22.261" height="22.261"/>
<rect x="278.261" y="191.299" style="fill:#63842C;" width="22.261" height="22.261"/>
<path style="fill:#FFFFFF;" d="M166.957,124.513c0,74.519,13.055,136.014,76.781,209.252H256V124.513
	C256,124.513,166.957,124.513,166.957,124.513z"/>
<rect x="192.557" y="169.038" style="fill:#BEC130;" width="22.261" height="22.261"/>
<g>
</g>
<g>
</g>
<g>
</g>
<g>
</g>
<g>
</g>
<g>
</g>
<g>
</g>
<g>
</g>
<g>
</g>
<g>
</g>
<g>
</g>
<g>
</g>
<g>
</g>
<g>
</g>
<g>
</g>
</svg>
