<?xml version="1.0" encoding="iso-8859-1"?>
<!-- Generator: Adobe Illustrator 19.0.0, SVG Export Plug-In . SVG Version: 6.00 Build 0)  -->
<svg version="1.1" id="Layer_1" xmlns="http://www.w3.org/2000/svg" xmlns:xlink="http://www.w3.org/1999/xlink" x="0px" y="0px"
	 viewBox="0 0 512 512" style="enable-background:new 0 0 512 512;" xml:space="preserve">
<path style="fill:#813115;" d="M512,256C512,114.615,397.385,0,256,0S0,114.615,0,256c0,107.084,65.756,198.794,159.085,236.998
	L512,256z"/>
<path style="fill:#692811;" d="M512,256L339.478,83.478L94.609,428.522l64.476,64.476C188.981,505.237,221.698,512,256,512
	C397.385,512,512,397.384,512,256z"/>
<polygon style="fill:#FFE376;" points="306.087,83.478 161.386,261.565 217.043,428.522 339.478,428.522 339.478,83.478 "/>
<polygon style="fill:#FFF3AD;" points="94.609,83.478 94.609,428.522 217.043,428.522 217.038,139.13 128,83.478 "/>
<polygon style="fill:#FFD23E;" points="217.043,83.478 194.783,205.913 317.217,139.13 317.217,83.478 "/>
<polygon style="fill:#FFE376;" points="116.87,83.478 116.87,139.13 217.043,205.913 217.043,83.478 "/>
<path style="fill:#FFF3AD;" d="M287.195,146.567c-5.683,2.842-10.173,5.085-20.068,5.085s-14.384-2.244-20.068-5.085
	c-6.625-3.312-14.869-7.434-30.014-7.436l-44.523,122.435L217.043,384h100.174V139.13
	C302.068,139.13,293.821,143.253,287.195,146.567z"/>
<path style="fill:#FFFFFF;" d="M217.038,139.13c-15.149,0-23.395,4.123-30.02,7.436c-5.682,2.842-10.17,5.085-20.063,5.085
	c-9.894,0-14.382-2.244-20.065-5.085c-6.626-3.314-14.872-7.436-30.021-7.436V384h100.168V139.13z"/>
<path style="fill:#B78456;" d="M339.478,183.652c67.608,0,122.435,54.826,122.435,122.435s-54.826,122.435-122.435,122.435
	l-48.974-122.435L339.478,183.652z"/>
<path style="fill:#C9A06C;" d="M339.478,183.652v244.87c-67.608,0-122.435-54.826-122.435-122.435S271.87,183.652,339.478,183.652z"
	/>
<path style="fill:#A56840;" d="M339.478,217.043c49.17,0,89.043,39.874,89.043,89.043s-39.874,89.043-89.043,89.043l-35.617-89.043
	L339.478,217.043z"/>
<g>
	<rect x="328.348" y="339.478" style="fill:#934D2B;" width="33.391" height="22.261"/>
	<rect x="361.739" y="294.957" style="fill:#934D2B;" width="22.261" height="22.261"/>
</g>
<path style="fill:#B78456;" d="M339.478,217.043V395.13c-49.17,0-89.043-39.874-89.043-89.043S290.308,217.043,339.478,217.043z"/>
<rect x="294.957" y="250.435" style="fill:#A56840;" width="22.261" height="22.261"/>
<g>
</g>
<g>
</g>
<g>
</g>
<g>
</g>
<g>
</g>
<g>
</g>
<g>
</g>
<g>
</g>
<g>
</g>
<g>
</g>
<g>
</g>
<g>
</g>
<g>
</g>
<g>
</g>
<g>
</g>
</svg>
