<?xml version="1.0" encoding="iso-8859-1"?>
<!-- Generator: Adobe Illustrator 19.0.0, SVG Export Plug-In . SVG Version: 6.00 Build 0)  -->
<svg version="1.1" id="Layer_1" xmlns="http://www.w3.org/2000/svg" xmlns:xlink="http://www.w3.org/1999/xlink" x="0px" y="0px"
	 viewBox="0 0 512 512" style="enable-background:new 0 0 512 512;" xml:space="preserve">
<path style="fill:#FA7461;" d="M502.02,185.015C471.245,78.163,372.755,0,256,0C114.616,0,0,114.616,0,256
	c0,116.754,78.163,215.244,185.015,246.019L502.02,185.015z"/>
<path style="fill:#F72E12;" d="M512,256c0-24.631-3.488-48.444-9.981-70.985L392.241,75.236L119.757,436.764l65.255,65.256
	C207.556,508.513,231.369,512,256,512C397.385,512,512,397.385,512,256z"/>
<path style="fill:#FFF3AD;" d="M411.826,122.435v267.13c0,36.82-29.963,66.783-66.783,66.783H256l-55.652-183.652L256,55.652h89.043
	C381.863,55.652,411.826,85.615,411.826,122.435z"/>
<path style="fill:#FFFFFF;" d="M256,55.652v400.696h-89.043c-36.819,0-66.783-29.963-66.783-66.783v-267.13
	c0-36.819,29.963-66.783,66.783-66.783H256z"/>
<path style="fill:#FFD23E;" d="M389.565,122.435v267.13c0,24.487-20.035,44.522-44.522,44.522H256l-55.652-161.391L256,77.913
	h89.043C369.53,77.913,389.565,97.948,389.565,122.435z"/>
<path style="fill:#FFE376;" d="M256,77.913v356.174h-89.043c-24.487,0-44.522-20.035-44.522-44.522v-267.13
	c0-24.487,20.035-44.522,44.522-44.522H256z"/>
<circle style="fill:#FFF3AD;" cx="256" cy="367.304" r="66.783"/>
<path style="fill:#FFE376;" d="M256,77.913l-33.391,66.783L256,211.478c36.883,0,66.783-29.9,66.783-66.783
	S292.883,77.913,256,77.913z"/>
<path style="fill:#FFF3AD;" d="M189.217,144.696c0,36.883,29.9,66.783,66.783,66.783V77.913
	C219.117,77.913,189.217,107.813,189.217,144.696z"/>
<path style="fill:#FFE376;" d="M322.783,105.739l-33.391,66.783l33.391,66.783c36.883,0,66.783-29.9,66.783-66.783
	S359.665,105.739,322.783,105.739z"/>
<path style="fill:#FFF3AD;" d="M256,172.522c0,36.883,29.9,66.783,66.783,66.783V105.739C285.9,105.739,256,135.639,256,172.522z"/>
<path style="fill:#FFE376;" d="M189.217,105.739l-33.391,66.783l33.391,66.783c36.883,0,66.783-29.9,66.783-66.783
	S226.1,105.739,189.217,105.739z"/>
<path style="fill:#FFF3AD;" d="M122.435,172.522c0,36.883,29.9,66.783,66.783,66.783V105.739
	C152.334,105.739,122.435,135.639,122.435,172.522z"/>
<path style="fill:#FFE376;" d="M322.783,189.217L289.391,256l33.391,66.783c36.883,0,66.783-29.9,66.783-66.783
	S359.665,189.217,322.783,189.217z"/>
<path style="fill:#FFF3AD;" d="M256,256c0,36.883,29.9,66.783,66.783,66.783V189.217C285.9,189.217,256,219.117,256,256z"/>
<path style="fill:#FFE376;" d="M189.217,189.217L155.826,256l33.391,66.783C226.1,322.783,256,292.883,256,256
	S226.1,189.217,189.217,189.217z"/>
<path style="fill:#FFF3AD;" d="M122.435,256c0,36.883,29.9,66.783,66.783,66.783V189.217
	C152.334,189.217,122.435,219.117,122.435,256z"/>
<path style="fill:#FFE376;" d="M256,300.522l-33.391,66.783L256,434.087c36.883,0,66.783-29.9,66.783-66.783
	S292.883,300.522,256,300.522z"/>
<path style="fill:#FFF3AD;" d="M189.217,367.304c0,36.883,29.9,66.783,66.783,66.783V300.522
	C219.117,300.522,189.217,330.421,189.217,367.304z"/>
<path style="fill:#FFE376;" d="M322.783,272.696l-33.391,66.783l33.391,66.783c36.883,0,66.783-29.9,66.783-66.783
	S359.665,272.696,322.783,272.696z"/>
<path style="fill:#FFF3AD;" d="M256,339.478c0,36.883,29.9,66.783,66.783,66.783V272.696C285.9,272.696,256,302.595,256,339.478z"/>
<path style="fill:#FFE376;" d="M189.217,272.696l-33.391,66.783l33.391,66.783c36.883,0,66.783-29.9,66.783-66.783
	S226.1,272.696,189.217,272.696z"/>
<path style="fill:#FFF3AD;" d="M122.435,339.478c0,36.883,29.9,66.783,66.783,66.783V272.696
	C152.334,272.696,122.435,302.595,122.435,339.478z"/>
<path style="fill:#F8513A;" d="M367.304,130.783L256,115.478l-111.304,15.304c0,16.905,13.704,30.609,30.609,30.609h8.348
	l11.13-11.13l11.13,11.13h38.957l11.13-11.13l11.13,11.13h38.957l11.13-11.13l11.13,11.13h8.348
	C353.601,161.391,367.304,147.688,367.304,130.783z"/>
<path style="fill:#FA7461;" d="M336.696,100.174h-8.348l-11.13,11.13l-11.13-11.13H267.13L256,112.696l-11.13-12.522h-38.957
	l-11.13,11.13l-11.13-11.13h-8.348c-16.905,0-30.609,13.704-30.609,30.609h222.609C367.304,113.878,353.601,100.174,336.696,100.174
	z"/>
<polygon style="fill:#F72E12;" points="328.348,130.783 328.348,161.391 306.087,161.391 306.087,130.783 317.217,115.478 "/>
<rect x="306.087" y="100.174" style="fill:#F8513A;" width="22.261" height="30.609"/>
<polygon style="fill:#F72E12;" points="267.13,130.783 267.13,161.391 244.87,161.391 244.87,130.783 256,115.478 "/>
<rect x="244.87" y="100.174" style="fill:#F8513A;" width="22.261" height="30.609"/>
<polygon style="fill:#F72E12;" points="205.913,130.783 205.913,161.391 183.652,161.391 183.652,130.783 194.783,115.478 "/>
<rect x="183.652" y="100.174" style="fill:#F8513A;" width="22.261" height="30.609"/>
<path style="fill:#C9A06C;" d="M367.304,214.261L256,198.957l-111.304,15.304c0,16.905,13.704,30.609,30.609,30.609h8.348
	l11.13-11.13l11.13,11.13h38.957l11.13-11.13l11.13,11.13h38.957l11.13-11.13l11.13,11.13h8.348
	C353.601,244.87,367.304,231.166,367.304,214.261z"/>
<path style="fill:#DBBC82;" d="M336.696,183.652h-8.348l-11.13,11.13l-11.13-11.13H267.13L256,196.174l-11.13-12.522h-38.957
	l-11.13,11.13l-11.13-11.13h-8.348c-16.905,0-30.609,13.704-30.609,30.609h222.609C367.304,197.356,353.601,183.652,336.696,183.652
	z"/>
<polygon style="fill:#B78456;" points="328.348,214.261 328.348,244.87 306.087,244.87 306.087,214.261 317.217,198.957 "/>
<rect x="306.087" y="183.652" style="fill:#C9A06C;" width="22.261" height="30.609"/>
<polygon style="fill:#B78456;" points="267.13,214.261 267.13,244.87 244.87,244.87 244.87,214.261 256,198.957 "/>
<rect x="244.87" y="183.652" style="fill:#C9A06C;" width="22.261" height="30.609"/>
<polygon style="fill:#B78456;" points="205.913,214.261 205.913,244.87 183.652,244.87 183.652,214.261 194.783,198.957 "/>
<g>
	<rect x="183.652" y="183.652" style="fill:#C9A06C;" width="22.261" height="30.609"/>
	<path style="fill:#C9A06C;" d="M367.304,381.217L256,365.913l-111.304,15.304c0,16.905,13.704,30.609,30.609,30.609h8.348
		l11.13-11.13l11.13,11.13h38.957l11.13-11.13l11.13,11.13h38.957l11.13-11.13l11.13,11.13h8.348
		C353.601,411.826,367.304,398.122,367.304,381.217z"/>
</g>
<path style="fill:#DBBC82;" d="M336.696,350.609h-8.348l-11.13,11.13l-11.13-11.13H267.13L256,363.13l-11.13-12.522h-38.957
	l-11.13,11.13l-11.13-11.13h-8.348c-16.905,0-30.609,13.704-30.609,30.609h222.609C367.304,364.312,353.601,350.609,336.696,350.609
	z"/>
<polygon style="fill:#B78456;" points="328.348,381.217 328.348,411.826 306.087,411.826 306.087,381.217 317.217,365.913 "/>
<rect x="306.087" y="350.609" style="fill:#C9A06C;" width="22.261" height="30.609"/>
<polygon style="fill:#B78456;" points="267.13,381.217 267.13,411.826 244.87,411.826 244.87,381.217 256,365.913 "/>
<rect x="244.87" y="350.609" style="fill:#C9A06C;" width="22.261" height="30.609"/>
<polygon style="fill:#B78456;" points="205.913,381.217 205.913,411.826 183.652,411.826 183.652,381.217 194.783,365.913 "/>
<rect x="183.652" y="350.609" style="fill:#C9A06C;" width="22.261" height="30.609"/>
<path style="fill:#F8513A;" d="M367.304,297.739L256,282.435l-111.304,15.304c0,16.905,13.704,30.609,30.609,30.609h8.348
	l11.13-11.13l11.13,11.13h38.957l11.13-11.13l11.13,11.13h38.957l11.13-11.13l11.13,11.13h8.348
	C353.601,328.348,367.304,314.644,367.304,297.739z"/>
<path style="fill:#FA7461;" d="M336.696,267.13h-8.348l-11.13,11.13l-11.13-11.13H267.13L256,279.652l-11.13-12.522h-38.957
	l-11.13,11.13l-11.13-11.13h-8.348c-16.905,0-30.609,13.704-30.609,30.609h222.609C367.304,280.834,353.601,267.13,336.696,267.13z"
	/>
<polygon style="fill:#F72E12;" points="328.348,297.739 328.348,328.348 306.087,328.348 306.087,297.739 317.217,282.435 "/>
<rect x="306.087" y="267.13" style="fill:#F8513A;" width="22.261" height="30.609"/>
<polygon style="fill:#F72E12;" points="267.13,297.739 267.13,328.348 244.87,328.348 244.87,297.739 256,282.435 "/>
<rect x="244.87" y="267.13" style="fill:#F8513A;" width="22.261" height="30.609"/>
<polygon style="fill:#F72E12;" points="205.913,297.739 205.913,328.348 183.652,328.348 183.652,297.739 194.783,282.435 "/>
<rect x="183.652" y="267.13" style="fill:#F8513A;" width="22.261" height="30.609"/>
<g>
</g>
<g>
</g>
<g>
</g>
<g>
</g>
<g>
</g>
<g>
</g>
<g>
</g>
<g>
</g>
<g>
</g>
<g>
</g>
<g>
</g>
<g>
</g>
<g>
</g>
<g>
</g>
<g>
</g>
</svg>
