<?xml version="1.0" encoding="iso-8859-1"?>
<!-- Generator: Adobe Illustrator 19.0.0, SVG Export Plug-In . SVG Version: 6.00 Build 0)  -->
<svg version="1.1" id="Layer_1" xmlns="http://www.w3.org/2000/svg" xmlns:xlink="http://www.w3.org/1999/xlink" x="0px" y="0px"
	 viewBox="0 0 512 512" style="enable-background:new 0 0 512 512;" xml:space="preserve">
<path style="fill:#F8513A;" d="M502.801,187.809C472.949,79.53,373.769,0,256,0C114.616,0,0,114.616,0,256
	c0,121.003,83.957,222.386,196.793,249.105L502.801,187.809z"/>
<path style="fill:#D92444;" d="M512,256c0-23.615-3.213-46.477-9.199-68.191L400.696,85.704l-75.079,75.079L212.536,47.703
	l-78.97,394.175l63.226,63.226C215.798,509.606,235.618,512,256,512C397.384,512,512,397.384,512,256z"/>
<polygon style="fill:#FFF3AD;" points="378.378,85.704 222.609,263.791 256,441.878 378.435,441.878 378.435,397.357 
	400.696,85.704 "/>
<polygon style="fill:#FFFFFF;" points="133.622,85.704 111.304,85.704 133.565,397.357 133.565,441.878 256,441.878 256,263.791 "/>
<path style="fill:#C9A06C;" d="M256,85.704v22.261V85.704z"/>
<polygon style="fill:#FCB9B0;" points="378.378,85.704 256,85.704 233.739,252.661 374.403,141.357 "/>
<polygon style="fill:#FFF3AD;" points="133.622,85.704 137.597,141.357 256,252.661 256,85.704 "/>
<path style="fill:#D92444;" d="M315.198,154.713c-29.6,0-29.603-13.354-59.198-13.357l-22.261,128l22.261,128h100.117l18.286-256
	C344.801,141.357,344.801,154.713,315.198,154.713z"/>
<path style="fill:#F72E12;" d="M255.993,141.357c-29.598,0-29.598,13.357-59.197,13.357s-29.599-13.357-59.199-13.357l18.286,256
	H256C256,397.357,256,141.357,255.993,141.357z"/>
<polygon style="fill:#692811;" points="174.534,151.125 174.534,363.965 207.925,363.965 207.925,128.864 "/>
<path style="fill:#813115;" d="M207.925,153.953V63.443h-33.391v87.681c5.55,2.04,12.191,3.588,22.262,3.588
	C201.068,154.713,204.709,154.428,207.925,153.953z"/>
<polygon style="fill:#521F0E;" points="196.796,139.995 196.795,363.965 219.056,363.965 219.056,151.126 "/>
<path style="fill:#692811;" d="M219.056,151.126V63.443h-22.261v91.27C206.866,154.713,213.506,153.165,219.056,151.126z"/>
<path style="fill:#220D06;" d="M196.795,41.183l-11.13,22.261l11.13,22.261c12.295,0,22.261-9.966,22.261-22.261
	S209.09,41.183,196.795,41.183z"/>
<path style="fill:#521F0E;" d="M174.534,63.443c0,12.295,9.966,22.261,22.261,22.261V41.183
	C184.5,41.183,174.534,51.149,174.534,63.443z"/>
<path style="fill:#F8513A;" d="M329.008,188.345l-15.741,15.742L244.87,374.155L256,396.591c26.673-2.956,52.56-14.65,73.008-35.098
	C376.814,313.687,376.814,236.151,329.008,188.345z"/>
<path style="fill:#FDA409;" d="M171.599,345.754l-15.741,15.741c27.359,27.359,64.453,39.052,100.142,35.098v-22.436
	L171.599,345.754z"/>
<path style="fill:#FEDCD7;" d="M313.267,204.085l-15.741,15.741v11.13L256,261.352l-22.261,56.401L256,374.154
	c20.947-2.848,41.168-12.305,57.267-28.403C352.381,306.639,352.381,243.2,313.267,204.085z"/>
<path style="fill:#FFFFFF;" d="M171.599,345.754c23.016,23.016,54.452,32.472,84.401,28.403V261.352l-29.308,29.309l-28.221,39.352
	h-11.13L171.599,345.754z"/>
<path style="fill:#FA690E;" d="M211.724,346.522l14.968-55.861l-39.352,39.352C194.567,337.24,202.869,342.728,211.724,346.522z"/>
<g>
	<path style="fill:#F72E12;" d="M297.525,219.827l-39.352,39.352l55.861-14.968C310.242,235.355,304.752,227.054,297.525,219.827z"
		/>
	<path style="fill:#F72E12;" d="M304.827,321.573c12.267-16.366,17.245-36.456,14.95-55.855l-55.843,14.963L304.827,321.573z"/>
</g>
<path style="fill:#FA690E;" d="M248.194,296.421l-14.963,55.844c7.573,0.896,15.249,0.667,22.768-0.654v-47.382L248.194,296.421z"/>
<path style="fill:#F72E12;" d="M256,304.228v47.382c11.745-2.065,23.109-6.819,33.086-14.297L256,304.228z"/>
<g>
</g>
<g>
</g>
<g>
</g>
<g>
</g>
<g>
</g>
<g>
</g>
<g>
</g>
<g>
</g>
<g>
</g>
<g>
</g>
<g>
</g>
<g>
</g>
<g>
</g>
<g>
</g>
<g>
</g>
</svg>
