<?xml version="1.0" encoding="iso-8859-1"?>
<!-- Generator: Adobe Illustrator 19.0.0, SVG Export Plug-In . SVG Version: 6.00 Build 0)  -->
<svg version="1.1" id="Layer_1" xmlns="http://www.w3.org/2000/svg" xmlns:xlink="http://www.w3.org/1999/xlink" x="0px" y="0px"
	 viewBox="0 0 512 512" style="enable-background:new 0 0 512 512;" xml:space="preserve">
<path style="fill:#B78456;" d="M507.374,207.409C484.67,89.264,380.769,0,256,0C114.616,0,0,114.615,0,256
	c0,113.386,73.722,209.54,175.843,243.182L507.374,207.409z"/>
<path style="fill:#A56840;" d="M512,256c0-16.617-1.602-32.857-4.626-48.591l-84.418-84.418l-25.323,8.068l-63.721-63.721
	L256,356.73L55.652,378.991l120.191,120.191C201.06,507.49,228.001,512,256,512C397.384,512,512,397.384,512,256z"/>
<polygon style="fill:#FFE376;" points="422.957,378.991 400.696,417.948 256,417.948 234.296,367.861 "/>
<polygon style="fill:#FFF3AD;" points="111.304,417.948 256,417.948 256,367.861 89.043,378.991 "/>
<polygon style="fill:#DBBC82;" points="422.957,156.383 422.957,189.774 233.739,200.904 233.739,134.122 "/>
<polygon style="fill:#FFF3AD;" points="256,134.122 256,200.904 89.043,189.774 89.043,156.383 "/>
<polygon style="fill:#FFD23E;" points="333.913,67.339 333.913,122.991 247.096,134.122 256,67.339 "/>
<polygon style="fill:#FFE376;" points="256,67.339 256,134.122 178.087,122.991 178.087,67.339 "/>
<polygon style="fill:#C9A06C;" points="422.957,189.774 422.957,223.165 233.739,234.296 256,189.774 "/>
<polygon style="fill:#DBBC82;" points="256,189.774 256,234.296 89.043,223.165 89.043,189.774 "/>
<polygon style="fill:#B78456;" points="422.957,223.165 422.957,256.557 233.739,267.687 256,223.165 "/>
<polygon style="fill:#C9A06C;" points="256,223.165 256,267.687 89.043,256.557 89.043,223.165 "/>
<polygon style="fill:#DBBC82;" points="422.957,256.557 422.957,289.948 233.739,301.078 256,256.557 "/>
<polygon style="fill:#FFF3AD;" points="256,256.557 256,301.078 89.043,289.948 89.043,256.557 "/>
<polygon style="fill:#B78456;" points="422.957,289.948 422.957,323.339 233.739,334.47 256,289.948 "/>
<g>
	<polygon style="fill:#C9A06C;" points="256,289.948 256,334.47 89.043,323.339 89.043,289.948 	"/>
	<polygon style="fill:#C9A06C;" points="422.957,323.339 422.957,356.73 233.739,367.861 256,323.339 	"/>
</g>
<polygon style="fill:#DBBC82;" points="256,323.339 256,367.861 89.043,356.73 89.043,323.339 "/>
<polygon style="fill:#FFD23E;" points="456.348,356.73 456.348,378.991 256,378.991 245.009,367.861 256,356.73 "/>
<rect x="55.652" y="356.73" style="fill:#FFE376;" width="200.348" height="22.261"/>
<path style="fill:#692811;" d="M422.957,122.991H256l-11.13,72.348L256,289.948c12.295,0,22.261-9.966,22.261-22.261v-77.913h22.261
	v16.696c0,9.22,7.475,16.696,16.696,16.696s16.696-7.475,16.696-16.696v-50.087h22.261v50.087c0,9.22,7.475,16.696,16.696,16.696
	c9.22,0,16.696-7.475,16.696-16.696v-50.087h33.391V122.991z"/>
<path style="fill:#813115;" d="M89.043,122.991v33.391h33.391v50.087c0,9.22,7.475,16.696,16.696,16.696
	c9.22,0,16.696-7.475,16.696-16.696v-50.087h77.913v111.304c0,12.295,9.966,22.261,22.261,22.261V122.991H89.043z"/>
<g>
</g>
<g>
</g>
<g>
</g>
<g>
</g>
<g>
</g>
<g>
</g>
<g>
</g>
<g>
</g>
<g>
</g>
<g>
</g>
<g>
</g>
<g>
</g>
<g>
</g>
<g>
</g>
<g>
</g>
</svg>
