<?xml version="1.0" encoding="iso-8859-1"?>
<!-- Generator: Adobe Illustrator 19.0.0, SVG Export Plug-In . SVG Version: 6.00 Build 0)  -->
<svg version="1.1" id="Layer_1" xmlns="http://www.w3.org/2000/svg" xmlns:xlink="http://www.w3.org/1999/xlink" x="0px" y="0px"
	 viewBox="0 0 512 512" style="enable-background:new 0 0 512 512;" xml:space="preserve">
<path style="fill:#DBBC82;" d="M511.313,274.758C511.762,268.563,512,262.31,512,256C512,114.616,397.385,0,256,0
	C114.616,0,0,114.616,0,256c0,119.144,81.394,219.272,191.607,247.828L511.313,274.758z"/>
<path style="fill:#C9A06C;" d="M511.313,274.758L360.504,123.95L44.514,356.735l147.093,147.093
	C212.182,509.159,233.758,512,256,512C391.076,512,501.707,407.384,511.313,274.758z"/>
<path style="fill:#813115;" d="M286.606,250.996l30.609,83.478c33.81,0,61.217-27.408,61.217-61.217L286.606,250.996z"/>
<path style="fill:#934D2B;" d="M255.998,273.257c0,33.81,27.408,61.217,61.217,61.217v-83.478L255.998,273.257z"/>
<path style="fill:#F72E12;" d="M317.215,212.039l-22.261,35.896l22.261,25.322c9.261,0,14.291,2.515,18.343,4.541
	c3.473,1.736,6.211,3.117,12.266,3.117c6.044,0,8.793-1.38,12.266-3.117c4.04-2.026,9.082-4.541,18.343-4.541
	C378.433,239.442,351.029,212.039,317.215,212.039z"/>
<path style="fill:#F94C10;" d="M255.998,273.257c9.261,0,14.291,2.515,18.343,4.541c3.473,1.736,6.211,3.117,12.266,3.117
	c6.044,0,8.793-1.38,12.266-3.117c4.04-2.026,9.082-4.541,18.343-4.541v-61.217C283.401,212.039,255.998,239.442,255.998,273.257z"
	/>
<path style="fill:#813115;" d="M164.161,250.996l30.609,83.478c33.81,0,61.217-27.408,61.217-61.217L164.161,250.996z"/>
<path style="fill:#934D2B;" d="M133.552,273.257c0,33.81,27.408,61.217,61.217,61.217v-83.478L133.552,273.257z"/>
<path style="fill:#F72E12;" d="M194.769,212.039l-22.261,35.896l22.261,25.322c9.261,0,14.291,2.515,18.343,4.541
	c3.473,1.736,6.211,3.117,12.266,3.117c6.044,0,8.793-1.38,12.266-3.117c4.04-2.026,9.082-4.541,18.343-4.541
	C255.987,239.442,228.583,212.039,194.769,212.039z"/>
<path style="fill:#F94C10;" d="M133.552,273.257c9.261,0,14.291,2.515,18.343,4.541c3.473,1.736,6.211,3.117,12.266,3.117
	c6.044,0,8.793-1.38,12.266-3.117c4.04-2.026,9.082-4.541,18.343-4.541v-61.217C160.955,212.039,133.552,239.442,133.552,273.257z"
	/>
<path style="fill:#813115;" d="M225.389,144.977l30.609,83.478c33.81,0,61.217-27.408,61.217-61.217L225.389,144.977z"/>
<path style="fill:#934D2B;" d="M194.78,167.238c0,33.81,27.408,61.217,61.217,61.217v-83.478L194.78,167.238z"/>
<path style="fill:#F72E12;" d="M255.998,106.021l-22.261,35.896l22.261,25.322c9.261,0,14.291,2.515,18.343,4.541
	c3.473,1.736,6.211,3.117,12.266,3.117c6.044,0,8.793-1.38,12.266-3.117c4.04-2.026,9.082-4.541,18.343-4.541
	C317.215,133.424,289.812,106.021,255.998,106.021z"/>
<path style="fill:#F94C10;" d="M194.78,167.238c9.261,0,14.291,2.515,18.343,4.541c3.473,1.736,6.211,3.117,12.266,3.117
	c6.044,0,8.793-1.38,12.266-3.117c4.04-2.026,9.082-4.541,18.343-4.541v-61.217C222.184,106.021,194.78,133.424,194.78,167.238z"/>
<path style="fill:#813115;" d="M347.824,250.996l30.609,83.478c33.81,0,61.217-27.408,61.217-61.217L347.824,250.996z"/>
<path style="fill:#934D2B;" d="M317.215,273.257c0,33.81,27.408,61.217,61.217,61.217v-83.478L317.215,273.257z"/>
<path style="fill:#F72E12;" d="M378.433,212.039l-22.261,35.896l22.261,25.322c9.261,0,14.291,2.515,18.343,4.541
	c3.473,1.736,6.211,3.117,12.266,3.117c6.044,0,8.793-1.38,12.266-3.117c4.04-2.026,9.082-4.541,18.343-4.541
	C439.65,239.442,412.247,212.039,378.433,212.039z"/>
<path style="fill:#F94C10;" d="M317.215,273.257c9.261,0,14.291,2.515,18.343,4.541c3.473,1.736,6.211,3.117,12.266,3.117
	c6.044,0,8.793-1.38,12.266-3.117c4.04-2.026,9.082-4.541,18.343-4.541v-61.217C344.618,212.039,317.215,239.442,317.215,273.257z"
	/>
<path style="fill:#813115;" d="M225.389,250.996l30.609,83.478c33.81,0,61.217-27.408,61.217-61.217L225.389,250.996z"/>
<path style="fill:#934D2B;" d="M194.78,273.257c0,33.81,27.408,61.217,61.217,61.217v-83.478L194.78,273.257z"/>
<path style="fill:#F72E12;" d="M255.998,212.039l-22.261,35.896l22.261,25.322c9.261,0,14.291,2.515,18.343,4.541
	c3.473,1.736,6.211,3.117,12.266,3.117c6.044,0,8.793-1.38,12.266-3.117c4.04-2.026,9.082-4.541,18.343-4.541
	C317.215,239.442,289.812,212.039,255.998,212.039z"/>
<path style="fill:#F94C10;" d="M194.78,273.257c9.261,0,14.291,2.515,18.343,4.541c3.473,1.736,6.211,3.117,12.266,3.117
	c6.044,0,8.793-1.38,12.266-3.117c4.04-2.026,9.082-4.541,18.343-4.541v-61.217C222.184,212.039,194.78,239.442,194.78,273.257z"/>
<path style="fill:#813115;" d="M102.954,250.996l30.609,83.478c33.81,0,61.217-27.408,61.217-61.217L102.954,250.996z"/>
<path style="fill:#934D2B;" d="M72.346,273.257c0,33.81,27.408,61.217,61.217,61.217v-83.478L72.346,273.257z"/>
<path style="fill:#F72E12;" d="M133.563,212.039l-22.261,35.896l22.261,25.322c9.261,0,14.291,2.515,18.343,4.541
	c3.473,1.736,6.211,3.117,12.266,3.117c6.044,0,8.793-1.38,12.266-3.117c4.04-2.026,9.082-4.541,18.343-4.541
	C194.78,239.442,167.377,212.039,133.563,212.039z"/>
<path style="fill:#F94C10;" d="M72.346,273.257c9.261,0,14.291,2.515,18.343,4.541c3.473,1.736,6.211,3.117,12.266,3.117
	c6.044,0,8.793-1.38,12.266-3.117c4.04-2.026,9.082-4.541,18.343-4.541v-61.217C99.749,212.039,72.346,239.442,72.346,273.257z"/>
<path style="fill:#813115;" d="M164.161,144.977l30.609,83.478c33.81,0,61.217-27.408,61.217-61.217L164.161,144.977z"/>
<path style="fill:#934D2B;" d="M133.552,167.238c0,33.81,27.408,61.217,61.217,61.217v-83.478L133.552,167.238z"/>
<path style="fill:#F72E12;" d="M194.769,106.021l-22.261,35.896l22.261,25.322c9.261,0,14.291,2.515,18.343,4.541
	c3.473,1.736,6.211,3.117,12.266,3.117c6.044,0,8.793-1.38,12.266-3.117c4.04-2.026,9.082-4.541,18.343-4.541
	C255.987,133.424,228.583,106.021,194.769,106.021z"/>
<path style="fill:#F94C10;" d="M133.552,167.238c9.261,0,14.291,2.515,18.343,4.541c3.473,1.736,6.211,3.117,12.266,3.117
	c6.044,0,8.793-1.38,12.266-3.117c4.04-2.026,9.082-4.541,18.343-4.541v-61.217C160.955,106.021,133.552,133.424,133.552,167.238z"
	/>
<path style="fill:#813115;" d="M286.606,144.977l30.609,83.478c33.81,0,61.217-27.408,61.217-61.217L286.606,144.977z"/>
<path style="fill:#934D2B;" d="M255.998,167.238c0,33.81,27.408,61.217,61.217,61.217v-83.478L255.998,167.238z"/>
<path style="fill:#F72E12;" d="M317.215,106.021l-22.261,35.896l22.261,25.322c9.261,0,14.291,2.515,18.343,4.541
	c3.473,1.736,6.211,3.117,12.266,3.117c6.044,0,8.793-1.38,12.266-3.117c4.04-2.026,9.082-4.541,18.343-4.541
	C378.433,133.424,351.029,106.021,317.215,106.021z"/>
<path style="fill:#F94C10;" d="M255.998,167.238c9.261,0,14.291,2.515,18.343,4.541c3.473,1.736,6.211,3.117,12.266,3.117
	c6.044,0,8.793-1.38,12.266-3.117c4.04-2.026,9.082-4.541,18.343-4.541v-61.217C283.401,106.021,255.998,133.424,255.998,167.238z"
	/>
<path style="fill:#FA690E;" d="M89.043,367.865l-16.696-33.391l16.696-33.391c18.441,0,33.391,14.949,33.391,33.391
	S107.485,367.865,89.043,367.865z"/>
<path style="fill:#FC870B;" d="M55.652,334.474c0-18.442,14.95-33.391,33.391-33.391v55.652L55.652,334.474z"/>
<circle style="fill:#F94C10;" cx="89.043" cy="334.47" r="11.13"/>
<path style="fill:#FA690E;" d="M155.826,367.865l-16.696-33.391l16.696-33.391c18.441,0,33.391,14.949,33.391,33.391
	S174.268,367.865,155.826,367.865z"/>
<path style="fill:#FC870B;" d="M122.435,334.474c0-18.442,14.95-33.391,33.391-33.391v66.783
	C137.385,367.865,122.435,352.916,122.435,334.474z"/>
<circle style="fill:#F94C10;" cx="155.826" cy="334.47" r="11.13"/>
<path style="fill:#FA690E;" d="M222.609,367.865l-16.696-33.391l16.696-33.391c18.441,0,33.391,14.949,33.391,33.391
	S241.051,367.865,222.609,367.865z"/>
<path style="fill:#FC870B;" d="M189.217,334.474c0-18.442,14.95-33.391,33.391-33.391v66.783
	C204.168,367.865,189.217,352.916,189.217,334.474z"/>
<circle style="fill:#F94C10;" cx="222.609" cy="334.47" r="11.13"/>
<path style="fill:#FA690E;" d="M289.391,367.865l-16.696-33.391l16.696-33.391c18.441,0,33.391,14.949,33.391,33.391
	S307.833,367.865,289.391,367.865z"/>
<path style="fill:#FC870B;" d="M256,334.474c0-18.442,14.95-33.391,33.391-33.391v66.783C270.95,367.865,256,352.916,256,334.474z"
	/>
<circle style="fill:#F94C10;" cx="289.391" cy="334.47" r="11.13"/>
<path style="fill:#FA690E;" d="M356.174,367.865l-16.696-33.391l16.696-33.391c18.441,0,33.391,14.949,33.391,33.391
	S374.616,367.865,356.174,367.865z"/>
<path style="fill:#FC870B;" d="M322.783,334.474c0-18.442,14.95-33.391,33.391-33.391v66.783
	C337.733,367.865,322.783,352.916,322.783,334.474z"/>
<circle style="fill:#F94C10;" cx="356.174" cy="334.47" r="11.13"/>
<path style="fill:#FA690E;" d="M422.957,301.083l-16.696,55.652l50.087-22.261C456.348,316.033,441.399,301.083,422.957,301.083z"/>
<path style="fill:#FC870B;" d="M389.565,334.474c0-18.442,14.95-33.391,33.391-33.391v66.783
	C404.516,367.865,389.565,352.916,389.565,334.474z"/>
<circle style="fill:#F94C10;" cx="422.957" cy="334.47" r="11.13"/>
<polygon style="fill:#FFE376;" points="434.079,356.735 411.818,395.691 255.992,395.691 234.288,345.604 "/>
<g>
	<polygon style="fill:#FFF3AD;" points="100.166,395.691 255.992,395.691 255.992,345.604 77.905,356.735 	"/>
	<polygon style="fill:#FFF3AD;" points="467.47,334.474 467.47,356.735 255.992,356.735 245.001,345.604 255.992,334.474 	"/>
</g>
<rect x="44.514" y="334.47" style="fill:#FFFFFF;" width="211.478" height="22.261"/>
<g>
</g>
<g>
</g>
<g>
</g>
<g>
</g>
<g>
</g>
<g>
</g>
<g>
</g>
<g>
</g>
<g>
</g>
<g>
</g>
<g>
</g>
<g>
</g>
<g>
</g>
<g>
</g>
<g>
</g>
</svg>
