<?xml version="1.0" encoding="iso-8859-1"?>
<!-- Generator: Adobe Illustrator 19.0.0, SVG Export Plug-In . SVG Version: 6.00 Build 0)  -->
<svg version="1.1" id="Layer_1" xmlns="http://www.w3.org/2000/svg" xmlns:xlink="http://www.w3.org/1999/xlink" x="0px" y="0px"
	 viewBox="0 0 512 512" style="enable-background:new 0 0 512 512;" xml:space="preserve">
<path style="fill:#FC870B;" d="M77.913,128v194.783H256V128C166.957,128,166.957,128,77.913,128z"/>
<path style="fill:#FA690E;" d="M511.979,254.36C511.095,113.732,396.837,0.001,256,0C114.616,0,0,114.616,0,256
	c0,124.526,88.917,228.267,206.72,251.242L511.979,254.36z"/>
<path style="fill:#F94C10;" d="M512,256c0-0.548-0.018-1.092-0.021-1.64l-73.222-73.222l-20.476,20.474l-98.205-98.205
	L201.85,160.089l-51.433,162.694L44.522,345.043L206.72,507.242C222.669,510.353,239.142,512,256,512
	C397.384,512,512,397.384,512,256z"/>
<polygon style="fill:#FFE376;" points="320.077,103.408 256,110.173 244.87,132.558 256,177.203 325.642,156.128 "/>
<polygon style="fill:#FFF3AD;" points="187.25,117.431 192.815,170.15 256,177.203 256,110.173 "/>
<path style="fill:#FFC207;" d="M455.958,225.414c-0.767-8.337-6.054-15.171-13.2-18.321c3.584-6.945,3.406-15.571-1.225-22.55
	c-4.618-6.957-12.488-10.485-20.256-9.884c-0.112-7.802-4.331-15.328-11.687-19.3c-7.357-3.974-15.973-3.384-22.573,0.823
	c-3.774-6.823-11.041-11.453-19.4-11.485h-0.313c-7.179,0-13.568,3.395-17.631,8.671c-4.486-4.107-10.631-6.378-17.163-5.754
	c-6.468,0.623-12.022,3.94-15.651,8.747c-4.474-4.029-10.551-6.243-17.018-5.632c-6.467,0.623-12.021,3.94-15.649,8.747
	c-4.476-4.028-10.552-6.243-17.018-5.621c-4.203,0.398-8.02,1.953-11.175,4.311l-22.261,81.72l22.261,81.72
	c3.581-1.215,6.756-3.312,9.259-6.036c4.063,4.43,9.906,7.213,16.406,7.213c6.489,0,12.333-2.783,16.395-7.213
	c4.074,4.43,9.917,7.213,16.406,7.213c6.5,0,12.344-2.783,16.405-7.213c4.074,4.43,9.917,7.213,16.406,7.213
	c6.778,0,12.845-3.029,16.929-7.791c5.042,5.075,12.455,7.634,20.013,6.177c8.225-1.581,14.514-7.502,16.951-14.926
	c7.258,2.883,15.816,1.859,22.305-3.417c6.478-5.275,9.227-13.433,7.88-21.124c7.758-0.868,14.837-5.799,18.076-13.512
	c3.239-7.715,1.803-16.228-3.029-22.373C452.831,241.397,456.737,233.728,455.958,225.414z"/>
<path style="fill:#FFD23E;" d="M251.537,162.593c-4.476-4.029-10.552-6.244-17.018-5.622c-6.468,0.613-12.022,3.94-15.651,8.739
	c-4.474-4.029-10.551-6.244-17.018-5.621c-6.456,0.612-12.01,3.94-15.638,8.737c-4.474-4.029-10.552-6.244-17.018-5.621
	c-6.467,0.612-12.021,3.94-15.649,8.737c-4.476-4.029-10.552-6.233-17.018-5.621c-7.469,0.712-13.724,5.042-17.197,11.097
	c-6.656-4.419-15.461-5.098-22.962-1.012c-7.657,4.162-11.886,12.153-11.619,20.301c-8.147-0.156-16.095,4.186-20.156,11.888
	c-4.063,7.723-3.139,16.74,1.625,23.374c-6.856,4.395-11.043,12.42-10.14,21.08c0.913,8.671,6.689,15.661,14.336,18.532
	c-3.261,7.48-2.282,16.484,3.306,23.172c5.577,6.69,14.248,9.272,22.194,7.413c1.436,8.047,7.268,14.994,15.627,17.454
	c7.858,2.303,15.972,0.089,21.537-5.142c4.085,5.064,10.329,8.303,17.341,8.303c6.489,0,12.333-2.783,16.406-7.213
	c4.063,4.43,9.917,7.213,16.406,7.213c6.489,0,12.333-2.783,16.405-7.213c4.063,4.43,9.906,7.213,16.406,7.213
	c6.489,0,12.333-2.783,16.406-7.213c4.063,4.43,9.906,7.213,16.406,7.213c2.5,0,4.902-0.416,7.146-1.178V158.166
	C254.308,159.429,252.803,160.919,251.537,162.593z"/>
<path style="fill:#FFC207;" d="M455.958,225.414c-0.767-8.337-6.054-15.171-13.2-18.321c3.584-6.945,3.406-15.571-1.225-22.55
	c-4.618-6.957-12.488-10.485-20.256-9.884c-0.112-7.802-4.331-15.328-11.687-19.3c-7.357-3.974-15.973-3.384-22.573,0.823
	c-3.774-6.823-11.041-11.453-19.4-11.485h-0.313c-7.179,0-13.568,3.395-17.631,8.671c-4.486-4.107-10.631-6.378-17.163-5.754
	c-6.468,0.623-12.022,3.94-15.651,8.747c-4.316-3.888-10.128-6.077-16.339-5.678l-11.129,32.971l-11.13-28.011
	c-3.37-1.489-7.155-2.164-11.086-1.785c-4.203,0.398-8.019,1.953-11.175,4.311l-22.261,81.72L256,321.606
	c3.581-1.215,6.756-3.312,9.259-6.036c4.063,4.43,9.906,7.213,16.406,7.213c6.489,0,12.333-2.783,16.395-7.213
	c4.074,4.43,9.917,7.213,16.406,7.213c6.5,0,12.344-2.783,16.405-7.213c4.074,4.43,9.917,7.213,16.406,7.213
	c6.778,0,12.845-3.029,16.929-7.791c5.042,5.075,12.455,7.634,20.013,6.177c8.225-1.581,14.514-7.502,16.951-14.926
	c7.258,2.883,15.816,1.859,22.305-3.417c6.478-5.275,9.227-13.433,7.88-21.124c7.758-0.868,14.837-5.799,18.076-13.512
	c3.239-7.715,1.803-16.228-3.029-22.373C452.831,241.397,456.737,233.728,455.958,225.414z"/>
<path style="fill:#FFD23E;" d="M251.537,162.593c-4.476-4.029-10.552-6.244-17.018-5.622c-0.263,0.024-0.52,0.061-0.779,0.095
	l-11.13,26.586l-11.13-22.361c-2.99-1.074-6.254-1.527-9.628-1.202c-6.456,0.612-12.01,3.94-15.638,8.737
	c-4.474-4.029-10.552-6.244-17.018-5.621c-6.467,0.612-12.021,3.94-15.649,8.737c-4.476-4.029-10.552-6.233-17.018-5.621
	c-7.469,0.712-13.724,5.042-17.197,11.097c-6.656-4.419-15.461-5.098-22.962-1.012c-7.658,4.162-11.887,12.153-11.62,20.301
	c-8.147-0.156-16.095,4.186-20.156,11.888c-4.063,7.723-3.139,16.74,1.625,23.374c-6.856,4.395-11.043,12.42-10.14,21.08
	c0.913,8.671,6.689,15.661,14.336,18.532c-3.261,7.48-2.282,16.484,3.306,23.172c5.577,6.69,14.248,9.272,22.194,7.413
	c1.436,8.047,7.268,14.994,15.627,17.454c7.858,2.303,15.972,0.089,21.537-5.142c4.085,5.064,10.329,8.303,17.341,8.303
	c6.489,0,12.333-2.783,16.406-7.213c4.063,4.43,9.917,7.213,16.406,7.213c6.489,0,12.333-2.783,16.405-7.213
	c4.063,4.43,9.906,7.213,16.406,7.213c6.489,0,12.333-2.783,16.406-7.213c4.063,4.43,9.906,7.213,16.406,7.213
	c2.5,0,4.902-0.416,7.146-1.178V158.166C254.308,159.429,252.803,160.919,251.537,162.593z"/>
<path style="fill:#FFE376;" d="M233.739,157.066c-6.133,0.798-11.39,4.04-14.87,8.644c-2.14-1.927-4.649-3.434-7.391-4.419v33.491
	c0,6.146,4.983,11.13,11.13,11.13c6.147,0,11.13-4.984,11.13-11.13V157.066z"/>
<path style="fill:#FFD23E;" d="M300.522,150.683c-0.226,0.014-0.452,0.023-0.679,0.046c-6.467,0.623-12.021,3.94-15.649,8.747
	c-1.754-1.579-3.759-2.875-5.933-3.834v61.402c0,6.146,4.983,11.13,11.13,11.13c6.147,0,11.13-4.984,11.13-11.13V150.683z"/>
<path style="fill:#FFE376;" d="M133.565,200.348l-26.713,44.522l26.713,44.522c24.588,0,44.522-19.934,44.522-44.522
	S158.155,200.348,133.565,200.348z"/>
<path style="fill:#FFF3AD;" d="M89.043,244.87c0,24.588,19.933,44.522,44.522,44.522v-89.043
	C108.977,200.348,89.043,220.281,89.043,244.87z"/>
<rect x="200.348" y="278.261" style="fill:#FFC207;" width="22.261" height="22.261"/>
<g>
	<rect x="311.652" y="278.261" style="fill:#FDA409;" width="22.261" height="22.261"/>
	<rect x="278.261" y="244.87" style="fill:#FDA409;" width="22.261" height="22.261"/>
</g>
<rect x="378.435" y="189.217" style="fill:#FC870B;" width="22.261" height="22.261"/>
<polygon style="fill:#FFE376;" points="434.087,345.043 411.826,384 256,384 234.296,339.478 "/>
<g>
	<polygon style="fill:#FFF3AD;" points="100.174,384 256,384 256,333.913 77.913,345.043 	"/>
	<polygon style="fill:#FFF3AD;" points="256,322.783 245.009,333.913 256,345.043 467.478,345.043 467.478,322.783 	"/>
</g>
<rect x="44.522" y="322.783" style="fill:#FFFFFF;" width="211.478" height="22.261"/>
<g>
</g>
<g>
</g>
<g>
</g>
<g>
</g>
<g>
</g>
<g>
</g>
<g>
</g>
<g>
</g>
<g>
</g>
<g>
</g>
<g>
</g>
<g>
</g>
<g>
</g>
<g>
</g>
<g>
</g>
</svg>
