<?xml version="1.0" encoding="iso-8859-1"?>
<!-- Generator: Adobe Illustrator 19.0.0, SVG Export Plug-In . SVG Version: 6.00 Build 0)  -->
<svg version="1.1" id="Layer_1" xmlns="http://www.w3.org/2000/svg" xmlns:xlink="http://www.w3.org/1999/xlink" x="0px" y="0px"
	 viewBox="0 0 512 512" style="enable-background:new 0 0 512 512;" xml:space="preserve">
<path style="fill:#63842C;" d="M511.691,243.447C505.145,107.894,393.176,0,256,0C114.615,0,0,114.616,0,256
	c0,110.202,69.638,204.134,167.306,240.21L511.691,243.447z"/>
<path style="fill:#365F2C;" d="M99.896,428.8l67.41,67.41C194.942,506.418,224.818,512,256,512c141.384,0,256-114.616,256-256
	c0-4.21-0.109-8.393-0.309-12.553L331.687,63.443L99.896,428.8z"/>
<polygon style="fill:#FFE65A;" points="231.513,63.443 209.252,107.965 331.687,85.704 331.687,63.443 "/>
<polygon style="fill:#FFF3AD;" points="131.339,63.443 131.339,85.704 231.513,107.965 231.513,63.443 "/>
<polygon style="fill:#FFD23E;" points="231.513,85.704 209.252,130.226 331.687,130.226 331.687,85.704 "/>
<g>
	<rect x="131.339" y="85.704" style="fill:#FFE65A;" width="100.174" height="44.522"/>
	<path style="fill:#FFE65A;" d="M376.209,152.487v244.87c0,24.487-22.261,44.522-22.261,44.522H231.513L164.73,280.487
		l144.696-172.522h22.261C356.174,107.965,376.209,128,376.209,152.487z"/>
</g>
<path style="fill:#FFF3AD;" d="M153.6,107.965l77.914,66.783l-0.001,267.13H131.339c-24.487,0-44.522-20.035-44.522-44.522v-244.87
	c0-24.487,20.035-44.522,44.522-44.522H153.6z"/>
<path style="fill:#BEC130;" d="M353.948,152.487v22.261L164.73,267.13l66.783-159.165h77.913v22.261h22.261
	C343.964,130.226,353.948,140.21,353.948,152.487z"/>
<path style="fill:#DDD532;" d="M231.513,107.965V241.53l-122.435-66.783v-22.261c0-12.277,9.984-22.261,22.261-22.261H153.6v-22.261
	H231.513z"/>
<path style="fill:#63842C;" d="M317.254,183.836c-6.947,3.473-12.434,6.216-24.527,6.216c-12.094,0-17.581-2.743-24.527-6.216
	c-8.096-4.048-18.174-9.087-36.685-9.088l-54.417,116.87l54.414,105.739h122.435V174.748
	C335.431,174.748,325.353,179.787,317.254,183.836z"/>
<rect x="264.904" y="230.4" style="fill:#365F2C;" width="22.261" height="22.261"/>
<rect x="309.426" y="208.139" style="fill:#193D2F;" width="22.261" height="22.261"/>
<path style="fill:#81982D;" d="M231.505,174.748c-18.515,0-28.593,5.04-36.691,9.089c-6.944,3.473-12.43,6.215-24.521,6.215
	c-12.092,0-17.578-2.743-24.524-6.215c-8.097-4.049-18.175-9.089-36.69-9.089v222.609h122.435L231.505,174.748z"/>
<rect x="175.861" y="263.791" style="fill:#63842C;" width="22.261" height="22.261"/>
<g>
	<rect x="153.6" y="308.313" style="fill:#365F2C;" width="22.261" height="22.261"/>
	<rect x="131.339" y="219.27" style="fill:#365F2C;" width="22.261" height="22.261"/>
</g>
<path style="fill:#BEC130;" d="M353.948,263.791c49.17,0,89.043,39.874,89.043,89.043s-39.874,89.043-89.043,89.043l-35.617-89.043
	L353.948,263.791z"/>
<path style="fill:#DDD532;" d="M353.948,263.791v178.087c-49.17,0-89.043-39.874-89.043-89.043S304.778,263.791,353.948,263.791z"/>
<path style="fill:#FFF3AD;" d="M353.948,330.574c12.292,0,22.261,9.968,22.261,22.261c0,12.292-9.968,22.261-22.261,22.261
	l-8.904-22.261L353.948,330.574z"/>
<path style="fill:#FFFFFF;" d="M353.948,330.574v44.522c-12.292,0-22.261-9.968-22.261-22.261
	C331.687,340.542,341.655,330.574,353.948,330.574z"/>
<g>
	
		<rect x="314.989" y="293.503" transform="matrix(-0.866 0.5 -0.5 -0.866 760.8654 405.3886)" style="fill:#365F2C;" width="22.26" height="22.26"/>
	<rect x="287.165" y="341.704" style="fill:#365F2C;" width="22.261" height="22.261"/>
	
		<rect x="314.994" y="389.911" transform="matrix(0.866 0.5 -0.5 0.866 244.2193 -109.3337)" style="fill:#365F2C;" width="22.26" height="22.26"/>
</g>
<g>
	
		<rect x="370.657" y="389.911" transform="matrix(0.866 -0.5 0.5 0.866 -149.3726 244.6297)" style="fill:#193D2F;" width="22.26" height="22.26"/>
	<rect x="398.47" y="341.704" style="fill:#193D2F;" width="22.261" height="22.261"/>
	
		<rect x="370.63" y="293.503" transform="matrix(-0.866 -0.5 0.5 -0.866 560.0523 759.3364)" style="fill:#193D2F;" width="22.26" height="22.26"/>
</g>
<g>
</g>
<g>
</g>
<g>
</g>
<g>
</g>
<g>
</g>
<g>
</g>
<g>
</g>
<g>
</g>
<g>
</g>
<g>
</g>
<g>
</g>
<g>
</g>
<g>
</g>
<g>
</g>
<g>
</g>
</svg>
