<?xml version="1.0" encoding="iso-8859-1"?>
<!-- Generator: Adobe Illustrator 19.0.0, SVG Export Plug-In . SVG Version: 6.00 Build 0)  -->
<svg version="1.1" id="Layer_1" xmlns="http://www.w3.org/2000/svg" xmlns:xlink="http://www.w3.org/1999/xlink" x="0px" y="0px"
	 viewBox="0 0 512 512" style="enable-background:new 0 0 512 512;" xml:space="preserve">
<path style="fill:#C9E5FF;" d="M495.196,164.639C458.406,68.375,365.195,0,256,0C114.615,0,0,114.616,0,256
	c0,109.195,68.375,202.406,164.639,239.196L495.196,164.639z"/>
<path style="fill:#92CCFF;" d="M512,256c0-32.189-5.958-62.983-16.804-91.361l-62.112-62.112l-55.092-23.611L78.916,377.992
	l23.611,55.093l62.112,62.112C193.017,506.042,223.811,512,256,512C397.385,512,512,397.384,512,256z"/>
<path style="fill:#185F9F;" d="M204.842,385.862l-47.222,47.222c-15.189,15.189-39.904,15.189-55.092,0l-23.611-23.611
	c-15.189-15.189-15.189-39.904,0-55.092l47.222-47.222l15.741,15.741L94.657,370.12c-6.509,6.509-6.509,17.102,0,23.611
	l23.611,23.611c6.509,6.509,17.102,6.509,23.611,0L189.1,370.12L204.842,385.862z"/>
<path style="fill:#134C7F;" d="M385.862,204.842l47.222-47.222c15.189-15.189,15.189-39.904,0-55.092l-23.611-23.611
	c-15.189-15.189-39.904-15.189-55.092,0l-47.222,47.222l15.741,15.741l47.222-47.222c6.509-6.509,17.102-6.509,23.611,0
	l23.611,23.611c6.509,6.509,6.509,17.102,0,23.611l-47.222,47.222L385.862,204.842z"/>
<path style="fill:#1C72BF;" d="M256,66.783L161.391,256L256,445.217c104.501,0,189.217-84.715,189.217-189.217
	S360.501,66.783,256,66.783z"/>
<path style="fill:#2598FE;" d="M66.783,256c0,104.503,84.716,189.217,189.217,189.217V66.783
	C151.499,66.783,66.783,151.497,66.783,256z"/>
<path style="fill:#20162F;" d="M256,89.043L207.671,256L256,422.957c92.205,0,166.957-74.752,166.957-166.957
	S348.204,89.043,256,89.043z"/>
<path style="fill:#30275E;" d="M89.043,256c0,92.205,74.752,166.957,166.957,166.957V89.043
	C163.795,89.043,89.043,163.795,89.043,256z"/>
<path style="fill:#813115;" d="M256,111.304L214.114,256L256,400.696c79.911,0,144.696-64.785,144.696-144.696
	S335.911,111.304,256,111.304z"/>
<path style="fill:#934D2B;" d="M111.304,256c0,79.911,64.785,144.696,144.696,144.696V111.304
	C176.089,111.304,111.304,176.089,111.304,256z"/>
<path style="fill:#3A160A;" d="M299.678,322.783c0,2.277-0.693,4.072-2.48,6.3c-5.881,7.335-4.178,18.178,3.325,23.845
	s17.764,3.512,24.22-3.325c6.619-7.01,9.17-17.055,9.17-26.82l-17.117-11.13L299.678,322.783z"/>
<path style="fill:#521F0E;" d="M324.743,295.963c-6.456-6.836-16.717-8.991-24.22-3.325c-7.503,5.667-9.206,16.51-3.325,23.845
	c1.786,2.228,2.48,4.023,2.48,6.3h34.235C333.913,313.018,331.362,302.973,324.743,295.963z"/>
<path style="fill:#F94C10;" d="M256,219.27L237.635,256L256,292.73c20.285,0,36.73-16.445,36.73-36.73S276.285,219.27,256,219.27z"
	/>
<path style="fill:#FA690E;" d="M219.27,256c0,20.285,16.445,36.73,36.73,36.73V219.27C235.715,219.27,219.27,235.715,219.27,256z"/>
<circle style="fill:#FC870B;" cx="256" cy="256" r="11.13"/>
<rect x="300.522" y="189.217" style="fill:#F94C10;" width="22.261" height="22.261"/>
<rect x="278.261" y="144.696" style="fill:#FA690E;" width="22.261" height="22.261"/>
<rect x="189.217" y="300.522" style="fill:#FC870B;" width="22.261" height="22.261"/>
<rect x="211.478" y="345.043" style="fill:#FA690E;" width="22.261" height="22.261"/>
<path style="fill:#3A160A;" d="M344.2,256c0,2.277-0.693,4.072-2.48,6.3c-5.881,7.335-4.178,18.178,3.325,23.845
	s17.764,3.512,24.22-3.325c6.619-7.01,9.17-17.055,9.17-26.82l-17.117-11.13L344.2,256z"/>
<path style="fill:#521F0E;" d="M369.264,229.18c-6.456-6.836-16.717-8.991-24.22-3.325s-9.206,16.51-3.325,23.845
	c1.786,2.228,2.48,4.023,2.48,6.3h34.235C378.435,246.235,375.884,236.19,369.264,229.18z"/>
<path style="fill:#692811;" d="M212.322,189.217c0-2.277,0.693-4.072,2.48-6.3c5.881-7.335,4.178-18.178-3.325-23.845
	c-7.503-5.667-17.764-3.512-24.22,3.325c-6.619,7.01-9.17,17.055-9.17,26.82l17.117,11.13L212.322,189.217z"/>
<path style="fill:#521F0E;" d="M187.257,216.037c6.456,6.836,16.717,8.991,24.22,3.325c7.503-5.667,9.206-16.51,3.325-23.845
	c-1.786-2.228-2.48-4.023-2.48-6.3h-34.235C178.087,198.982,180.638,209.027,187.257,216.037z"/>
<path style="fill:#692811;" d="M167.8,256c0-2.277,0.693-4.072,2.48-6.3c5.881-7.335,4.178-18.178-3.325-23.845
	s-17.764-3.512-24.22,3.325c-6.619,7.01-9.17,17.055-9.17,26.82l17.117,11.13L167.8,256z"/>
<path style="fill:#521F0E;" d="M142.736,282.82c6.456,6.836,16.717,8.991,24.22,3.325c7.503-5.667,9.206-16.51,3.325-23.845
	c-1.786-2.228-2.48-4.023-2.48-6.3h-34.235C133.565,265.765,136.116,275.81,142.736,282.82z"/>
<g>
</g>
<g>
</g>
<g>
</g>
<g>
</g>
<g>
</g>
<g>
</g>
<g>
</g>
<g>
</g>
<g>
</g>
<g>
</g>
<g>
</g>
<g>
</g>
<g>
</g>
<g>
</g>
<g>
</g>
</svg>
