<?xml version="1.0" encoding="iso-8859-1"?>
<!-- Generator: Adobe Illustrator 19.0.0, SVG Export Plug-In . SVG Version: 6.00 Build 0)  -->
<svg version="1.1" id="Layer_1" xmlns="http://www.w3.org/2000/svg" xmlns:xlink="http://www.w3.org/1999/xlink" x="0px" y="0px"
	 viewBox="0 0 512 512" style="enable-background:new 0 0 512 512;" xml:space="preserve">
<path style="fill:#81982D;" d="M502.865,188.049C473.095,79.648,373.856,0,256,0C114.615,0,0,114.615,0,256
	c0,117.856,79.648,217.094,188.049,246.865L502.865,188.049z"/>
<path style="fill:#193D2F;" d="M512,256c0-23.529-3.191-46.309-9.135-67.951l-89.458-89.458L98.592,413.408l89.458,89.458
	c21.641,5.944,44.422,9.135,67.951,9.135C397.385,512,512,397.384,512,256z"/>
<path style="fill:#FFF3AD;" d="M256,33.391L144.696,256L256,478.609c122.943,0,222.609-99.665,222.609-222.609
	S378.943,33.391,256,33.391z"/>
<path style="fill:#FFFFFF;" d="M33.391,256c0,122.943,99.665,222.609,222.609,222.609V33.391
	C133.057,33.391,33.391,133.057,33.391,256z"/>
<path style="fill:#FFD23E;" d="M256,66.783L161.391,256L256,445.217c104.501,0,189.217-84.715,189.217-189.217
	S360.501,66.783,256,66.783z"/>
<path style="fill:#FFE376;" d="M66.783,256c0,104.503,84.716,189.217,189.217,189.217V66.783
	C151.499,66.783,66.783,151.497,66.783,256z"/>
<path style="fill:#BEC130;" d="M239.304,417.391h-33.391v-31.583c0-16.759-6.46-32.522-18.203-44.445l-22.353-22.353l23.61-23.61
	l21.999,21.995c18.274,18.272,28.338,42.567,28.338,68.413l11.13,17.67L239.304,417.391z"/>
<path style="fill:#81982D;" d="M272.696,417.391h33.391v-31.583c0-16.759,6.46-32.522,18.203-44.445l22.353-22.353l-23.61-23.61
	l-21.999,21.995c-18.274,18.272-28.338,42.567-28.338,68.413l-11.13,15.792L272.696,417.391z"/>
<rect x="239.304" y="306.087" style="fill:#A0AD2F;" width="33.391" height="111.304"/>
<path style="fill:#63842C;" d="M396.722,197.71c16.083,14.28,26.234,35.094,26.234,58.29c0,43.03-34.883,77.913-77.913,77.913H256
	l-55.652-115.757L256,89.043c23.196,0,44.01,10.151,58.29,26.234c21.471-1.28,43.364,6.266,59.77,22.662
	C390.456,154.346,398.002,176.239,396.722,197.71z"/>
<path style="fill:#81982D;" d="M256,89.043v244.87h-89.043c-43.03,0-77.913-34.883-77.913-77.913
	c0-23.196,10.151-44.01,26.234-58.29c-1.28-21.471,6.266-43.364,22.662-59.77c16.406-16.395,38.3-23.942,59.77-22.662
	C211.99,99.194,232.804,89.043,256,89.043z"/>
<path style="fill:#44702A;" d="M372.658,207.716c16.729,9.606,28.038,27.637,28.038,48.284c0,30.687-24.966,55.652-55.652,55.652
	H256l-55.652-100.174L256,111.304c20.647,0,38.678,11.309,48.284,28.038c4.73-1.28,9.65-1.959,14.681-1.959
	c14.859,0,28.839,5.788,39.346,16.306c10.518,10.507,16.306,24.487,16.306,39.346C374.617,198.066,373.938,202.986,372.658,207.716z
	"/>
<path style="fill:#63842C;" d="M256,111.304V256l-11.13,11.13l11.13,11.13v33.391h-89.043c-30.687,0-55.652-24.966-55.652-55.652
	c0-20.647,11.309-38.678,28.038-48.284c-1.28-4.73-1.959-9.65-1.959-14.681c0-14.859,5.788-28.839,16.306-39.346
	c10.507-10.518,24.487-16.306,39.346-16.306c5.031,0,9.951,0.679,14.681,1.959C217.322,122.613,235.353,111.304,256,111.304z"/>
<g>
	<rect x="311.652" y="267.13" style="fill:#365F2C;" width="22.261" height="22.261"/>
	<rect x="356.174" y="244.87" style="fill:#365F2C;" width="22.261" height="22.261"/>
</g>
<rect x="278.261" y="233.739" style="fill:#193D2F;" width="22.261" height="22.261"/>
<rect x="155.826" y="222.609" style="fill:#A0AD2F;" width="22.261" height="22.261"/>
<rect x="233.739" y="256" style="fill:#365F2C;" width="22.261" height="22.261"/>
<rect x="278.261" y="155.826" style="fill:#193D2F;" width="22.261" height="22.261"/>
<rect x="178.087" y="178.087" style="fill:#365F2C;" width="22.261" height="22.261"/>
<path style="fill:#FA690E;" d="M131.339,272.696l-18.365,36.73l18.365,36.73c20.285,0,36.73-16.445,36.73-36.73
	C168.07,289.141,151.624,272.696,131.339,272.696z"/>
<path style="fill:#FC870B;" d="M94.609,309.426c0,20.285,16.445,36.73,36.73,36.73v-73.461
	C111.054,272.696,94.609,289.141,94.609,309.426z"/>
<g>
	<circle style="fill:#F94C10;" cx="131.339" cy="309.426" r="11.13"/>
	<path style="fill:#F94C10;" d="M380.661,165.843l-18.365,36.73l18.365,36.73c20.285,0,36.73-16.445,36.73-36.73
		S400.946,165.843,380.661,165.843z"/>
</g>
<path style="fill:#FA690E;" d="M343.93,202.574c0,20.285,16.445,36.73,36.73,36.73v-73.461
	C360.376,165.843,343.93,182.289,343.93,202.574z"/>
<circle style="fill:#FC870B;" cx="380.661" cy="202.574" r="11.13"/>
<path style="fill:#FA690E;" d="M309.426,310.539l-26.713,53.426l26.713,53.426c29.507,0,53.426-23.919,53.426-53.426
	C362.852,334.458,338.933,310.539,309.426,310.539z"/>
<path style="fill:#FC870B;" d="M256,363.965c0,29.507,23.919,53.426,53.426,53.426V310.539C279.919,310.539,256,334.458,256,363.965
	z"/>
<path style="fill:#F94C10;" d="M309.426,341.704l-11.13,22.261l11.13,22.261c12.295,0,22.261-9.966,22.261-22.261
	C331.687,351.671,321.721,341.704,309.426,341.704z"/>
<path style="fill:#FA690E;" d="M287.165,363.965c0,12.295,9.966,22.261,22.261,22.261v-44.522
	C297.131,341.704,287.165,351.671,287.165,363.965z"/>
<g>
</g>
<g>
</g>
<g>
</g>
<g>
</g>
<g>
</g>
<g>
</g>
<g>
</g>
<g>
</g>
<g>
</g>
<g>
</g>
<g>
</g>
<g>
</g>
<g>
</g>
<g>
</g>
<g>
</g>
</svg>
