<?xml version="1.0" encoding="iso-8859-1"?>
<!-- Generator: Adobe Illustrator 19.0.0, SVG Export Plug-In . SVG Version: 6.00 Build 0)  -->
<svg version="1.1" id="Layer_1" xmlns="http://www.w3.org/2000/svg" xmlns:xlink="http://www.w3.org/1999/xlink" x="0px" y="0px"
	 viewBox="0 0 512 512" style="enable-background:new 0 0 512 512;" xml:space="preserve">
<path style="fill:#FFD23E;" d="M511.547,240.925C503.741,106.559,392.323,0,256,0C114.616,0,0,114.616,0,256
	c0,124.526,88.918,228.269,206.721,251.242L511.547,240.925z"/>
<path style="fill:#FDA409;" d="M512,256c0-5.062-0.164-10.086-0.454-15.075l-70.148-70.148L44.522,345.043L206.72,507.242
	C222.67,510.353,239.142,512,256,512C397.384,512,512,397.384,512,256z"/>
<path style="fill:#A56840;" d="M256,128l-44.522,89.043L256,306.087c49.178,0,89.043-39.866,89.043-89.043S305.178,128,256,128z"/>
<path style="fill:#B78456;" d="M166.957,217.043c0,49.178,39.866,89.043,89.043,89.043V128
	C206.824,128,166.957,167.866,166.957,217.043z"/>
<path style="fill:#813115;" d="M378.435,144.696l-44.522,89.043l44.522,89.043c49.178,0,89.043-39.866,89.043-89.043
	S427.612,144.696,378.435,144.696z"/>
<path style="fill:#934D2B;" d="M289.391,233.739c0,49.178,39.866,89.043,89.043,89.043V144.696
	C329.258,144.696,289.391,184.562,289.391,233.739z"/>
<g>
	<rect x="311.652" y="233.739" style="fill:#813115;" width="22.261" height="22.261"/>
	<rect x="333.913" y="189.217" style="fill:#813115;" width="22.261" height="22.261"/>
</g>
<path style="fill:#A0AD2F;" d="M434.087,289.391c-8.554,0-16.353,3.22-22.261,8.51c-5.908-5.29-13.707-8.51-22.261-8.51
	c-8.554,0-16.353,3.22-22.261,8.51c-5.908-5.29-13.707-8.51-22.261-8.51s-16.353,3.22-22.261,8.51
	c-5.908-5.29-13.707-8.51-22.261-8.51s-16.353,3.22-22.261,8.51c-5.908-5.29-13.707-8.51-22.261-8.51l-22.261,66.783l233.739-33.391
	C467.478,304.342,452.529,289.391,434.087,289.391z"/>
<path style="fill:#BEC130;" d="M233.739,297.902c-5.908-5.29-13.707-8.51-22.261-8.51c-8.554,0-16.353,3.22-22.261,8.51
	c-5.908-5.29-13.707-8.51-22.261-8.51s-16.353,3.22-22.261,8.51c-5.908-5.29-13.707-8.51-22.261-8.51s-16.353,3.22-22.261,8.51
	c-5.908-5.29-13.707-8.51-22.261-8.51c-18.442,0-33.391,14.95-33.391,33.391L256,356.174v-66.783
	C247.446,289.391,239.647,292.611,233.739,297.902z"/>
<path style="fill:#A56840;" d="M133.565,144.696l-44.522,89.043l44.522,89.043c49.178,0,89.043-39.866,89.043-89.043
	S182.743,144.696,133.565,144.696z"/>
<path style="fill:#B78456;" d="M44.522,233.739c0,49.178,39.866,89.043,89.043,89.043V144.696
	C84.389,144.696,44.522,184.562,44.522,233.739z"/>
<path style="fill:#DDD532;" d="M133.565,166.957l-33.391,66.783l33.391,66.783c36.883,0,66.783-29.9,66.783-66.783
	S170.448,166.957,133.565,166.957z"/>
<path style="fill:#FFE65A;" d="M66.783,233.739c0,36.883,29.9,66.783,66.783,66.783V166.957
	C96.682,166.957,66.783,196.856,66.783,233.739z"/>
<rect x="111.304" y="189.217" style="fill:#BEC130;" width="22.261" height="22.261"/>
<rect x="89.043" y="233.739" style="fill:#DDD532;" width="22.261" height="22.261"/>
<polygon style="fill:#FFE376;" points="434.087,345.043 411.826,384 256,384 234.296,339.478 "/>
<g>
	<polygon style="fill:#FFF3AD;" points="100.174,384 256,384 256,333.913 77.913,345.043 	"/>
	<polygon style="fill:#FFF3AD;" points="256,322.783 245.009,333.913 256,345.043 467.478,345.043 467.478,322.783 	"/>
</g>
<rect x="44.522" y="322.783" style="fill:#FFFFFF;" width="211.478" height="22.261"/>
<rect x="155.826" y="222.609" style="fill:#A0AD2F;" width="22.261" height="22.261"/>
<g>
</g>
<g>
</g>
<g>
</g>
<g>
</g>
<g>
</g>
<g>
</g>
<g>
</g>
<g>
</g>
<g>
</g>
<g>
</g>
<g>
</g>
<g>
</g>
<g>
</g>
<g>
</g>
<g>
</g>
</svg>
