<?xml version="1.0" encoding="iso-8859-1"?>
<!-- Generator: Adobe Illustrator 19.0.0, SVG Export Plug-In . SVG Version: 6.00 Build 0)  -->
<svg version="1.1" id="Layer_1" xmlns="http://www.w3.org/2000/svg" xmlns:xlink="http://www.w3.org/1999/xlink" x="0px" y="0px"
	 viewBox="0 0 512 512" style="enable-background:new 0 0 512 512;" xml:space="preserve">
<path style="fill:#F72E12;" d="M502.865,188.049C473.095,79.648,373.856,0,256,0C114.615,0,0,114.615,0,256
	c0,117.856,79.648,217.094,188.049,246.865L502.865,188.049z"/>
<path style="fill:#692811;" d="M512,256c0-23.529-3.191-46.309-9.135-67.951l-89.458-89.458L98.592,413.408l89.458,89.458
	c21.641,5.944,44.422,9.135,67.951,9.135C397.385,512,512,397.384,512,256z"/>
<path style="fill:#C9E5FF;" d="M256,33.391L144.696,256L256,478.609c122.943,0,222.609-99.665,222.609-222.609
	S378.943,33.391,256,33.391z"/>
<path style="fill:#FFFFFF;" d="M33.391,256c0,122.943,99.665,222.609,222.609,222.609V33.391
	C133.057,33.391,33.391,133.057,33.391,256z"/>
<path style="fill:#92CCFF;" d="M256,66.783L161.391,256L256,445.217c104.501,0,189.217-84.715,189.217-189.217
	S360.501,66.783,256,66.783z"/>
<path style="fill:#C9E5FF;" d="M66.783,256c0,104.503,84.716,189.217,189.217,189.217V66.783
	C151.499,66.783,66.783,151.497,66.783,256z"/>
<path style="fill:#FFF3AD;" d="M96.075,271.138c1.677-0.968,3.503-1.457,5.311-1.486c1.803-0.039,3.596,0.353,5.206,1.159
	c0.228-3.59,2.197-7.013,5.552-8.95s7.295-1.923,10.517-0.327c0.228-3.59,2.187-7.008,5.542-8.944
	c3.355-1.937,7.304-1.929,10.527-0.333c0.228-3.59,2.187-7.008,5.542-8.944c3.355-1.937,7.295-1.923,10.517-0.327
	c0.228-3.59,2.197-7.013,5.552-8.95c3.355-1.937,7.295-1.923,10.517-0.327c0.228-3.59,2.187-7.008,5.542-8.944
	c3.355-1.937,7.304-1.929,10.527-0.333c0.228-3.59,2.187-7.008,5.542-8.944c5.32-3.072,12.127-1.257,15.204,4.074
	c1.937,3.355,1.923,7.295,0.317,10.523c3.598,0.223,7.018,2.182,8.954,5.536c1.937,3.355,1.929,7.304,0.323,10.533
	c3.598,0.223,7.018,2.182,8.954,5.536c1.937,3.355,1.923,7.295,0.317,10.523c3.598,0.223,7.023,2.192,8.96,5.546l-46.706,52.669
	l-68.966,14.113c-1.937-3.355-1.929-7.304-0.323-10.533c-3.598-0.223-7.018-2.182-8.954-5.536
	c-1.937-3.355-1.923-7.295-0.317-10.523c-3.598-0.223-7.023-2.192-8.96-5.546c-1.937-3.355-1.923-7.295-0.317-10.523
	c-3.598-0.223-7.018-2.182-8.954-5.536C88.923,281.013,90.754,274.21,96.075,271.138z"/>
<path style="fill:#FFFFFF;" d="M119.827,334.54l115.671-66.783c1.937,3.355,1.923,7.295,0.317,10.523
	c3.598,0.223,7.018,2.182,8.954,5.536c1.937,3.355,1.929,7.304,0.323,10.533c3.598,0.223,7.018,2.182,8.954,5.536
	c0.968,1.677,1.451,3.493,1.486,5.311c0.039,1.803-0.367,3.593-1.169,5.211c3.598,0.223,7.023,2.192,8.96,5.546
	c3.072,5.32,1.247,12.132-4.074,15.204c-3.355,1.937-7.295,1.923-10.523,0.317c-0.223,3.598-2.192,7.023-5.546,8.96
	c-3.355,1.937-7.295,1.923-10.523,0.317c-0.223,3.598-2.182,7.018-5.536,8.954c-3.355,1.937-7.304,1.929-10.533,0.323
	c-0.223,3.598-2.182,7.018-5.536,8.954s-7.295,1.923-10.523,0.317c-0.223,3.598-2.192,7.023-5.546,8.96s-7.295,1.923-10.523,0.317
	c-0.223,3.598-2.182,7.018-5.536,8.954c-3.355,1.937-7.304,1.929-10.533,0.323c-0.223,3.598-2.182,7.018-5.536,8.954
	c-5.32,3.072-12.132,1.247-15.204-4.074c-1.937-3.355-1.929-7.304-0.323-10.533c-3.598-0.223-7.018-2.182-8.954-5.536
	c-1.937-3.355-1.923-7.295-0.317-10.523c-3.598-0.223-7.023-2.192-8.96-5.546c-1.937-3.355-1.923-7.295-0.317-10.523
	C125.182,339.853,121.764,337.894,119.827,334.54z"/>
<polygon style="fill:#FFE376;" points="109.242,282.815 195.995,232.728 221.038,276.105 188.792,320.426 134.285,326.192 "/>
<g>
	
		<rect x="140.102" y="297.797" transform="matrix(0.866 -0.5 0.5 0.866 -135.9421 138.3503)" style="fill:#FFF3AD;" width="100.172" height="50.086"/>
	<path style="fill:#FFF3AD;" d="M162.926,125.07c1.677,0.968,3.013,2.305,3.942,3.857c0.935,1.542,1.493,3.291,1.599,5.088
		c3.222-1.597,7.172-1.604,10.527,0.333c3.355,1.937,5.314,5.356,5.542,8.944c3.222-1.597,7.162-1.609,10.517,0.327
		s5.323,5.362,5.552,8.95c3.222-1.597,7.162-1.609,10.517,0.327s5.314,5.356,5.542,8.944c3.222-1.597,7.172-1.604,10.527,0.333
		c3.355,1.937,5.314,5.356,5.542,8.944c3.222-1.597,7.162-1.609,10.517,0.327c3.355,1.937,5.323,5.362,5.552,8.95
		c3.222-1.597,7.162-1.609,10.517,0.327c5.32,3.072,7.151,9.874,4.074,15.204c-1.937,3.355-5.356,5.314-8.954,5.536
		c1.606,3.228,1.619,7.168-0.317,10.523c-1.937,3.355-5.362,5.323-8.96,5.546c1.606,3.228,1.619,7.168-0.317,10.523
		c-1.937,3.355-5.356,5.314-8.954,5.536c1.606,3.228,1.614,7.178-0.323,10.533l-68.966-14.112l-46.706-52.67
		c1.937-3.355,5.362-5.323,8.96-5.546c-1.606-3.228-1.619-7.168,0.317-10.523c1.937-3.355,5.356-5.314,8.954-5.536
		c-1.606-3.228-1.614-7.178,0.323-10.533s5.356-5.314,8.954-5.536c-1.606-3.228-1.619-7.168,0.317-10.523
		C150.8,123.814,157.606,121.998,162.926,125.07z"/>
</g>
<path style="fill:#FFFFFF;" d="M119.896,177.34l115.671,66.783c-1.937,3.355-5.356,5.314-8.954,5.536
	c1.606,3.228,1.619,7.168-0.317,10.523c-1.937,3.355-5.362,5.323-8.96,5.546c1.606,3.228,1.619,7.168-0.317,10.523
	c-0.968,1.677-2.3,3.004-3.857,3.942c-1.542,0.935-3.295,1.478-5.098,1.594c1.606,3.228,1.614,7.178-0.323,10.533
	c-3.072,5.32-9.884,7.146-15.204,4.074c-3.355-1.937-5.314-5.356-5.536-8.954c-3.228,1.606-7.178,1.614-10.533-0.323
	c-3.355-1.937-5.314-5.356-5.536-8.954c-3.228,1.606-7.168,1.619-10.523-0.317c-3.355-1.937-5.323-5.362-5.546-8.96
	c-3.228,1.606-7.168,1.62-10.523-0.317s-5.314-5.356-5.536-8.954c-3.228,1.606-7.178,1.614-10.533-0.323
	c-3.355-1.937-5.314-5.356-5.536-8.954c-3.228,1.606-7.168,1.619-10.523-0.317c-3.355-1.937-5.323-5.362-5.546-8.96
	c-3.228,1.606-7.168,1.619-10.523-0.317c-5.32-3.072-7.146-9.884-4.074-15.204c1.937-3.355,5.362-5.323,8.96-5.546
	c-1.606-3.228-1.619-7.168,0.317-10.523c1.937-3.355,5.356-5.314,8.954-5.536c-1.606-3.228-1.614-7.178,0.323-10.533
	c1.937-3.355,5.356-5.314,8.954-5.536C117.973,184.635,117.959,180.695,119.896,177.34z"/>
<polygon style="fill:#FFE376;" points="159.398,142.312 246.152,192.398 221.108,235.775 166.601,230.01 134.354,185.688 "/>
<g>
	
		<rect x="115.128" y="207.389" transform="matrix(0.866 0.5 -0.5 0.866 138.3541 -51.4675)" style="fill:#FFF3AD;" width="100.172" height="50.086"/>
	<path style="fill:#FFF3AD;" d="M322.852,109.931c0,1.937-0.49,3.762-1.369,5.343c-0.868,1.581-2.104,2.938-3.606,3.929
		c2.994,1.992,4.975,5.409,4.975,9.283s-1.981,7.279-4.975,9.272c2.994,1.992,4.975,5.398,4.975,9.272s-1.981,7.29-4.975,9.283
		c2.994,1.992,4.975,5.398,4.975,9.272s-1.981,7.279-4.975,9.272c2.994,1.992,4.975,5.409,4.975,9.283
		c0,3.873-1.981,7.279-4.975,9.272c2.994,1.992,4.975,5.398,4.975,9.272c0,3.873-1.981,7.29-4.975,9.283
		c2.994,1.992,4.975,5.398,4.975,9.272c0,6.144-4.975,11.13-11.13,11.13c-3.873,0-7.279-1.981-9.272-4.986
		c-1.992,3.005-5.398,4.986-9.272,4.986c-3.873,0-7.29-1.981-9.283-4.986c-1.992,3.005-5.398,4.986-9.272,4.986
		s-7.279-1.981-9.272-4.986c-1.992,3.005-5.409,4.986-9.283,4.986l-22.261-66.783L256.069,98.8c3.873,0,7.29,1.981,9.283,4.986
		c1.992-3.005,5.398-4.986,9.272-4.986s7.279,1.981,9.272,4.986c1.992-3.005,5.409-4.986,9.283-4.986
		c3.873,0,7.279,1.981,9.272,4.986c1.992-3.005,5.398-4.986,9.272-4.986C317.876,98.8,322.852,103.787,322.852,109.931z"/>
</g>
<path style="fill:#FFFFFF;" d="M256.069,98.8v133.565c-3.873,0-7.279-1.981-9.272-4.986c-1.992,3.005-5.398,4.986-9.272,4.986
	c-3.873,0-7.29-1.981-9.283-4.986c-1.992,3.005-5.398,4.986-9.272,4.986c-1.937,0-3.751-0.49-5.343-1.369
	c-1.581-0.868-2.927-2.115-3.929-3.617c-1.992,3.005-5.409,4.986-9.283,4.986c-6.144,0-11.13-4.986-11.13-11.13
	c0-3.873,1.981-7.279,4.986-9.272c-3.005-1.992-4.986-5.409-4.986-9.283c0-3.873,1.981-7.279,4.986-9.272
	c-3.005-1.992-4.986-5.398-4.986-9.272c0-3.873,1.981-7.29,4.986-9.283c-3.005-1.992-4.986-5.398-4.986-9.272
	s1.981-7.279,4.986-9.272c-3.005-1.992-4.986-5.409-4.986-9.283s1.981-7.279,4.986-9.272c-3.005-1.992-4.986-5.398-4.986-9.272
	c0-3.873,1.981-7.29,4.986-9.283c-3.005-1.992-4.986-5.398-4.986-9.272c0-6.144,4.986-11.13,11.13-11.13
	c3.873,0,7.29,1.981,9.283,4.986c1.992-3.005,5.398-4.986,9.272-4.986s7.279,1.981,9.272,4.986c1.992-3.005,5.409-4.986,9.283-4.986
	c3.873,0,7.279,1.981,9.272,4.986C248.79,100.782,252.196,98.8,256.069,98.8z"/>
<polygon style="fill:#FFE376;" points="306.156,115.496 306.156,215.67 256.069,215.67 233.808,165.583 256.069,115.496 "/>
<g>
	<rect x="205.98" y="115.501" style="fill:#FFF3AD;" width="50.087" height="100.174"/>
	<path style="fill:#FFF3AD;" d="M415.925,240.861c-1.677,0.968-3.503,1.457-5.311,1.486c-1.803,0.039-3.596-0.353-5.206-1.159
		c-0.228,3.59-2.197,7.013-5.552,8.95c-3.355,1.937-7.295,1.923-10.517,0.327c-0.228,3.59-2.187,7.008-5.542,8.944
		c-3.355,1.937-7.304,1.929-10.527,0.333c-0.228,3.59-2.187,7.008-5.542,8.944c-3.355,1.937-7.295,1.923-10.517,0.327
		c-0.228,3.59-2.197,7.013-5.552,8.95c-3.355,1.937-7.295,1.923-10.517,0.327c-0.228,3.59-2.187,7.008-5.542,8.944
		c-3.355,1.937-7.304,1.929-10.527,0.333c-0.228,3.59-2.187,7.008-5.542,8.944c-5.32,3.072-12.127,1.257-15.204-4.074
		c-1.937-3.355-1.923-7.295-0.317-10.523c-3.598-0.223-7.018-2.182-8.954-5.536c-1.937-3.355-1.929-7.304-0.323-10.533
		c-3.598-0.223-7.018-2.182-8.954-5.536c-1.937-3.355-1.923-7.295-0.317-10.523c-3.598-0.223-7.023-2.192-8.96-5.546l46.706-52.67
		l68.966-14.112c1.937,3.355,1.929,7.304,0.323,10.533c3.598,0.223,7.018,2.182,8.954,5.536c1.937,3.355,1.923,7.295,0.317,10.523
		c3.598,0.223,7.023,2.192,8.96,5.546c1.937,3.355,1.923,7.295,0.317,10.523c3.598,0.223,7.018,2.182,8.954,5.536
		C423.077,230.987,421.247,237.789,415.925,240.861z"/>
</g>
<path style="fill:#FFFFFF;" d="M392.173,177.46l-115.671,66.783c-1.937-3.355-1.923-7.295-0.317-10.523
	c-3.598-0.223-7.018-2.182-8.954-5.536c-1.937-3.355-1.929-7.304-0.323-10.533c-3.598-0.223-7.018-2.182-8.954-5.536
	c-0.968-1.677-1.451-3.494-1.486-5.311c-0.039-1.803,0.367-3.593,1.169-5.211c-3.598-0.223-7.023-2.192-8.96-5.546
	c-3.072-5.32-1.247-12.132,4.074-15.204c3.355-1.937,7.295-1.923,10.523-0.317c0.223-3.598,2.192-7.023,5.546-8.96
	s7.295-1.923,10.523-0.317c0.223-3.598,2.182-7.018,5.536-8.954c3.355-1.937,7.304-1.929,10.533-0.323
	c0.223-3.598,2.182-7.018,5.536-8.954c3.355-1.937,7.295-1.923,10.523-0.317c0.223-3.598,2.192-7.023,5.546-8.96
	c3.355-1.937,7.295-1.923,10.523-0.317c0.223-3.598,2.182-7.018,5.536-8.954c3.355-1.937,7.304-1.929,10.533-0.323
	c0.223-3.598,2.182-7.018,5.536-8.954c5.32-3.072,12.132-1.247,15.204,4.074c1.937,3.355,1.929,7.304,0.323,10.533
	c3.598,0.223,7.018,2.182,8.954,5.536c1.937,3.355,1.923,7.295,0.317,10.523c3.598,0.223,7.023,2.192,8.96,5.546
	c1.937,3.355,1.923,7.295,0.317,10.523C386.818,172.147,390.236,174.106,392.173,177.46z"/>
<polygon style="fill:#FFE376;" points="402.758,229.185 316.005,279.272 290.962,235.895 323.208,191.574 377.715,185.808 "/>
<g>
	
		<rect x="271.719" y="164.121" transform="matrix(-0.866 0.5 -0.5 -0.866 695.0779 192.0769)" style="fill:#FFF3AD;" width="100.172" height="50.086"/>
	<path style="fill:#FFF3AD;" d="M349.074,386.93c-1.677-0.968-3.013-2.305-3.942-3.857c-0.935-1.542-1.493-3.291-1.599-5.088
		c-3.222,1.597-7.172,1.604-10.527-0.333c-3.355-1.937-5.314-5.356-5.542-8.944c-3.222,1.597-7.162,1.609-10.517-0.327
		c-3.355-1.937-5.323-5.362-5.552-8.95c-3.222,1.597-7.162,1.609-10.517-0.327c-3.355-1.937-5.314-5.356-5.542-8.944
		c-3.222,1.597-7.172,1.604-10.527-0.333c-3.355-1.937-5.314-5.356-5.542-8.944c-3.222,1.597-7.162,1.609-10.517-0.327
		c-3.355-1.937-5.323-5.362-5.552-8.95c-3.222,1.597-7.162,1.609-10.517-0.327c-5.32-3.072-7.151-9.874-4.074-15.204
		c1.937-3.355,5.356-5.314,8.954-5.536c-1.606-3.228-1.619-7.168,0.317-10.523c1.937-3.355,5.362-5.323,8.96-5.546
		c-1.606-3.228-1.619-7.168,0.317-10.523s5.356-5.314,8.954-5.536c-1.606-3.228-1.614-7.178,0.323-10.533l68.966,14.112
		l46.706,52.669c-1.937,3.355-5.362,5.323-8.96,5.546c1.606,3.228,1.619,7.168-0.317,10.523c-1.937,3.355-5.356,5.314-8.954,5.536
		c1.606,3.228,1.614,7.178-0.323,10.533c-1.937,3.355-5.356,5.314-8.954,5.536c1.606,3.228,1.619,7.168-0.317,10.523
		C361.2,388.186,354.394,390.002,349.074,386.93z"/>
</g>
<path style="fill:#FFFFFF;" d="M392.104,334.66l-115.671-66.783c1.937-3.355,5.356-5.314,8.954-5.536
	c-1.606-3.228-1.619-7.168,0.317-10.523c1.937-3.355,5.362-5.323,8.96-5.546c-1.606-3.228-1.619-7.168,0.317-10.523
	c0.968-1.677,2.3-3.004,3.857-3.942c1.542-0.935,3.295-1.478,5.098-1.594c-1.606-3.228-1.614-7.178,0.323-10.533
	c3.072-5.32,9.884-7.146,15.204-4.074c3.355,1.937,5.314,5.356,5.536,8.954c3.228-1.606,7.178-1.614,10.533,0.323
	c3.355,1.937,5.314,5.356,5.536,8.954c3.228-1.606,7.168-1.619,10.523,0.317c3.355,1.937,5.323,5.362,5.546,8.96
	c3.228-1.606,7.168-1.619,10.523,0.317c3.355,1.937,5.314,5.356,5.536,8.954c3.228-1.606,7.178-1.614,10.533,0.323
	c3.355,1.937,5.314,5.356,5.536,8.954c3.228-1.606,7.168-1.619,10.523,0.317c3.355,1.937,5.323,5.362,5.546,8.96
	c3.228-1.606,7.168-1.619,10.523,0.317c5.32,3.072,7.146,9.884,4.074,15.204c-1.937,3.355-5.362,5.323-8.96,5.546
	c1.606,3.228,1.619,7.168-0.317,10.523c-1.937,3.355-5.356,5.314-8.954,5.536c1.606,3.228,1.614,7.178-0.323,10.533
	c-1.937,3.355-5.356,5.314-8.954,5.536C394.027,327.365,394.041,331.305,392.104,334.66z"/>
<polygon style="fill:#FFE376;" points="352.602,369.688 265.848,319.602 290.892,276.225 345.399,281.99 377.646,326.312 "/>
<g>
	
		<rect x="296.699" y="254.537" transform="matrix(-0.866 -0.5 0.5 -0.866 507.3141 695.0987)" style="fill:#FFF3AD;" width="100.172" height="50.086"/>
	<path style="fill:#FFF3AD;" d="M189.148,402.069c0-1.937,0.49-3.762,1.369-5.343c0.868-1.581,2.104-2.938,3.606-3.929
		c-2.994-1.992-4.975-5.409-4.975-9.283c0-3.873,1.981-7.279,4.975-9.272c-2.994-1.992-4.975-5.398-4.975-9.272
		s1.981-7.29,4.975-9.283c-2.994-1.992-4.975-5.398-4.975-9.272s1.981-7.279,4.975-9.272c-2.994-1.992-4.975-5.409-4.975-9.283
		c0-3.873,1.981-7.279,4.975-9.272c-2.994-1.992-4.975-5.398-4.975-9.272s1.981-7.29,4.975-9.283
		c-2.994-1.992-4.975-5.398-4.975-9.272c0-6.144,4.975-11.13,11.13-11.13c3.873,0,7.279,1.981,9.272,4.986
		c1.992-3.005,5.398-4.986,9.272-4.986c3.873,0,7.29,1.981,9.283,4.986c1.992-3.005,5.398-4.986,9.272-4.986
		c3.873,0,7.279,1.981,9.272,4.986c1.992-3.005,5.409-4.986,9.283-4.986l22.261,66.783L255.931,413.2
		c-3.873,0-7.29-1.981-9.283-4.986c-1.992,3.005-5.398,4.986-9.272,4.986c-3.873,0-7.279-1.981-9.272-4.986
		c-1.992,3.005-5.409,4.986-9.283,4.986c-3.873,0-7.279-1.981-9.272-4.986c-1.992,3.005-5.398,4.986-9.272,4.986
		C194.124,413.2,189.148,408.213,189.148,402.069z"/>
</g>
<path style="fill:#FFFFFF;" d="M255.931,413.2V279.634c3.873,0,7.279,1.981,9.272,4.986c1.992-3.005,5.398-4.986,9.272-4.986
	c3.873,0,7.29,1.981,9.283,4.986c1.992-3.005,5.398-4.986,9.272-4.986c1.937,0,3.751,0.49,5.343,1.369
	c1.581,0.868,2.927,2.115,3.929,3.617c1.992-3.005,5.409-4.986,9.283-4.986c6.144,0,11.13,4.986,11.13,11.13
	c0,3.873-1.981,7.279-4.986,9.272c3.005,1.992,4.986,5.409,4.986,9.283s-1.981,7.279-4.986,9.272
	c3.005,1.992,4.986,5.398,4.986,9.272c0,3.873-1.981,7.29-4.986,9.283c3.005,1.992,4.986,5.398,4.986,9.272
	c0,3.873-1.981,7.279-4.986,9.272c3.005,1.992,4.986,5.409,4.986,9.283s-1.981,7.279-4.986,9.272
	c3.005,1.992,4.986,5.398,4.986,9.272c0,3.873-1.981,7.29-4.986,9.283c3.005,1.992,4.986,5.398,4.986,9.272
	c0,6.144-4.986,11.13-11.13,11.13c-3.873,0-7.29-1.981-9.283-4.986c-1.992,3.005-5.398,4.986-9.272,4.986
	c-3.873,0-7.279-1.981-9.272-4.986c-1.992,3.005-5.409,4.986-9.283,4.986c-3.873,0-7.279-1.981-9.272-4.986
	C263.21,411.218,259.804,413.2,255.931,413.2z"/>
<polygon style="fill:#FFE376;" points="205.844,396.504 205.844,296.33 255.931,296.33 278.192,346.417 255.931,396.504 "/>
<rect x="255.933" y="296.326" style="fill:#FFF3AD;" width="50.087" height="100.174"/>
<path style="fill:#F72E12;" d="M346.54,231.737c-2.214-8.282,0.422-18.581-3.774-25.833c-4.256-7.356-14.533-10.198-20.502-16.168
	c-5.97-5.97-8.812-16.247-16.168-20.503c-7.251-4.196-17.55-1.56-25.833-3.774c-8.005-2.138-15.584-9.632-24.263-9.632L211.478,256
	L256,356.174c8.68,0,16.258-7.494,24.263-9.633c8.282-2.214,18.581,0.422,25.833-3.774c7.356-4.256,10.198-14.533,16.168-20.502
	c5.97-5.97,16.247-8.812,20.503-16.168c4.196-7.251,1.56-17.55,3.774-25.833c2.138-8.005,9.632-15.584,9.632-24.263
	S348.68,239.742,346.54,231.737z"/>
<path style="fill:#F8513A;" d="M231.737,165.459c-8.282,2.214-18.581-0.422-25.833,3.774c-7.356,4.256-10.198,14.533-16.168,20.502
	c-5.97,5.97-16.247,8.812-20.503,16.168c-4.196,7.251-1.56,17.55-3.774,25.833c-2.138,8.005-9.632,15.584-9.632,24.263
	s7.494,16.258,9.633,24.263c2.214,8.282-0.422,18.581,3.774,25.833c4.256,7.356,14.533,10.198,20.502,16.168
	c5.97,5.97,8.812,16.247,16.168,20.503c7.251,4.196,17.55,1.56,25.833,3.774c8.005,2.138,15.584,9.632,24.263,9.632V155.826
	C247.32,155.826,239.742,163.32,231.737,165.459z"/>
<path style="fill:#63842C;" d="M274.218,226.452L256,256c12.276,5.025,30.172,1.672,39.805-7.96
	c9.632-9.632,12.987-27.529,7.961-39.805L274.218,226.452z"/>
<path style="fill:#81982D;" d="M263.962,216.194c-9.632,9.632-12.987,27.529-7.962,39.806l47.766-47.766
	C291.49,203.208,273.594,206.562,263.962,216.194z"/>
<path style="fill:#A0AD2F;" d="M237.782,285.548L256,256c-12.276-5.025-30.172-1.672-39.805,7.96
	c-9.632,9.632-12.987,27.529-7.96,39.805L237.782,285.548z"/>
<g>
	<path style="fill:#81982D;" d="M248.038,295.806c9.632-9.632,12.987-27.529,7.962-39.806l-47.766,47.766
		C220.509,308.792,238.406,305.438,248.038,295.806z"/>
	<path style="fill:#81982D;" d="M237.782,226.452L256,256c-12.276,5.025-30.172,1.672-39.805-7.96
		c-9.632-9.632-12.987-27.529-7.96-39.805L237.782,226.452z"/>
</g>
<path style="fill:#A0AD2F;" d="M248.038,216.194c9.632,9.632,12.987,27.529,7.962,39.806l-47.766-47.766
	C220.509,203.208,238.406,206.562,248.038,216.194z"/>
<path style="fill:#81982D;" d="M274.218,285.548L256,256c12.276-5.025,30.172-1.672,39.805,7.96
	c9.632,9.632,12.987,27.529,7.961,39.805L274.218,285.548z"/>
<path style="fill:#63842C;" d="M263.962,295.806c-9.632-9.632-12.987-27.529-7.962-39.806l47.766,47.766
	C291.49,308.792,273.594,305.438,263.962,295.806z"/>
<g>
</g>
<g>
</g>
<g>
</g>
<g>
</g>
<g>
</g>
<g>
</g>
<g>
</g>
<g>
</g>
<g>
</g>
<g>
</g>
<g>
</g>
<g>
</g>
<g>
</g>
<g>
</g>
<g>
</g>
</svg>
