<?xml version="1.0" encoding="iso-8859-1"?>
<!-- Generator: Adobe Illustrator 19.0.0, SVG Export Plug-In . SVG Version: 6.00 Build 0)  -->
<svg version="1.1" id="Layer_1" xmlns="http://www.w3.org/2000/svg" xmlns:xlink="http://www.w3.org/1999/xlink" x="0px" y="0px"
	 viewBox="0 0 512 512" style="enable-background:new 0 0 512 512;" xml:space="preserve">
<path style="fill:#B78456;" d="M511.584,241.515C504.072,106.871,392.523,0,256,0C114.616,0,0,114.616,0,256
	c0,113.382,73.717,209.534,175.833,243.179L511.584,241.515z"/>
<path style="fill:#934D2B;" d="M512,256c0-4.862-0.149-9.689-0.416-14.485L388.73,118.662l-132.736,238.07L55.647,378.992
	l120.186,120.186C201.052,507.489,227.998,512,256,512C397.385,512,512,397.385,512,256z"/>
<polygon style="fill:#FFE376;" points="301.635,72.196 301.635,163.466 211.478,163.466 256,72.196 "/>
<g>
	<rect x="210.365" y="72.196" style="fill:#FFF3AD;" width="45.635" height="91.27"/>
	<path style="fill:#FFF3AD;" d="M357.287,105.583H256l-33.391,77.913h179.2v-33.391
		C401.809,125.618,381.774,105.583,357.287,105.583z"/>
</g>
<path style="fill:#FFF9D6;" d="M154.713,105.583H256v77.913H110.191v-33.391C110.191,125.618,130.226,105.583,154.713,105.583z"/>
<polygon style="fill:#FFC207;" points="233.739,185.727 322.783,185.727 322.783,105.583 256,105.583 "/>
<rect x="189.217" y="105.583" style="fill:#FFD23E;" width="66.783" height="80.139"/>
<path style="fill:#C9A06C;" d="M400.697,166.805h-44.516l-16.696,22.261l-16.696-22.261h-22.261l-22.261,22.261L256,166.805
	l-44.522,212.187l144.697-22.261c55.325,0,100.174-44.849,100.174-100.174C456.349,217.228,433.68,183.197,400.697,166.805z"/>
<path style="fill:#DBBC82;" d="M111.303,166.805c-32.983,16.393-55.652,50.423-55.652,89.752
	c0,55.325,44.849,100.174,100.174,100.174L256,378.992V166.805H111.303z"/>
<rect x="86.812" y="245.426" style="fill:#B78456;" width="22.261" height="22.261"/>
<g>
	<rect x="120.209" y="200.904" style="fill:#C9A06C;" width="22.261" height="22.261"/>
	<rect x="120.209" y="289.948" style="fill:#C9A06C;" width="22.261" height="22.261"/>
</g>
<rect x="358.4" y="289.948" style="fill:#B78456;" width="22.261" height="22.261"/>
<rect x="402.922" y="245.426" style="fill:#A56840;" width="22.261" height="22.261"/>
<path style="fill:#FFD23E;" d="M256,166.805v77.913c0,12.294,9.966,22.261,22.261,22.261c12.295,0,22.261-9.967,22.261-22.261
	v-77.913H256z"/>
<path style="fill:#FFE376;" d="M189.217,166.805v44.522c0,12.294,9.966,22.261,22.261,22.261c12.295,0,22.261-9.967,22.261-22.261
	v-44.522H189.217z"/>
<path style="fill:#FFD23E;" d="M322.783,166.805v27.826c0,9.22,7.475,16.696,16.696,16.696c9.22,0,16.696-7.475,16.696-16.696
	v-27.826H322.783z"/>
<polygon style="fill:#FFE376;" points="422.951,378.992 400.69,417.949 255.994,417.949 234.29,367.862 "/>
<g>
	<polygon style="fill:#FFF3AD;" points="111.299,417.949 255.994,417.949 255.994,367.862 89.038,378.992 	"/>
	<polygon style="fill:#FFF3AD;" points="456.342,356.732 456.342,378.992 255.994,378.992 245.003,367.862 255.994,356.732 	"/>
</g>
<rect x="55.647" y="356.73" style="fill:#FFFFFF;" width="200.348" height="22.261"/>
<g>
</g>
<g>
</g>
<g>
</g>
<g>
</g>
<g>
</g>
<g>
</g>
<g>
</g>
<g>
</g>
<g>
</g>
<g>
</g>
<g>
</g>
<g>
</g>
<g>
</g>
<g>
</g>
<g>
</g>
</svg>
