<?xml version="1.0" encoding="iso-8859-1"?>
<!-- Generator: Adobe Illustrator 19.0.0, SVG Export Plug-In . SVG Version: 6.00 Build 0)  -->
<svg version="1.1" id="Layer_1" xmlns="http://www.w3.org/2000/svg" xmlns:xlink="http://www.w3.org/1999/xlink" x="0px" y="0px"
	 viewBox="0 0 512 512" style="enable-background:new 0 0 512 512;" xml:space="preserve">
<path style="fill:#A0AD2F;" d="M507.293,206.982C484.421,89.049,380.619,0,256,0C114.616,0,0,114.616,0,256
	c0,124.617,89.049,228.42,206.982,251.292L507.293,206.982z"/>
<path style="fill:#63842C;" d="M512,256c0-16.767-1.631-33.151-4.708-49.018l-126.18-126.18l-13.807,13.807l-61.217-61.217
	L130.888,431.199l76.093,76.093C222.849,510.369,239.233,512,256,512C397.385,512,512,397.385,512,256z"/>
<g>
	<polygon style="fill:#FFD23E;" points="306.087,33.391 317.217,83.478 233.739,83.478 256,33.391 	"/>
	<polygon style="fill:#FFD23E;" points="317.217,428.522 306.087,478.609 256,478.609 233.739,428.522 	"/>
</g>
<g>
	<polygon style="fill:#FFE376;" points="256,428.522 256,478.609 205.913,478.609 194.783,428.522 	"/>
	<polygon style="fill:#FFE376;" points="256,33.391 256,83.478 194.783,83.478 205.913,33.391 	"/>
</g>
<path style="fill:#FFF3AD;" d="M400.696,128v256c0,36.82-29.963,66.783-66.783,66.783H256L200.348,256L256,61.217h77.913
	C370.732,61.217,400.696,91.181,400.696,128z"/>
<path style="fill:#FFFFFF;" d="M256,61.217v389.565h-77.913c-36.819,0-66.783-29.963-66.783-66.783V128
	c0-36.819,29.963-66.783,66.783-66.783H256z"/>
<path style="fill:#FFD23E;" d="M378.435,128v256c0,24.487-20.035,44.522-44.522,44.522H256L200.348,256L256,83.478h77.913
	C358.4,83.478,378.435,103.513,378.435,128z"/>
<path style="fill:#FFE376;" d="M256,83.478v345.043h-77.913c-24.487,0-44.522-20.035-44.522-44.522V128
	c0-24.487,20.035-44.522,44.522-44.522H256z"/>
<path style="fill:#81982D;" d="M205.913,205.913l-25.043-50.087l25.043-50.087c27.662,0,50.087,22.424,50.087,50.087
	S233.576,205.913,205.913,205.913z"/>
<path style="fill:#A0AD2F;" d="M155.826,155.826c0-27.662,22.424-50.087,50.087-50.087v100.174
	C178.251,205.913,155.826,183.489,155.826,155.826z"/>
<path style="fill:#FFF3AD;" d="M205.913,183.652L192,155.826L205.913,128c15.368,0,27.826,12.458,27.826,27.826
	S221.281,183.652,205.913,183.652z"/>
<path style="fill:#FFFFFF;" d="M178.087,155.826c0-15.368,12.458-27.826,27.826-27.826v55.652
	C190.545,183.652,178.087,171.194,178.087,155.826z"/>
<path style="fill:#F94C10;" d="M306.087,205.913l-25.043-50.087l25.043-50.087c27.662,0,50.087,22.424,50.087,50.087
	S333.749,205.913,306.087,205.913z"/>
<g>
	<path style="fill:#FA690E;" d="M256,155.826c0-27.662,22.424-50.087,50.087-50.087v100.174
		C278.424,205.913,256,183.489,256,155.826z"/>
	<path style="fill:#FA690E;" d="M306.087,178.087l-11.13-22.261l11.13-22.261c12.295,0,22.261,9.966,22.261,22.261
		S318.382,178.087,306.087,178.087z"/>
</g>
<path style="fill:#FC870B;" d="M283.826,155.826c0-12.295,9.966-22.261,22.261-22.261v44.522
	C293.792,178.087,283.826,168.121,283.826,155.826z"/>
<path style="fill:#FA690E;" d="M205.913,306.087L180.87,256l25.043-50.087C233.576,205.913,256,228.338,256,256
	S233.576,306.087,205.913,306.087z"/>
<path style="fill:#FC870B;" d="M155.826,256c0-27.662,22.424-50.087,50.087-50.087v100.174
	C178.251,306.087,155.826,283.662,155.826,256z"/>
<path style="fill:#F94C10;" d="M205.913,278.261L194.783,256l11.13-22.261c12.295,0,22.261,9.966,22.261,22.261
	C228.174,268.295,218.208,278.261,205.913,278.261z"/>
<path style="fill:#FA690E;" d="M183.652,256c0-12.295,9.966-22.261,22.261-22.261v44.522
	C193.618,278.261,183.652,268.295,183.652,256z"/>
<path style="fill:#44702A;" d="M306.087,306.087L281.043,256l25.043-50.087c27.662,0,50.087,22.424,50.087,50.087
	S333.749,306.087,306.087,306.087z"/>
<path style="fill:#63842C;" d="M256,256c0-27.662,22.424-50.087,50.087-50.087v100.174C278.424,306.087,256,283.662,256,256z"/>
<path style="fill:#FFF3AD;" d="M306.087,283.826L292.174,256l13.913-27.826c15.368,0,27.826,12.458,27.826,27.826
	S321.455,283.826,306.087,283.826z"/>
<path style="fill:#FFFFFF;" d="M278.261,256c0-15.368,12.458-27.826,27.826-27.826v55.652
	C290.719,283.826,278.261,271.368,278.261,256z"/>
<path style="fill:#81982D;" d="M205.913,406.261l-25.043-50.087l25.043-50.087c27.662,0,50.087,22.424,50.087,50.087
	C256,383.836,233.576,406.261,205.913,406.261z"/>
<path style="fill:#A0AD2F;" d="M155.826,356.174c0-27.662,22.424-50.087,50.087-50.087v100.174
	C178.251,406.261,155.826,383.836,155.826,356.174z"/>
<path style="fill:#FFF3AD;" d="M205.913,384L192,356.174l13.913-27.826c15.368,0,27.826,12.458,27.826,27.826
	S221.281,384,205.913,384z"/>
<path style="fill:#FFFFFF;" d="M178.087,356.174c0-15.368,12.458-27.826,27.826-27.826V384
	C190.545,384,178.087,371.542,178.087,356.174z"/>
<rect x="194.783" y="345.043" style="fill:#FFE376;" width="22.261" height="22.261"/>
<path style="fill:#F72E12;" d="M306.087,406.261l-25.043-50.087l25.043-50.087c27.662,0,50.087,22.424,50.087,50.087
	C356.174,383.836,333.749,406.261,306.087,406.261z"/>
<g>
	<path style="fill:#F8513A;" d="M256,356.174c0-27.662,22.424-50.087,50.087-50.087v100.174
		C278.424,406.261,256,383.836,256,356.174z"/>
	<path style="fill:#F8513A;" d="M306.087,384l-13.913-27.826l13.913-27.826c15.368,0,27.826,12.458,27.826,27.826
		S321.455,384,306.087,384z"/>
</g>
<path style="fill:#FA7461;" d="M278.261,356.174c0-15.368,12.458-27.826,27.826-27.826V384
	C290.719,384,278.261,371.542,278.261,356.174z"/>
<g>
	<rect x="294.957" y="244.87" style="fill:#FFE376;" width="22.261" height="22.261"/>
	<rect x="194.783" y="144.696" style="fill:#FFE376;" width="22.261" height="22.261"/>
</g>
<g>
</g>
<g>
</g>
<g>
</g>
<g>
</g>
<g>
</g>
<g>
</g>
<g>
</g>
<g>
</g>
<g>
</g>
<g>
</g>
<g>
</g>
<g>
</g>
<g>
</g>
<g>
</g>
<g>
</g>
</svg>
