<?xml version="1.0" encoding="iso-8859-1"?>
<!-- Generator: Adobe Illustrator 19.0.0, SVG Export Plug-In . SVG Version: 6.00 Build 0)  -->
<svg version="1.1" id="Layer_1" xmlns="http://www.w3.org/2000/svg" xmlns:xlink="http://www.w3.org/1999/xlink" x="0px" y="0px"
	 viewBox="0 0 512 512" style="enable-background:new 0 0 512 512;" xml:space="preserve">
<path style="fill:#813115;" d="M502.865,188.049C473.095,79.648,373.856,0,256,0C114.615,0,0,114.615,0,256
	c0,117.856,79.648,217.094,188.049,246.865L502.865,188.049z"/>
<path style="fill:#3A160A;" d="M512,256c0-23.529-3.191-46.309-9.135-67.951l-89.458-89.458L98.592,413.408l89.458,89.458
	c21.641,5.944,44.422,9.135,67.951,9.135C397.385,512,512,397.384,512,256z"/>
<path style="fill:#FFF3AD;" d="M256,33.391L144.696,256L256,478.609c122.943,0,222.609-99.665,222.609-222.609
	S378.943,33.391,256,33.391z"/>
<path style="fill:#FFFFFF;" d="M33.391,256c0,122.943,99.665,222.609,222.609,222.609V33.391
	C133.057,33.391,33.391,133.057,33.391,256z"/>
<path style="fill:#FFD23E;" d="M256,66.783L161.391,256L256,445.217c104.501,0,189.217-84.715,189.217-189.217
	S360.501,66.783,256,66.783z"/>
<path style="fill:#FFE376;" d="M66.783,256c0,104.503,84.716,189.217,189.217,189.217V66.783
	C151.499,66.783,66.783,151.497,66.783,256z"/>
<path style="fill:#C9A06C;" d="M420.447,224.846c1.013,5.743-1.057,11.32-5.009,15.048l-0.022,27.893
	c3.94,3.729,5.988,9.294,4.975,15.037c-1.013,5.754-4.853,10.285-9.85,12.433c3.239,4.352,4.296,10.195,2.304,15.672
	c-2.003,5.487-6.578,9.283-11.865,10.529l-13.969,24.153c1.547,5.198,0.545,11.041-3.206,15.505
	c-3.751,4.474-9.35,6.478-14.748,5.843c0.623,5.387-1.38,10.975-5.843,14.726c-4.474,3.751-10.34,4.753-15.538,3.183l-24.175,13.935
	c-1.258,5.265-5.053,9.839-10.529,11.832c-5.487,1.992-11.342,0.924-15.694-2.315c-2.159,4.975-6.678,8.804-12.422,9.817
	c-5.754,1.013-11.331-1.046-15.059-5.009l-13.657-0.011L200.487,253.74l55.652-159.466l13.958,0.011
	c3.729-3.94,9.294-5.999,15.037-4.986c5.743,1.013,10.273,4.864,12.433,9.85c4.352-3.228,10.184-4.285,15.672-2.293
	c5.487,1.992,9.283,6.578,10.529,11.865l24.142,13.969c5.198-1.547,11.052-0.545,15.516,3.194c4.474,3.762,6.478,9.361,5.843,14.759
	c5.387-0.623,10.975,1.38,14.714,5.843c3.751,4.474,4.753,10.329,3.194,15.538l13.924,24.175c5.276,1.258,9.839,5.042,11.832,10.518
	c2.003,5.487,0.935,11.342-2.315,15.694C415.594,214.573,419.434,219.103,420.447,224.846z"/>
<path style="fill:#DBBC82;" d="M256.139,94.319v318.842l-14.236-0.011c-3.729,3.94-9.294,5.999-15.037,4.986
	c-5.743-1.013-10.273-4.864-12.433-9.85c-4.352,3.228-10.184,4.285-15.672,2.293c-5.487-1.992-9.283-6.578-10.529-11.865
	l-24.142-13.969c-5.198,1.547-11.053,0.545-15.516-3.194c-4.474-3.762-6.478-9.361-5.843-14.759
	c-5.387,0.623-10.975-1.38-14.714-5.843c-3.751-4.474-4.753-10.329-3.194-15.538l-13.924-24.175
	c-5.276-1.258-9.839-5.042-11.832-10.518c-2.003-5.487-0.935-11.342,2.315-15.694c-4.975-2.159-8.815-6.689-9.828-12.433
	c-1.013-5.743,1.057-11.32,5.009-15.048l0.022-27.893c-3.94-3.729-5.988-9.294-4.975-15.037c1.013-5.754,4.853-10.285,9.85-12.433
	c-3.239-4.352-4.296-10.195-2.304-15.672c2.003-5.487,6.578-9.283,11.865-10.529l13.969-24.153
	c-1.547-5.198-0.545-11.041,3.206-15.505c3.751-4.474,9.35-6.478,14.748-5.843c-0.623-5.387,1.38-10.975,5.843-14.726
	c4.474-3.751,10.34-4.753,15.538-3.183l24.175-13.935c1.258-5.265,5.053-9.839,10.529-11.832c5.487-1.992,11.342-0.924,15.694,2.315
	c2.159-4.975,6.678-8.804,12.422-9.817c5.754-1.013,11.331,1.046,15.059,5.009L256.139,94.319z"/>
<path style="fill:#A56840;" d="M347.826,239.304L339.478,256l8.348,16.696c9.22,0,16.696-7.475,16.696-16.696
	S357.047,239.304,347.826,239.304z"/>
<g>
	<path style="fill:#B78456;" d="M331.13,256c0,9.22,7.475,16.696,16.696,16.696v-33.391C338.606,239.304,331.13,246.78,331.13,256z"
		/>
	<path style="fill:#B78456;" d="M161.53,239.443l-8.348,16.696l8.348,16.696c9.22,0,16.696-7.475,16.696-16.696
		C178.226,246.919,170.751,239.443,161.53,239.443z"/>
</g>
<path style="fill:#C9A06C;" d="M144.835,256.139c0,9.22,7.475,16.696,16.696,16.696v-33.391
	C152.31,239.443,144.835,246.919,144.835,256.139z"/>
<path style="fill:#B78456;" d="M194.922,206.052l-8.348,16.696l8.348,16.696c9.22,0,16.696-7.475,16.696-16.696
	S204.142,206.052,194.922,206.052z"/>
<path style="fill:#C9A06C;" d="M178.226,222.748c0,9.22,7.475,16.696,16.696,16.696v-33.391
	C185.701,206.052,178.226,213.527,178.226,222.748z"/>
<path style="fill:#A56840;" d="M256,239.304L247.652,256L256,272.696c9.22,0,16.696-7.475,16.696-16.696S265.22,239.304,256,239.304
	z"/>
<path style="fill:#C9A06C;" d="M239.304,256c0,9.22,7.475,16.696,16.696,16.696v-33.391C246.78,239.304,239.304,246.78,239.304,256z
	"/>
<path style="fill:#B78456;" d="M194.922,272.835l-8.348,16.696l8.348,16.696c9.22,0,16.696-7.475,16.696-16.696
	C211.617,280.31,204.142,272.835,194.922,272.835z"/>
<path style="fill:#C9A06C;" d="M178.226,289.53c0,9.22,7.475,16.696,16.696,16.696v-33.391
	C185.701,272.835,178.226,280.31,178.226,289.53z"/>
<path style="fill:#A56840;" d="M297.72,336.115l-8.348,16.696l8.348,16.696c9.22,0,16.696-7.475,16.696-16.696
	S306.942,336.115,297.72,336.115z"/>
<path style="fill:#B78456;" d="M281.025,352.81c0,9.22,7.475,16.696,16.696,16.696v-33.391
	C288.5,336.115,281.025,343.59,281.025,352.81z"/>
<path style="fill:#A56840;" d="M331.112,369.506l-8.348,16.696l8.348,16.696c9.22,0,16.696-7.475,16.696-16.696
	C347.807,376.981,340.333,369.506,331.112,369.506z"/>
<path style="fill:#B78456;" d="M314.416,386.202c0,9.22,7.475,16.696,16.696,16.696v-33.391
	C321.891,369.506,314.416,376.981,314.416,386.202z"/>
<path style="fill:#A56840;" d="M314.435,272.835l-8.348,16.696l8.348,16.696c9.22,0,16.696-7.475,16.696-16.696
	C331.13,280.31,323.655,272.835,314.435,272.835z"/>
<path style="fill:#B78456;" d="M297.739,289.53c0,9.22,7.475,16.696,16.696,16.696v-33.391
	C305.214,272.835,297.739,280.31,297.739,289.53z"/>
<path style="fill:#A56840;" d="M314.435,239.443l-8.348-16.696l8.348-16.696c9.22,0,16.696,7.475,16.696,16.696
	S323.655,239.443,314.435,239.443z"/>
<path style="fill:#B78456;" d="M297.739,222.748c0-9.22,7.475-16.696,16.696-16.696v33.391
	C305.214,239.443,297.739,231.968,297.739,222.748z"/>
<path style="fill:#A56840;" d="M256,122.435l-8.348-16.696L256,89.043c9.22,0,16.696,7.475,16.696,16.696
	S265.22,122.435,256,122.435z"/>
<path style="fill:#C9A06C;" d="M239.304,105.739c0-9.22,7.475-16.696,16.696-16.696v33.391
	C246.78,122.435,239.304,114.96,239.304,105.739z"/>
<path style="fill:#A56840;" d="M255.722,389.565l-8.348,16.696l8.348,16.696c9.22,0,16.696-7.475,16.696-16.696
	C272.417,397.04,264.942,389.565,255.722,389.565z"/>
<path style="fill:#C9A06C;" d="M239.026,406.261c0,9.22,7.475,16.696,16.696,16.696v-33.391
	C246.501,389.565,239.026,397.04,239.026,406.261z"/>
<path style="fill:#A56840;" d="M385.921,347.946l-8.348-16.696l8.348-16.696c9.22,0,16.696,7.475,16.696,16.696
	C402.617,340.471,395.142,347.946,385.921,347.946z"/>
<path style="fill:#B78456;" d="M369.225,331.251c0-9.22,7.475-16.696,16.696-16.696v33.391
	C376.701,347.946,369.225,340.471,369.225,331.251z"/>
<path style="fill:#A56840;" d="M406.122,272.835l-8.348-16.696l8.348-16.696c9.22,0,16.696,7.475,16.696,16.696
	C422.817,265.36,415.342,272.835,406.122,272.835z"/>
<path style="fill:#B78456;" d="M389.426,256.139c0-9.22,7.475-16.696,16.696-16.696v33.391
	C396.901,272.835,389.426,265.36,389.426,256.139z"/>
<path style="fill:#A56840;" d="M386.06,197.685l-8.348-16.696l8.348-16.696c9.22,0,16.696,7.475,16.696,16.696
	C402.756,190.21,395.281,197.685,386.06,197.685z"/>
<path style="fill:#B78456;" d="M369.365,180.99c0-9.22,7.475-16.696,16.696-16.696v33.391
	C376.84,197.685,369.365,190.21,369.365,180.99z"/>
<path style="fill:#A56840;" d="M331.112,142.635l-8.348-16.696l8.348-16.696c9.22,0,16.696,7.475,16.696,16.696
	S340.333,142.635,331.112,142.635z"/>
<g>
	<path style="fill:#B78456;" d="M314.416,125.94c0-9.22,7.475-16.696,16.696-16.696v33.391
		C321.891,142.635,314.416,135.16,314.416,125.94z"/>
	<path style="fill:#B78456;" d="M126.079,347.946l-8.348-16.696l8.348-16.696c9.22,0,16.696,7.475,16.696,16.696
		C142.775,340.471,135.299,347.946,126.079,347.946z"/>
</g>
<path style="fill:#C9A06C;" d="M109.383,331.251c0-9.22,7.475-16.696,16.696-16.696v33.391
	C116.858,347.946,109.383,340.471,109.383,331.251z"/>
<path style="fill:#B78456;" d="M105.878,272.835l-8.348-16.696l8.348-16.696c9.22,0,16.696,7.475,16.696,16.696
	C122.574,265.36,115.099,272.835,105.878,272.835z"/>
<path style="fill:#C9A06C;" d="M89.183,256.139c0-9.22,7.475-16.696,16.696-16.696v33.391
	C96.658,272.835,89.183,265.36,89.183,256.139z"/>
<path style="fill:#B78456;" d="M125.94,197.685l-8.348-16.696l8.348-16.696c9.22,0,16.696,7.475,16.696,16.696
	C142.635,190.21,135.16,197.685,125.94,197.685z"/>
<path style="fill:#C9A06C;" d="M109.244,180.99c0-9.22,7.475-16.696,16.696-16.696v33.391
	C116.719,197.685,109.244,190.21,109.244,180.99z"/>
<path style="fill:#B78456;" d="M180.888,142.635l-8.348-16.696l8.348-16.696c9.22,0,16.696,7.475,16.696,16.696
	S190.109,142.635,180.888,142.635z"/>
<path style="fill:#C9A06C;" d="M164.193,125.94c0-9.22,7.475-16.696,16.696-16.696v33.391
	C171.667,142.635,164.193,135.16,164.193,125.94z"/>
<path style="fill:#B78456;" d="M180.888,402.897l-8.348-16.696l8.348-16.696c9.22,0,16.696,7.475,16.696,16.696
	C197.584,395.423,190.109,402.897,180.888,402.897z"/>
<path style="fill:#C9A06C;" d="M164.193,386.202c0-9.22,7.475-16.696,16.696-16.696v33.391
	C171.667,402.897,164.193,395.423,164.193,386.202z"/>
<path style="fill:#F94C10;" d="M256,144.696l-18.365,36.73L256,218.157c20.285,0,36.73-16.445,36.73-36.73
	S276.285,144.696,256,144.696z"/>
<path style="fill:#FA690E;" d="M219.27,181.426c0,20.285,16.445,36.73,36.73,36.73v-73.461
	C235.715,144.696,219.27,161.141,219.27,181.426z"/>
<circle style="fill:#F72E12;" cx="256" cy="181.426" r="11.13"/>
<path style="fill:#F94C10;" d="M203.268,272.001l-18.365,36.73l18.365,36.73c20.285,0,36.73-16.445,36.73-36.73
	S223.554,272.001,203.268,272.001z"/>
<path style="fill:#FA690E;" d="M166.538,308.732c0,20.285,16.445,36.73,36.73,36.73v-73.461
	C182.983,272.001,166.538,288.446,166.538,308.732z"/>
<circle style="fill:#F72E12;" cx="203.264" cy="308.736" r="11.13"/>
<g>
</g>
<g>
</g>
<g>
</g>
<g>
</g>
<g>
</g>
<g>
</g>
<g>
</g>
<g>
</g>
<g>
</g>
<g>
</g>
<g>
</g>
<g>
</g>
<g>
</g>
<g>
</g>
<g>
</g>
</svg>
