<?xml version="1.0" encoding="iso-8859-1"?>
<!-- Generator: Adobe Illustrator 19.0.0, SVG Export Plug-In . SVG Version: 6.00 Build 0)  -->
<svg version="1.1" id="Layer_1" xmlns="http://www.w3.org/2000/svg" xmlns:xlink="http://www.w3.org/1999/xlink" x="0px" y="0px"
	 viewBox="0 0 512 512" style="enable-background:new 0 0 512 512;" xml:space="preserve">
<path style="fill:#A56840;" d="M510.722,230.318C497.839,100.992,388.716,0,256,0C114.616,0,0,114.616,0,256
	c0,113.387,73.724,209.54,175.844,243.182L510.722,230.318z"/>
<path style="fill:#813115;" d="M512,256c0-8.668-0.436-17.235-1.278-25.682l-53.024-53.024L55.652,378.991l120.192,120.192
	C201.06,507.49,228.001,512,256,512C397.384,512,512,397.384,512,256z"/>
<path style="fill:#DBBC82;" d="M434.087,167.513c-89.043,0-89.043-73.461-178.087-73.461l-22.261,296.07l178.087-33.391
	l22.261-122.435c18.441,0,33.391-14.95,33.391-33.391S452.529,167.513,434.087,167.513z"/>
<path style="fill:#FFE376;" d="M77.913,167.513c-18.441,0-33.391,14.95-33.391,33.391s14.95,33.391,33.391,33.391l22.261,122.435
	L256,390.122V94.052C166.957,94.052,166.957,167.513,77.913,167.513z"/>
<path style="fill:#BA1B77;" d="M393.248,334.47l26.416-145.283c-43.14-3.595-67.196-23.132-88.657-40.569
	c-21.448-17.427-38.388-31.191-75.007-31.191L200.348,256L256,334.47H393.248z"/>
<path style="fill:#D92444;" d="M256,334.47V117.426c-36.618,0-53.559,13.764-75.006,31.19
	c-21.462,17.437-45.517,36.974-88.657,40.569l26.416,145.284H256z"/>
<g>
	<rect x="178.087" y="289.948" style="fill:#BA1B77;" width="22.261" height="22.261"/>
	<rect x="211.478" y="256.557" style="fill:#BA1B77;" width="22.261" height="22.261"/>
	<rect x="133.565" y="234.296" style="fill:#BA1B77;" width="22.261" height="22.261"/>
</g>
<rect x="189.217" y="200.904" style="fill:#F94C10;" width="22.261" height="22.261"/>
<rect x="278.261" y="289.948" style="fill:#D92444;" width="22.261" height="22.261"/>
<rect x="356.174" y="237.913" style="fill:#F72E12;" width="22.261" height="22.261"/>
<g>
	<rect x="322.783" y="204.522" style="fill:#9C11A9;" width="22.261" height="22.261"/>
	<rect x="256" y="182.261" style="fill:#9C11A9;" width="22.261" height="22.261"/>
</g>
<rect x="211.478" y="160" style="fill:#F72E12;" width="22.261" height="22.261"/>
<polygon style="fill:#FFE376;" points="422.957,378.991 233.739,367.861 256,417.948 400.696,417.948 "/>
<g>
	<polygon style="fill:#FFF3AD;" points="89.043,378.991 111.304,417.948 256,417.948 256,367.861 	"/>
	<polygon style="fill:#FFF3AD;" points="456.348,356.73 256,356.73 244.87,367.861 256,378.991 456.348,378.991 	"/>
</g>
<rect x="55.652" y="356.73" style="fill:#FFFFFF;" width="200.348" height="22.261"/>
<g>
</g>
<g>
</g>
<g>
</g>
<g>
</g>
<g>
</g>
<g>
</g>
<g>
</g>
<g>
</g>
<g>
</g>
<g>
</g>
<g>
</g>
<g>
</g>
<g>
</g>
<g>
</g>
<g>
</g>
</svg>
