<?xml version="1.0" encoding="iso-8859-1"?>
<!-- Generator: Adobe Illustrator 19.0.0, SVG Export Plug-In . SVG Version: 6.00 Build 0)  -->
<svg version="1.1" id="Layer_1" xmlns="http://www.w3.org/2000/svg" xmlns:xlink="http://www.w3.org/1999/xlink" x="0px" y="0px"
	 viewBox="0 0 512 512" style="enable-background:new 0 0 512 512;" xml:space="preserve">
<path style="fill:#F8513A;" d="M511.889,248.659C508.002,110.67,394.929,0,256,0C114.616,0,0,114.616,0,256
	c0,132.474,100.625,241.444,229.61,254.653L511.889,248.659z"/>
<path style="fill:#F72E12;" d="M512,256c0-2.456-0.042-4.902-0.111-7.341l-78.361-78.36L256.001,304.12L44.522,325.565
	L229.61,510.653C238.286,511.541,247.089,512,256,512C397.384,512,512,397.384,512,256z"/>
<path style="fill:#FDA409;" d="M378.435,147.478H256l-22.261,178.087l144.696-22.261c43.03,0,77.913-34.883,77.913-77.913
	S421.465,147.478,378.435,147.478z"/>
<polygon style="fill:#FFC207;" points="133.565,147.478 133.565,303.304 256,325.565 256,147.478 "/>
<path style="fill:#FFE376;" d="M133.565,147.478l-46.748,77.913l46.748,77.913c43.03,0,77.913-34.883,77.913-77.913
	S176.595,147.478,133.565,147.478z"/>
<path style="fill:#FFF3AD;" d="M55.652,225.391c0,43.03,34.883,77.913,77.913,77.913V147.478
	C90.535,147.478,55.652,182.361,55.652,225.391z"/>
<path style="fill:#F8513A;" d="M133.565,169.739l-33.391,55.652l33.391,55.652c30.736,0,55.652-24.917,55.652-55.652
	S164.301,169.739,133.565,169.739z"/>
<path style="fill:#FA7461;" d="M77.913,225.391c0,30.736,24.917,55.652,55.652,55.652V169.739
	C102.83,169.739,77.913,194.656,77.913,225.391z"/>
<g>
	<rect x="311.652" y="258.783" style="fill:#FFC207;" width="22.261" height="22.261"/>
	<rect x="278.261" y="225.391" style="fill:#FFC207;" width="22.261" height="22.261"/>
	<rect x="356.174" y="169.739" style="fill:#FFC207;" width="22.261" height="22.261"/>
</g>
<polygon style="fill:#FFE376;" points="434.087,325.565 411.826,364.522 256,364.522 234.296,320 "/>
<g>
	<polygon style="fill:#FFF3AD;" points="100.174,364.522 256,364.522 256,314.435 77.913,325.565 	"/>
	<polygon style="fill:#FFF3AD;" points="256,303.304 245.009,314.435 256,325.565 467.478,325.565 467.478,303.304 	"/>
</g>
<rect x="44.522" y="303.304" style="fill:#FFFFFF;" width="211.478" height="22.261"/>
<g>
</g>
<g>
</g>
<g>
</g>
<g>
</g>
<g>
</g>
<g>
</g>
<g>
</g>
<g>
</g>
<g>
</g>
<g>
</g>
<g>
</g>
<g>
</g>
<g>
</g>
<g>
</g>
<g>
</g>
</svg>
