<?xml version="1.0" encoding="iso-8859-1"?>
<!-- Generator: Adobe Illustrator 19.0.0, SVG Export Plug-In . SVG Version: 6.00 Build 0)  -->
<svg version="1.1" id="Layer_1" xmlns="http://www.w3.org/2000/svg" xmlns:xlink="http://www.w3.org/1999/xlink" x="0px" y="0px"
	 viewBox="0 0 512 512" style="enable-background:new 0 0 512 512;" xml:space="preserve">
<path style="fill:#F72E12;" d="M509.572,220.744C492.393,96.046,385.421,0,256,0C114.616,0,0,114.616,0,256
	c0,119.146,81.397,219.277,191.615,247.83L509.572,220.744z"/>
<path style="fill:#692811;" d="M512,256c0-11.964-0.839-23.729-2.428-35.256l-64.361-64.361l-45.68,45.68l-95.765-95.765
	L44.516,356.732L191.615,503.83C212.187,509.159,233.761,512,256,512C397.384,512,512,397.384,512,256z"/>
<g>
	<rect x="243.2" y="146.098" style="fill:#63842C;" width="25.6" height="21.493"/>
	<path style="fill:#63842C;" d="M274.218,124.518L256,154.065c12.276,5.025,30.172,1.672,39.805-7.96
		c9.632-9.632,12.987-27.529,7.961-39.805L274.218,124.518z"/>
</g>
<g>
	<path style="fill:#81982D;" d="M263.962,114.261c-9.632,9.632-12.987,27.529-7.962,39.806l47.766-47.766
		C291.49,101.274,273.594,104.628,263.962,114.261z"/>
	<path style="fill:#81982D;" d="M237.782,124.518L256,154.065c-12.276,5.025-30.172,1.672-39.805-7.96
		c-9.632-9.632-12.987-27.529-7.96-39.805L237.782,124.518z"/>
</g>
<path style="fill:#A0AD2F;" d="M248.038,114.261c9.632,9.632,12.987,27.529,7.962,39.806L208.234,106.3
	C220.509,101.274,238.406,104.628,248.038,114.261z"/>
<polygon style="fill:#FFF3AD;" points="255.994,156.384 233.734,200.905 445.212,178.645 445.212,156.384 "/>
<polygon style="fill:#FFFFFF;" points="66.777,156.384 66.777,178.645 255.994,200.905 255.994,156.384 "/>
<polygon style="fill:#FFD23E;" points="255.994,178.645 233.734,223.166 445.212,200.905 445.212,178.645 "/>
<polygon style="fill:#FFE376;" points="66.777,178.645 66.777,200.905 255.994,223.166 255.994,178.645 "/>
<polygon style="fill:#F8513A;" points="255.994,200.905 233.734,267.688 445.212,245.427 445.212,200.905 378.429,200.905 
	367.299,212.036 356.168,200.905 "/>
<g>
	<rect x="400.696" y="223.165" style="fill:#F72E12;" width="22.261" height="33.391"/>
	<rect x="333.913" y="223.165" style="fill:#F72E12;" width="22.261" height="33.391"/>
</g>
<polygon style="fill:#FA7461;" points="66.777,200.905 66.777,245.427 255.994,267.688 255.994,200.905 "/>
<polygon style="fill:#FFD23E;" points="255.994,245.427 233.734,289.949 445.212,267.688 445.212,245.427 "/>
<polygon style="fill:#FFE376;" points="66.777,245.427 66.777,267.688 255.994,289.949 255.994,245.427 "/>
<polygon style="fill:#F8513A;" points="255.994,267.688 233.734,334.471 445.212,312.21 445.212,267.688 "/>
<g>
	<rect x="400.696" y="289.948" style="fill:#F72E12;" width="22.261" height="33.391"/>
	<rect x="289.391" y="289.948" style="fill:#F72E12;" width="22.261" height="33.391"/>
</g>
<polygon style="fill:#FA7461;" points="66.777,267.688 66.777,312.21 255.994,334.471 255.994,267.688 111.299,267.688 
	100.168,278.819 89.038,267.688 "/>
<g>
	<rect x="89.038" y="267.687" style="fill:#F8513A;" width="22.261" height="22.261"/>
	<rect x="111.304" y="289.948" style="fill:#F8513A;" width="22.261" height="33.391"/>
	<rect x="155.826" y="289.948" style="fill:#F8513A;" width="22.261" height="33.391"/>
</g>
<polygon style="fill:#FFD23E;" points="255.994,312.21 233.734,356.732 445.212,334.471 445.212,312.21 "/>
<g>
	<polygon style="fill:#FFE376;" points="66.777,312.21 66.777,334.471 255.994,356.732 255.994,312.21 	"/>
	<polygon style="fill:#FFE376;" points="434.081,356.732 411.82,395.688 255.994,395.688 234.29,345.601 	"/>
</g>
<g>
	<polygon style="fill:#FFF3AD;" points="100.168,395.688 255.994,395.688 255.994,345.601 77.907,356.732 	"/>
	<polygon style="fill:#FFF3AD;" points="467.473,334.471 467.473,356.732 255.994,356.732 245.003,345.601 255.994,334.471 	"/>
</g>
<rect x="44.516" y="334.47" style="fill:#FFFFFF;" width="211.478" height="22.261"/>
<path style="fill:#FFF3AD;" d="M278.255,173.079v77.913c0,9.22,7.475,16.696,16.696,16.696c9.22,0,16.696-7.475,16.696-16.696
	v-77.913H278.255z"/>
<path style="fill:#FFD23E;" d="M333.907,250.992v33.391c0,9.22,7.475,16.696,16.696,16.696c9.22,0,16.696-7.475,16.696-16.696
	v-33.391H333.907z"/>
<g>
	<path style="fill:#FFFFFF;" d="M233.734,173.079v94.609c0,9.22-7.475,16.696-16.696,16.696c-9.22,0-16.696-7.475-16.696-16.696
		v-94.609H233.734z"/>
	<path style="fill:#FFFFFF;" d="M178.081,173.079v44.522c0,9.22-7.475,16.696-16.696,16.696s-16.696-7.475-16.696-16.696v-44.522
		H178.081z"/>
</g>
<path style="fill:#FFE376;" d="M122.429,184.21v33.391c0,9.22-7.475,16.696-16.696,16.696s-16.696-7.475-16.696-16.696V184.21
	H122.429z"/>
<rect x="356.174" y="200.904" style="fill:#F72E12;" width="22.261" height="22.261"/>
<g>
</g>
<g>
</g>
<g>
</g>
<g>
</g>
<g>
</g>
<g>
</g>
<g>
</g>
<g>
</g>
<g>
</g>
<g>
</g>
<g>
</g>
<g>
</g>
<g>
</g>
<g>
</g>
<g>
</g>
</svg>
