<?xml version="1.0" encoding="iso-8859-1"?>
<!-- Generator: Adobe Illustrator 19.0.0, SVG Export Plug-In . SVG Version: 6.00 Build 0)  -->
<svg version="1.1" id="Layer_1" xmlns="http://www.w3.org/2000/svg" xmlns:xlink="http://www.w3.org/1999/xlink" x="0px" y="0px"
	 viewBox="0 0 512 512" style="enable-background:new 0 0 512 512;" xml:space="preserve">
<path style="fill:#FCB9B0;" d="M511.117,234.766C500.322,103.317,390.233,0,256,0C114.616,0,0,114.616,0,256
	c0,124.526,88.917,228.267,206.72,251.242L511.117,234.766z"/>
<path style="fill:#FB9789;" d="M512,256c0-7.151-0.308-14.23-0.883-21.234l-61.289-61.289L85.783,330.653l-41.262-7.87v22.261
	L206.72,507.242C222.669,510.353,239.142,512,256,512C397.384,512,512,397.384,512,256z"/>
<path style="fill:#FA690E;" d="M434.087,166.957h-22.256L244.87,300.522L256,333.913h178.087V211.478
	c12.295,0,22.261-9.966,22.261-22.261C456.348,176.923,446.382,166.957,434.087,166.957z"/>
<rect x="77.913" y="300.522" style="fill:#FC870B;" width="178.087" height="33.391"/>
<g>
	<circle style="fill:#D92444;" cx="372.87" cy="166.957" r="38.957"/>
	<circle style="fill:#D92444;" cx="294.957" cy="166.957" r="38.957"/>
</g>
<g>
	<circle style="fill:#F72E12;" cx="217.043" cy="166.957" r="38.957"/>
	<circle style="fill:#F72E12;" cx="139.13" cy="166.957" r="38.957"/>
</g>
<polygon style="fill:#B51E39;" points="411.826,166.957 411.826,189.217 233.739,200.348 256,166.957 "/>
<polygon style="fill:#D92444;" points="256,278.261 77.913,189.217 77.913,166.957 256,166.957 "/>
<polygon style="fill:#F72E12;" points="411.826,300.522 256,300.522 233.739,244.87 256,189.217 411.826,189.217 "/>
<g>
	<rect x="356.174" y="211.478" style="fill:#F8513A;" width="22.261" height="22.261"/>
	<rect x="77.913" y="189.217" style="fill:#F8513A;" width="178.087" height="111.304"/>
</g>
<g>
	<rect x="100.174" y="256" style="fill:#F72E12;" width="22.261" height="22.261"/>
	<rect x="133.565" y="222.609" style="fill:#F72E12;" width="22.261" height="22.261"/>
</g>
<polygon style="fill:#FFE376;" points="434.087,345.043 411.826,384 256,384 234.296,339.478 "/>
<g>
	<polygon style="fill:#FFF3AD;" points="100.174,384 256,384 256,333.913 77.913,345.043 	"/>
	<polygon style="fill:#FFF3AD;" points="256,322.783 245.009,333.913 256,345.043 467.478,345.043 467.478,322.783 	"/>
</g>
<rect x="44.522" y="322.783" style="fill:#FFFFFF;" width="211.478" height="22.261"/>
<g>
</g>
<g>
</g>
<g>
</g>
<g>
</g>
<g>
</g>
<g>
</g>
<g>
</g>
<g>
</g>
<g>
</g>
<g>
</g>
<g>
</g>
<g>
</g>
<g>
</g>
<g>
</g>
<g>
</g>
</svg>
