<?xml version="1.0" encoding="iso-8859-1"?>
<!-- Generator: Adobe Illustrator 19.0.0, SVG Export Plug-In . SVG Version: 6.00 Build 0)  -->
<svg version="1.1" id="Layer_1" xmlns="http://www.w3.org/2000/svg" xmlns:xlink="http://www.w3.org/1999/xlink" x="0px" y="0px"
	 viewBox="0 0 512.001 512.001" style="enable-background:new 0 0 512.001 512.001;" xml:space="preserve">
<path style="fill:#185F9F;" d="M509.024,216.85C490.178,94.049,384.074,0,256.001,0c-141.384,0-256,114.616-256,256
	c0,134.142,103.178,244.171,234.499,255.093L509.024,216.85z"/>
<path style="fill:#134C7F;" d="M512.001,256c0-13.312-1.017-26.386-2.977-39.15l-47.11-47.111l-6.285,4.945L327.016,46.072v205.476
	L143.581,420.174l90.92,90.92c7.09,0.59,14.258,0.906,21.501,0.907C397.385,512,512.002,397.384,512.001,256z"/>
<path style="fill:#5CB2FE;" d="M298.514,57.878c0-9.22,7.475-16.696,16.696-16.696s16.696,7.475,16.696,16.696V283.27h-33.391
	V57.878z"/>
<path style="fill:#FFD23E;" d="M417.392,147.478c-6.36,0-12.082,2.681-16.139,6.959c-4.057-4.277-9.779-6.959-16.139-6.959
	s-12.082,2.681-16.139,6.959c-4.057-4.277-9.779-6.959-16.139-6.959s-12.082,2.681-16.139,6.959
	c-4.057-4.277-9.779-6.959-16.139-6.959s-12.082,2.681-16.139,6.959c-4.057-4.277-9.779-6.959-16.139-6.959
	s-12.082,2.681-16.139,6.959c-4.057-4.277-9.779-6.959-16.139-6.959L233.74,192h183.652c12.295,0,22.261-9.966,22.261-22.261
	C439.653,157.444,429.687,147.478,417.392,147.478z"/>
<path style="fill:#FFE376;" d="M256.001,147.478c-6.36,0-12.082,2.681-16.139,6.959c-4.057-4.277-9.779-6.959-16.139-6.959
	s-12.082,2.681-16.139,6.959c-4.057-4.277-9.779-6.959-16.139-6.959s-12.082,2.681-16.139,6.959
	c-4.057-4.277-9.779-6.959-16.139-6.959s-12.082,2.681-16.139,6.959c-4.057-4.277-9.779-6.959-16.139-6.959
	s-12.082,2.681-16.139,6.959c-4.057-4.277-9.779-6.959-16.139-6.959c-12.295,0-22.261,9.966-22.261,22.261
	c0,12.295,9.966,22.261,22.261,22.261h161.391V147.478z"/>
<path style="fill:#92CCFF;" d="M439.653,169.739L222.609,381.217l33.391,38.957h112.414v-38.945
	c56.29-36.752,93.499-100.292,93.499-172.533v-38.957H439.653z"/>
<path style="fill:#C9E5FF;" d="M72.348,169.739H50.088v38.957c0,72.238,37.206,135.777,93.492,172.528v38.95h112.421v-38.957
	L72.348,169.739z"/>
<path style="fill:#FFF3AD;" d="M233.044,185.739l22.957,206.609c101.428,0,183.652-82.224,183.652-183.652L233.044,185.739z"/>
<path style="fill:#FFFFFF;" d="M72.348,208.696c0,101.428,82.224,183.652,183.652,183.652V185.739L72.348,208.696z"/>
<path style="fill:#FFE376;" d="M256.001,169.739l-22.957,21.739l22.957,17.218c45.909,0.002,45.911,22.261,91.823,22.261
	c45.914,0,45.914-22.261,91.829-22.261v-38.957H256.001z"/>
<g>
	<path style="fill:#FFF3AD;" d="M72.348,169.739v38.957c45.911,0,45.911,22.261,91.822,22.261c45.912,0,45.917-22.261,91.831-22.261
		v-38.957H72.348z"/>
	<rect x="211.479" y="325.565" style="fill:#FFF3AD;" width="22.261" height="22.261"/>
	<rect x="133.566" y="281.043" style="fill:#FFF3AD;" width="22.261" height="22.261"/>
</g>
<g>
	<rect x="333.914" y="300.522" style="fill:#FFE376;" width="22.261" height="22.261"/>
	<rect x="367.305" y="267.13" style="fill:#FFE376;" width="22.261" height="22.261"/>
	<rect x="278.261" y="258.783" style="fill:#FFE376;" width="22.261" height="22.261"/>
</g>
<g>
</g>
<g>
</g>
<g>
</g>
<g>
</g>
<g>
</g>
<g>
</g>
<g>
</g>
<g>
</g>
<g>
</g>
<g>
</g>
<g>
</g>
<g>
</g>
<g>
</g>
<g>
</g>
<g>
</g>
</svg>
