<?xml version="1.0" encoding="iso-8859-1"?>
<!-- Generator: Adobe Illustrator 19.0.0, SVG Export Plug-In . SVG Version: 6.00 Build 0)  -->
<svg version="1.1" id="Layer_1" xmlns="http://www.w3.org/2000/svg" xmlns:xlink="http://www.w3.org/1999/xlink" x="0px" y="0px"
	 viewBox="0 0 512 512" style="enable-background:new 0 0 512 512;" xml:space="preserve">
<path style="fill:#C9A06C;" d="M511.963,253.097C510.405,113.052,396.415,0,256,0C114.616,0,0,114.616,0,256
	c0,124.525,88.918,228.267,206.72,251.242L511.963,253.097z"/>
<path style="fill:#B78456;" d="M512,256c0-0.971-0.026-1.936-0.037-2.903l-47.184-47.184l-22.829,13.43l-30.125-30.126l-5.565,5.565
	l-116.87-116.87v44.522L244.87,77.913l-22.261,89.043l145.091,145.091L44.522,345.043L206.72,507.242
	C222.669,510.353,239.142,512,256,512C397.385,512,512,397.385,512,256z"/>
<polygon style="fill:#FFE376;" points="111.304,230.282 77.913,230.282 89.043,253.227 111.304,253.227 "/>
<g>
	<polygon style="fill:#FFD23E;" points="434.087,230.282 400.696,230.282 400.696,253.227 422.957,253.227 	"/>
	<path style="fill:#FFD23E;" d="M233.739,239.304L256,322.783h111.304c18.365,0,33.391-15.026,33.391-33.391v-50.087H233.739z"/>
</g>
<g>
	<path style="fill:#FFE376;" d="M111.304,239.304v50.087c0,18.365,15.026,33.391,33.391,33.391H256v-83.478H111.304z"/>
	<polygon style="fill:#FFE376;" points="434.087,345.043 411.826,384 256,384 234.296,339.478 	"/>
</g>
<g>
	<polygon style="fill:#FFF3AD;" points="100.174,384 256,384 256,333.913 77.913,345.043 	"/>
	<polygon style="fill:#FFF3AD;" points="256,322.783 245.009,333.913 256,345.043 467.478,345.043 467.478,322.783 	"/>
</g>
<rect x="44.522" y="322.783" style="fill:#FFFFFF;" width="211.478" height="22.261"/>
<rect x="43.503" y="213.916" transform="matrix(-0.9701 -0.2425 0.2425 -0.9701 98.9393 462.2704)" style="fill:#FFE376;" width="68.835" height="22.259"/>
<rect x="422.955" y="190.61" transform="matrix(-0.2425 -0.9701 0.9701 -0.2425 321.0447 700.7247)" style="fill:#FFD23E;" width="22.259" height="68.835"/>
<polygon style="fill:#FFE376;" points="411.826,189.217 256,189.217 222.609,239.305 256,289.391 411.826,289.391 "/>
<rect x="100.174" y="189.217" style="fill:#FFF3AD;" width="155.826" height="100.174"/>
<g>
	<rect x="367.304" y="211.478" style="fill:#FFD23E;" width="22.261" height="22.261"/>
	<rect x="333.913" y="244.87" style="fill:#FFD23E;" width="22.261" height="22.261"/>
</g>
<g>
	<rect x="222.609" y="77.913" style="fill:#FFFFFF;" width="22.261" height="89.043"/>
	<rect x="267.13" y="77.913" style="fill:#FFFFFF;" width="22.261" height="89.043"/>
</g>
<g>
</g>
<g>
</g>
<g>
</g>
<g>
</g>
<g>
</g>
<g>
</g>
<g>
</g>
<g>
</g>
<g>
</g>
<g>
</g>
<g>
</g>
<g>
</g>
<g>
</g>
<g>
</g>
<g>
</g>
</svg>
