<?xml version="1.0" encoding="iso-8859-1"?>
<!-- Generator: Adobe Illustrator 19.0.0, SVG Export Plug-In . SVG Version: 6.00 Build 0)  -->
<svg version="1.1" id="Layer_1" xmlns="http://www.w3.org/2000/svg" xmlns:xlink="http://www.w3.org/1999/xlink" x="0px" y="0px"
	 viewBox="0 0 512 512" style="enable-background:new 0 0 512 512;" xml:space="preserve">
<path style="fill:#692811;" d="M504.026,192.374C475.737,81.771,375.42,0,256,0C114.616,0,0,114.616,0,256
	c0,119.42,81.771,219.737,192.374,248.026L504.026,192.374z"/>
<path style="fill:#3A160A;" d="M512,256c0-21.965-2.77-43.283-7.974-63.626l-81.07-81.07L66.783,378.435l125.591,125.591
	C212.717,509.23,234.035,512,256,512C397.384,512,512,397.384,512,256z"/>
<polygon style="fill:#FFD23E;" points="422.957,111.304 256,111.304 233.739,345.043 422.957,345.043 "/>
<path style="fill:#FFE376;" d="M89.043,111.304v72.348c18.442,0,33.391,14.95,33.391,33.391s-14.949,33.391-33.391,33.391v94.609
	H256V111.304H89.043z"/>
<rect x="111.304" y="278.261" style="fill:#FFD23E;" width="22.261" height="22.261"/>
<g>
	<rect x="378.435" y="178.087" style="fill:#FFC207;" width="22.261" height="22.261"/>
	<circle style="fill:#FFC207;" cx="367.304" cy="267.13" r="33.391"/>
	<circle style="fill:#FFC207;" cx="311.652" cy="166.957" r="33.391"/>
</g>
<circle style="fill:#FFD23E;" cx="192" cy="200.348" r="41.739"/>
<path style="fill:#FFC207;" d="M306.087,322.783c0-27.662-22.424-50.087-50.087-50.087l-22.261,72.348h67.129
	C304.203,338.336,306.087,330.782,306.087,322.783z"/>
<path style="fill:#FFD23E;" d="M205.913,322.783c0,7.999,1.884,15.554,5.219,22.261H256v-72.348
	C228.338,272.696,205.913,295.121,205.913,322.783z"/>
<polygon style="fill:#B78456;" points="256,322.783 233.739,361.739 445.217,356.174 445.217,322.783 "/>
<g>
	<polygon style="fill:#C9A06C;" points="66.783,322.783 66.783,345.043 256,361.739 256,322.783 	"/>
	<path style="fill:#C9A06C;" d="M256,350.609l-11.13,11.13L256,378.435h189.217v-22.261
		C325.565,356.174,304.696,353.391,256,350.609z"/>
</g>
<path style="fill:#DBBC82;" d="M66.783,378.435H256v-27.826c-48.696-2.783-102.957-5.565-189.217-5.565V378.435z"/>
<g>
</g>
<g>
</g>
<g>
</g>
<g>
</g>
<g>
</g>
<g>
</g>
<g>
</g>
<g>
</g>
<g>
</g>
<g>
</g>
<g>
</g>
<g>
</g>
<g>
</g>
<g>
</g>
<g>
</g>
</svg>
