<?xml version="1.0" encoding="iso-8859-1"?>
<!-- Generator: Adobe Illustrator 19.0.0, SVG Export Plug-In . SVG Version: 6.00 Build 0)  -->
<svg version="1.1" id="Layer_1" xmlns="http://www.w3.org/2000/svg" xmlns:xlink="http://www.w3.org/1999/xlink" x="0px" y="0px"
	 viewBox="0 0 512 512" style="enable-background:new 0 0 512 512;" xml:space="preserve">
<path style="fill:#63842C;" d="M511.117,234.766C500.322,103.317,390.233,0,256,0C114.616,0,0,114.616,0,256
	c0,124.526,88.917,228.267,206.72,251.242L511.117,234.766z"/>
<path style="fill:#274E2D;" d="M512,256c0-7.151-0.308-14.23-0.883-21.234l-61.289-61.289L85.783,330.653l-41.262-7.87v22.261
	L206.72,507.242C222.669,510.353,239.142,512,256,512C397.384,512,512,397.384,512,256z"/>
<path style="fill:#FFD23E;" d="M434.087,166.957C345.043,166.957,345.043,128,256,128l-55.652,102.957L256,333.913h178.087V211.478
	c12.295,0,22.261-9.966,22.261-22.261C456.348,176.923,446.382,166.957,434.087,166.957z"/>
<path style="fill:#FFE376;" d="M77.913,166.957C166.957,166.957,166.957,128,256,128v205.913H77.913V211.478
	c-12.295,0-22.261-9.966-22.261-22.261C55.652,176.923,65.618,166.957,77.913,166.957z"/>
<polygon style="fill:#81982D;" points="256,300.522 322.783,300.522 333.913,289.391 345.043,300.522 411.826,300.522 
	411.826,211.478 389.565,189.217 345.043,189.217 322.783,200.348 300.522,189.217 256,189.217 211.478,244.87 "/>
<polygon style="fill:#A0AD2F;" points="100.174,189.217 100.174,278.261 122.435,300.522 189.217,300.522 211.478,289.391 
	233.739,300.522 256,300.522 256,189.217 189.217,189.217 178.087,200.348 166.957,189.217 "/>
<polygon style="fill:#92CCFF;" points="434.087,345.043 411.826,384 256,384 234.296,339.478 "/>
<g>
	<polygon style="fill:#C9E5FF;" points="100.174,384 256,384 256,333.913 77.913,345.043 	"/>
	<polygon style="fill:#C9E5FF;" points="256,322.783 245.009,333.913 256,345.043 467.478,345.043 467.478,322.783 	"/>
</g>
<rect x="44.522" y="322.783" style="fill:#FFFFFF;" width="211.478" height="22.261"/>
<polygon style="fill:#FFE376;" points="389.565,233.739 389.565,278.261 367.304,278.261 356.174,256 367.304,233.739 "/>
<g>
	<rect x="345.043" y="233.739" style="fill:#FFF3AD;" width="22.261" height="44.522"/>
	<polygon style="fill:#FFF3AD;" points="211.478,256 200.348,278.261 211.478,300.522 233.739,300.522 233.739,256 	"/>
</g>
<rect x="189.217" y="256" style="fill:#FFFFFF;" width="22.261" height="44.522"/>
<polygon style="fill:#FFF3AD;" points="144.696,233.739 133.565,256 144.696,278.261 166.957,278.261 166.957,233.739 "/>
<rect x="122.435" y="233.739" style="fill:#FFFFFF;" width="22.261" height="44.522"/>
<polygon style="fill:#FFE376;" points="345.043,189.217 345.043,233.739 322.783,233.739 311.652,211.478 322.783,189.217 "/>
<rect x="300.522" y="189.217" style="fill:#FFF3AD;" width="22.261" height="44.522"/>
<rect x="100.174" y="278.261" style="fill:#63842C;" width="22.261" height="22.261"/>
<rect x="166.957" y="189.217" style="fill:#BEC130;" width="22.261" height="22.261"/>
<rect x="211.478" y="211.478" style="fill:#63842C;" width="22.261" height="22.261"/>
<g>
	<rect x="278.261" y="256" style="fill:#A0AD2F;" width="22.261" height="22.261"/>
	<rect x="389.565" y="189.217" style="fill:#A0AD2F;" width="22.261" height="22.261"/>
</g>
<rect x="322.783" y="278.261" style="fill:#63842C;" width="22.261" height="22.261"/>
<g>
</g>
<g>
</g>
<g>
</g>
<g>
</g>
<g>
</g>
<g>
</g>
<g>
</g>
<g>
</g>
<g>
</g>
<g>
</g>
<g>
</g>
<g>
</g>
<g>
</g>
<g>
</g>
<g>
</g>
</svg>
