<?xml version="1.0" encoding="iso-8859-1"?>
<!-- Generator: Adobe Illustrator 19.0.0, SVG Export Plug-In . SVG Version: 6.00 Build 0)  -->
<svg version="1.1" id="Layer_1" xmlns="http://www.w3.org/2000/svg" xmlns:xlink="http://www.w3.org/1999/xlink" x="0px" y="0px"
	 viewBox="0 0 512 512" style="enable-background:new 0 0 512 512;" xml:space="preserve">
<path style="fill:#FA690E;" d="M502.865,188.049C473.095,79.648,373.856,0,256,0C114.615,0,0,114.615,0,256
	c0,117.856,79.648,217.094,188.049,246.865L502.865,188.049z"/>
<path style="fill:#D92444;" d="M512,256c0-23.529-3.191-46.309-9.135-67.951l-89.458-89.458L98.592,413.408l89.458,89.458
	c21.641,5.944,44.422,9.135,67.951,9.135C397.385,512,512,397.384,512,256z"/>
<path style="fill:#FFF3AD;" d="M256,33.391L144.696,256L256,478.609c122.943,0,222.609-99.665,222.609-222.609
	S378.943,33.391,256,33.391z"/>
<path style="fill:#FFFFFF;" d="M33.391,256c0,122.943,99.665,222.609,222.609,222.609V33.391
	C133.057,33.391,33.391,133.057,33.391,256z"/>
<path style="fill:#FFD23E;" d="M256,66.783L161.391,256L256,445.217c104.501,0,189.217-84.715,189.217-189.217
	S360.501,66.783,256,66.783z"/>
<path style="fill:#FA690E;" d="M340.591,184.765v142.47c39.342,0,71.235-31.892,71.235-71.235S379.933,184.765,340.591,184.765z"/>
<path style="fill:#FFE376;" d="M66.783,256c0,104.503,84.716,189.217,189.217,189.217V66.783
	C151.499,66.783,66.783,151.497,66.783,256z"/>
<path style="fill:#934D2B;" d="M321.67,117.983c-32.835,0-32.835,11.13-65.67,11.13L222.609,256L256,382.887
	c35.617,0,35.617,11.13,71.235,11.13c24.588,0,44.522-19.932,44.522-44.522v-71.235L360.626,256l11.13-22.261v-4.825
	c10.384-11.77,16.696-27.218,16.696-44.149C388.452,147.882,358.552,117.983,321.67,117.983z"/>
<path style="fill:#FC870B;" d="M100.174,256c0,39.342,31.893,71.235,71.235,71.235v-142.47
	C132.067,184.765,100.174,216.658,100.174,256z"/>
<path style="fill:#B78456;" d="M190.33,117.983c-36.883,0-66.783,29.9-66.783,66.783c0,16.93,6.312,32.378,16.696,44.149v4.825
	L151.374,256l-11.13,22.261v71.235c0,24.589,19.933,44.522,44.522,44.522c35.617,0,35.617-11.13,71.235-11.13V129.113
	C223.165,129.113,223.165,117.983,190.33,117.983z"/>
<path style="fill:#C9A06C;" d="M321.67,140.243c-12.747,0-18.175,1.84-25.688,4.387c-8.863,3.005-19.893,6.744-39.982,6.744
	L222.609,256L256,360.626c21.206,0,32.39,3.495,42.257,6.578c8.139,2.543,14.566,4.552,28.978,4.552
	c12.275,0,22.261-9.986,22.261-22.261V219.509c10.174-8.16,16.696-20.687,16.696-34.744
	C366.191,160.216,346.219,140.243,321.67,140.243z"/>
<path style="fill:#DBBC82;" d="M216.018,144.63c-7.513-2.547-12.941-4.387-25.688-4.387c-24.549,0-44.522,19.972-44.522,44.522
	c0,14.057,6.521,26.584,16.696,34.744v129.987c0,12.275,9.986,22.261,22.261,22.261c14.412,0,20.839-2.009,28.978-4.552
	c9.867-3.083,21.051-6.578,42.257-6.578V151.374C235.912,151.374,224.882,147.635,216.018,144.63z"/>
<path style="fill:#FA690E;" d="M256,184.765L227.506,256L256,327.235c39.342,0,71.235-31.893,71.235-71.235
	S295.342,184.765,256,184.765z"/>
<polygon style="fill:#FC870B;" points="201.461,233.739 162.504,233.739 151.374,256 162.504,278.261 201.461,278.261 "/>
<rect x="140.243" y="233.739" style="fill:#FA690E;" width="22.261" height="44.522"/>
<path style="fill:#FC870B;" d="M184.765,256c0,39.342,31.893,71.235,71.235,71.235v-142.47
	C216.658,184.765,184.765,216.658,184.765,256z"/>
<polygon style="fill:#FA690E;" points="349.496,233.739 288.278,233.739 288.278,278.261 349.496,278.261 360.626,256 "/>
<rect x="349.496" y="233.739" style="fill:#F94C10;" width="22.261" height="44.522"/>
<polygon style="fill:#FFE376;" points="289.391,222.609 256,222.609 244.87,256 256,289.391 289.391,289.391 "/>
<rect x="222.609" y="222.609" style="fill:#FFF3AD;" width="33.391" height="66.783"/>
<g>
</g>
<g>
</g>
<g>
</g>
<g>
</g>
<g>
</g>
<g>
</g>
<g>
</g>
<g>
</g>
<g>
</g>
<g>
</g>
<g>
</g>
<g>
</g>
<g>
</g>
<g>
</g>
<g>
</g>
</svg>
