<?xml version="1.0" encoding="iso-8859-1"?>
<!-- Generator: Adobe Illustrator 19.0.0, SVG Export Plug-In . SVG Version: 6.00 Build 0)  -->
<svg version="1.1" id="Layer_1" xmlns="http://www.w3.org/2000/svg" xmlns:xlink="http://www.w3.org/1999/xlink" x="0px" y="0px"
	 viewBox="0 0 512 512" style="enable-background:new 0 0 512 512;" xml:space="preserve">
<path style="fill:#FCB9B0;" d="M502.865,188.049C473.095,79.648,373.856,0,256,0C114.615,0,0,114.615,0,256
	c0,117.856,79.648,217.094,188.049,246.865L502.865,188.049z"/>
<path style="fill:#FA7461;" d="M512,256c0-23.529-3.191-46.309-9.135-67.951l-89.458-89.458L98.592,413.408l89.458,89.458
	c21.641,5.944,44.422,9.135,67.951,9.135C397.385,512,512,397.384,512,256z"/>
<path style="fill:#FFF3AD;" d="M256,33.391L144.696,256L256,478.609c122.943,0,222.609-99.665,222.609-222.609
	S378.943,33.391,256,33.391z"/>
<path style="fill:#FFFFFF;" d="M33.391,256c0,122.943,99.665,222.609,222.609,222.609V33.391
	C133.057,33.391,33.391,133.057,33.391,256z"/>
<path style="fill:#FFD23E;" d="M256,66.783L161.391,256L256,445.217c104.501,0,189.217-84.715,189.217-189.217
	S360.501,66.783,256,66.783z"/>
<path style="fill:#FFE376;" d="M66.783,256c0,104.503,84.716,189.217,189.217,189.217V66.783
	C151.499,66.783,66.783,151.497,66.783,256z"/>
<path style="fill:#934D2B;" d="M381.941,244.847c4.931,13.935,7.624,28.928,7.624,44.544c0,73.761-59.804,133.565-133.565,133.565
	L200.348,256L256,89.043c43.609,0,80.707,27.871,94.464,66.76L381.941,244.847z"/>
<path style="fill:#A56840;" d="M256,89.043v333.913c-73.761,0-133.565-59.804-133.565-133.565c0-15.616,2.694-30.609,7.624-44.544
	l31.477-89.043C175.293,116.914,212.391,89.043,256,89.043z"/>
<path style="fill:#692811;" d="M355.821,287.165l10.69-11.132c-0.971-8.105-2.827-16.058-5.551-23.762l-5.768-16.309l-19.001-11.125
	l11.13-11.13l-14.169-40.067l-20.164-11.14l11.13-11.13c-13.574-24.391-39.56-40.064-68.119-40.064L200.348,256L256,400.696
	c34.3,0,65.024-15.595,85.458-40.066l-11.13-11.13l25.577-11.061c6.054-12.282,9.909-25.836,11.047-40.142L355.821,287.165z"/>
<path style="fill:#813115;" d="M156.179,287.165l-10.69-11.132c0.971-8.105,2.827-16.058,5.551-23.762l5.768-16.309l19.001-11.125
	l-11.13-11.13l14.169-40.067l20.164-11.14l-11.13-11.13c13.574-24.391,39.56-40.064,68.119-40.064v289.391
	c-34.3,0-65.024-15.595-85.458-40.066l11.13-11.13l-25.577-11.061c-6.054-12.282-9.909-25.836-11.047-40.142L156.179,287.165z"/>
<g>
	<path style="fill:#521F0E;" d="M240.01,287.165l15.99,11.13h110.948c0.234-2.938,0.356-5.907,0.356-8.904
		c0-4.489-0.28-8.944-0.808-13.357H256L240.01,287.165z"/>
	<path style="fill:#521F0E;" d="M240.01,349.496l15.99,11.13h85.454c5.665-6.786,10.539-14.254,14.478-22.261H256L240.01,349.496z"
		/>
	<polygon style="fill:#521F0E;" points="240.009,224.835 255.999,235.965 355.193,235.965 347.322,213.704 255.999,213.704 	"/>
	<path style="fill:#521F0E;" d="M240.009,162.504l15.99,11.13h77.154l-3.68-10.407c-1.466-4.144-3.271-8.099-5.362-11.854h-68.113
		L240.009,162.504z"/>
</g>
<g>
	<path style="fill:#692811;" d="M256,276.035H145.504c-0.528,4.412-0.808,8.868-0.808,13.357c0,2.997,0.122,5.966,0.356,8.904H256
		V276.035z"/>
	<path style="fill:#692811;" d="M256,338.365h-99.932c3.94,8.007,8.813,15.475,14.478,22.261H256V338.365z"/>
	<polygon style="fill:#692811;" points="255.999,213.704 164.678,213.704 156.807,235.965 255.999,235.965 	"/>
	<path style="fill:#692811;" d="M255.999,151.374H187.89c-2.09,3.755-3.896,7.71-5.362,11.854l-3.68,10.407h77.151V151.374z"/>
</g>
<path style="fill:#934D2B;" d="M256,242.643l-22.261,44.522L256,331.687c24.588,0,44.522-19.934,44.522-44.522
	C300.522,262.577,280.588,242.643,256,242.643z"/>
<path style="fill:#A56840;" d="M211.478,287.165c0,24.588,19.933,44.522,44.522,44.522v-89.043
	C231.412,242.643,211.478,262.577,211.478,287.165z"/>
<path style="fill:#FB9789;" d="M256,264.904l-11.13,22.261L256,309.426c12.295,0,22.261-9.966,22.261-22.261
	C278.261,274.871,268.295,264.904,256,264.904z"/>
<path style="fill:#FCB9B0;" d="M233.739,287.165c0,12.295,9.966,22.261,22.261,22.261v-44.522
	C243.705,264.904,233.739,274.871,233.739,287.165z"/>
<g>
	<rect x="90.025" y="213.704" style="fill:#FFFFFF;" width="22.261" height="22.261"/>
	<rect x="391.847" y="191.443" style="fill:#FFFFFF;" width="22.261" height="22.261"/>
</g>
<rect x="369.586" y="146.922" style="fill:#FFF3AD;" width="22.261" height="22.261"/>
<g>
</g>
<g>
</g>
<g>
</g>
<g>
</g>
<g>
</g>
<g>
</g>
<g>
</g>
<g>
</g>
<g>
</g>
<g>
</g>
<g>
</g>
<g>
</g>
<g>
</g>
<g>
</g>
<g>
</g>
</svg>
